<?xml version="1.0" encoding="UTF-8"?>
<svg xmlns="http://www.w3.org/2000/svg" xmlns:xlink="http://www.w3.org/1999/xlink" width="854" height="480" viewBox="0 0 854 480">
<defs>
<g>
<g id="glyph-0-0">
<path d="M 5.460938 -3.269531 L 2.609375 -3.269531 L 2.609375 -1.335938 L 2.820312 -1.335938 C 3.140625 -1.335938 3.367188 -1.273438 3.503906 -1.148438 C 3.640625 -1.023438 3.710938 -0.863281 3.710938 -0.664062 C 3.710938 -0.46875 3.640625 -0.308594 3.503906 -0.183594 C 3.367188 -0.0625 3.140625 0 2.820312 0 L 1.183594 0 C 0.863281 0 0.632812 -0.0625 0.496094 -0.183594 C 0.359375 -0.308594 0.292969 -0.472656 0.292969 -0.671875 C 0.292969 -0.914062 0.398438 -1.101562 0.613281 -1.238281 C 0.714844 -1.304688 0.9375 -1.339844 1.277344 -1.335938 L 1.277344 -6.554688 C 1.042969 -6.578125 0.863281 -6.648438 0.746094 -6.769531 C 0.625 -6.890625 0.566406 -7.042969 0.566406 -7.226562 C 0.566406 -7.425781 0.632812 -7.585938 0.769531 -7.710938 C 0.90625 -7.835938 1.136719 -7.898438 1.457031 -7.898438 L 2.820312 -7.890625 C 3.140625 -7.890625 3.367188 -7.828125 3.503906 -7.707031 C 3.640625 -7.585938 3.710938 -7.425781 3.710938 -7.226562 C 3.710938 -7.027344 3.640625 -6.863281 3.503906 -6.742188 C 3.367188 -6.617188 3.140625 -6.554688 2.820312 -6.554688 L 2.609375 -6.554688 L 2.609375 -4.601562 L 5.460938 -4.601562 L 5.460938 -6.554688 L 5.253906 -6.554688 C 4.933594 -6.554688 4.703125 -6.617188 4.566406 -6.742188 C 4.429688 -6.863281 4.363281 -7.027344 4.363281 -7.226562 C 4.363281 -7.425781 4.429688 -7.585938 4.566406 -7.710938 C 4.703125 -7.835938 4.933594 -7.898438 5.253906 -7.898438 L 6.613281 -7.890625 C 6.9375 -7.890625 7.164062 -7.828125 7.300781 -7.707031 C 7.4375 -7.585938 7.507812 -7.425781 7.507812 -7.226562 C 7.507812 -7.042969 7.445312 -6.890625 7.328125 -6.769531 C 7.207031 -6.648438 7.03125 -6.578125 6.796875 -6.554688 L 6.796875 -1.335938 C 7.140625 -1.335938 7.359375 -1.300781 7.460938 -1.238281 C 7.671875 -1.101562 7.78125 -0.910156 7.78125 -0.664062 C 7.78125 -0.46875 7.710938 -0.308594 7.574219 -0.183594 C 7.4375 -0.0625 7.210938 0 6.886719 0 L 5.253906 0 C 4.933594 0 4.703125 -0.0625 4.566406 -0.183594 C 4.429688 -0.308594 4.363281 -0.472656 4.363281 -0.671875 C 4.363281 -0.867188 4.429688 -1.023438 4.570312 -1.148438 C 4.710938 -1.273438 4.9375 -1.335938 5.253906 -1.335938 L 5.460938 -1.335938 Z "/>
</g>
<g id="glyph-0-1">
<path d="M 7.351562 -2.277344 L 1.875 -2.277344 C 2.015625 -1.929688 2.261719 -1.652344 2.613281 -1.4375 C 2.96875 -1.226562 3.445312 -1.121094 4.050781 -1.121094 C 4.542969 -1.121094 5.203125 -1.226562 6.023438 -1.4375 C 6.359375 -1.527344 6.59375 -1.570312 6.726562 -1.570312 C 6.902344 -1.570312 7.054688 -1.507812 7.175781 -1.378906 C 7.296875 -1.253906 7.355469 -1.097656 7.355469 -0.90625 C 7.355469 -0.730469 7.292969 -0.582031 7.160156 -0.460938 C 6.988281 -0.300781 6.566406 -0.148438 5.890625 -0.00390625 C 5.21875 0.140625 4.574219 0.214844 3.953125 0.214844 C 2.882812 0.214844 2.03125 -0.0859375 1.390625 -0.691406 C 0.75 -1.292969 0.429688 -2.035156 0.429688 -2.917969 C 0.429688 -3.855469 0.777344 -4.617188 1.46875 -5.203125 C 2.160156 -5.792969 2.957031 -6.085938 3.859375 -6.085938 C 4.402344 -6.085938 4.902344 -5.992188 5.355469 -5.800781 C 5.808594 -5.609375 6.144531 -5.402344 6.367188 -5.183594 C 6.679688 -4.859375 6.9375 -4.464844 7.140625 -3.992188 C 7.28125 -3.660156 7.351562 -3.277344 7.351562 -2.84375 L 7.351562 -2.277344 M 5.871094 -3.613281 C 5.667969 -3.996094 5.402344 -4.28125 5.070312 -4.46875 C 4.742188 -4.65625 4.347656 -4.753906 3.894531 -4.753906 C 3.441406 -4.753906 3.050781 -4.65625 2.722656 -4.46875 C 2.390625 -4.28125 2.121094 -3.996094 1.914062 -3.613281 Z "/>
</g>
<g id="glyph-0-2">
<path d="M 3.722656 -5.910156 L 3.722656 -5.078125 C 4.285156 -5.480469 4.726562 -5.75 5.046875 -5.886719 C 5.371094 -6.019531 5.675781 -6.085938 5.957031 -6.085938 C 6.390625 -6.085938 6.8125 -5.925781 7.21875 -5.605469 C 7.496094 -5.386719 7.636719 -5.167969 7.636719 -4.941406 C 7.636719 -4.75 7.570312 -4.589844 7.4375 -4.457031 C 7.304688 -4.324219 7.144531 -4.257812 6.960938 -4.257812 C 6.792969 -4.257812 6.621094 -4.339844 6.4375 -4.503906 C 6.257812 -4.671875 6.09375 -4.753906 5.949219 -4.753906 C 5.765625 -4.753906 5.484375 -4.636719 5.113281 -4.402344 C 4.742188 -4.167969 4.28125 -3.816406 3.722656 -3.347656 L 3.722656 -1.335938 L 5.625 -1.335938 C 5.945312 -1.335938 6.175781 -1.273438 6.3125 -1.148438 C 6.449219 -1.023438 6.515625 -0.863281 6.515625 -0.664062 C 6.515625 -0.46875 6.449219 -0.308594 6.3125 -0.183594 C 6.175781 -0.0625 5.945312 0 5.625 0 L 1.59375 0 C 1.273438 0 1.046875 -0.0625 0.90625 -0.183594 C 0.769531 -0.308594 0.703125 -0.472656 0.703125 -0.671875 C 0.703125 -0.867188 0.769531 -1.023438 0.90625 -1.148438 C 1.046875 -1.273438 1.273438 -1.335938 1.59375 -1.335938 L 2.390625 -1.335938 L 2.390625 -4.578125 L 1.90625 -4.578125 C 1.585938 -4.578125 1.355469 -4.640625 1.21875 -4.761719 C 1.085938 -4.886719 1.015625 -5.046875 1.015625 -5.246094 C 1.015625 -5.441406 1.085938 -5.601562 1.21875 -5.726562 C 1.355469 -5.847656 1.585938 -5.910156 1.90625 -5.910156 Z "/>
</g>
<g id="glyph-0-3">
<path d="M 1.941406 -5.910156 L 1.941406 -5.535156 C 2.15625 -5.746094 2.351562 -5.894531 2.527344 -5.972656 C 2.703125 -6.054688 2.90625 -6.09375 3.136719 -6.09375 C 3.332031 -6.09375 3.527344 -6.046875 3.71875 -5.949219 C 3.910156 -5.855469 4.09375 -5.710938 4.277344 -5.519531 C 4.507812 -5.710938 4.742188 -5.855469 4.976562 -5.945312 C 5.214844 -6.039062 5.457031 -6.085938 5.703125 -6.085938 C 6.199219 -6.085938 6.597656 -5.953125 6.90625 -5.691406 C 7.316406 -5.34375 7.519531 -4.886719 7.519531 -4.324219 L 7.519531 -1.335938 C 7.796875 -1.335938 8.003906 -1.273438 8.136719 -1.144531 C 8.273438 -1.019531 8.339844 -0.859375 8.339844 -0.664062 C 8.339844 -0.46875 8.273438 -0.308594 8.136719 -0.183594 C 8.003906 -0.0625 7.777344 0 7.453125 0 L 6.183594 0 L 6.183594 -4.210938 C 6.183594 -4.417969 6.148438 -4.558594 6.074219 -4.636719 C 6 -4.714844 5.886719 -4.753906 5.734375 -4.753906 C 5.589844 -4.753906 5.453125 -4.714844 5.324219 -4.636719 C 5.164062 -4.527344 4.96875 -4.324219 4.738281 -4.023438 L 4.738281 -1.335938 C 5.015625 -1.335938 5.222656 -1.273438 5.359375 -1.144531 C 5.492188 -1.019531 5.558594 -0.859375 5.558594 -0.664062 C 5.558594 -0.46875 5.492188 -0.308594 5.359375 -0.183594 C 5.222656 -0.0625 4.996094 0 4.675781 0 L 3.40625 0 L 3.40625 -4.210938 C 3.40625 -4.410156 3.367188 -4.550781 3.289062 -4.632812 C 3.214844 -4.710938 3.101562 -4.753906 2.949219 -4.753906 C 2.792969 -4.753906 2.640625 -4.703125 2.488281 -4.605469 C 2.335938 -4.507812 2.152344 -4.3125 1.941406 -4.023438 L 1.941406 -1.335938 C 2.21875 -1.335938 2.425781 -1.273438 2.5625 -1.144531 C 2.699219 -1.019531 2.765625 -0.859375 2.765625 -0.664062 C 2.765625 -0.46875 2.699219 -0.308594 2.5625 -0.183594 C 2.425781 -0.0625 2.195312 0 1.875 0 L 0.671875 0 C 0.347656 0 0.121094 -0.0625 -0.015625 -0.183594 C -0.152344 -0.308594 -0.222656 -0.472656 -0.222656 -0.671875 C -0.222656 -0.867188 -0.152344 -1.023438 -0.0195312 -1.148438 C 0.113281 -1.273438 0.324219 -1.335938 0.605469 -1.335938 L 0.605469 -4.578125 C 0.324219 -4.578125 0.113281 -4.640625 -0.0195312 -4.765625 C -0.152344 -4.890625 -0.222656 -5.050781 -0.222656 -5.246094 C -0.222656 -5.441406 -0.152344 -5.601562 -0.015625 -5.726562 C 0.121094 -5.847656 0.347656 -5.910156 0.671875 -5.910156 Z "/>
</g>
<g id="glyph-0-4">
<path d="M 5.441406 -4.347656 C 5.226562 -4.484375 4.996094 -4.585938 4.757812 -4.652344 C 4.519531 -4.71875 4.269531 -4.753906 4.011719 -4.753906 C 3.492188 -4.753906 3.082031 -4.667969 2.78125 -4.5 C 2.644531 -4.425781 2.578125 -4.34375 2.578125 -4.257812 C 2.578125 -4.15625 2.667969 -4.058594 2.851562 -3.964844 C 2.992188 -3.894531 3.300781 -3.828125 3.78125 -3.761719 C 4.667969 -3.640625 5.285156 -3.519531 5.632812 -3.398438 C 6.085938 -3.238281 6.4375 -3 6.6875 -2.683594 C 6.933594 -2.367188 7.058594 -2.03125 7.058594 -1.679688 C 7.058594 -1.203125 6.847656 -0.804688 6.425781 -0.480469 C 5.824219 -0.015625 5.039062 0.214844 4.074219 0.214844 C 3.6875 0.214844 3.332031 0.179688 3.003906 0.113281 C 2.675781 0.046875 2.375 -0.0507812 2.101562 -0.183594 C 2.039062 -0.125 1.96875 -0.0820312 1.894531 -0.0507812 C 1.820312 -0.0234375 1.746094 -0.0078125 1.667969 -0.0078125 C 1.457031 -0.0078125 1.292969 -0.0742188 1.167969 -0.210938 C 1.046875 -0.347656 0.984375 -0.578125 0.984375 -0.898438 L 0.984375 -1.347656 C 0.984375 -1.667969 1.046875 -1.898438 1.167969 -2.035156 C 1.292969 -2.171875 1.453125 -2.238281 1.652344 -2.238281 C 1.8125 -2.238281 1.949219 -2.195312 2.058594 -2.105469 C 2.164062 -2.015625 2.25 -1.863281 2.3125 -1.648438 C 2.515625 -1.472656 2.761719 -1.34375 3.046875 -1.253906 C 3.332031 -1.164062 3.664062 -1.121094 4.035156 -1.121094 C 4.648438 -1.121094 5.125 -1.214844 5.460938 -1.40625 C 5.621094 -1.5 5.703125 -1.601562 5.703125 -1.707031 C 5.703125 -1.878906 5.589844 -2.023438 5.359375 -2.136719 C 5.128906 -2.25 4.652344 -2.34375 3.933594 -2.421875 C 2.859375 -2.535156 2.144531 -2.75 1.785156 -3.074219 C 1.421875 -3.390625 1.242188 -3.78125 1.242188 -4.246094 C 1.242188 -4.722656 1.445312 -5.121094 1.847656 -5.4375 C 2.394531 -5.871094 3.113281 -6.085938 3.996094 -6.085938 C 4.304688 -6.085938 4.601562 -6.058594 4.886719 -6 C 5.171875 -5.941406 5.441406 -5.851562 5.703125 -5.730469 C 5.785156 -5.789062 5.863281 -5.835938 5.933594 -5.867188 C 6.003906 -5.894531 6.070312 -5.910156 6.132812 -5.910156 C 6.316406 -5.910156 6.46875 -5.84375 6.589844 -5.707031 C 6.710938 -5.570312 6.769531 -5.339844 6.769531 -5.019531 L 6.769531 -4.695312 C 6.769531 -4.402344 6.734375 -4.207031 6.667969 -4.101562 C 6.527344 -3.902344 6.339844 -3.800781 6.101562 -3.800781 C 5.941406 -3.800781 5.796875 -3.851562 5.675781 -3.953125 C 5.554688 -4.050781 5.476562 -4.183594 5.441406 -4.347656 Z "/>
</g>
<g id="glyph-0-5">
</g>
<g id="glyph-0-6">
<path d="M 5.632812 -2.148438 L 2.390625 -2.148438 L 2.0625 -1.335938 L 2.390625 -1.335938 C 2.710938 -1.335938 2.9375 -1.273438 3.074219 -1.148438 C 3.210938 -1.023438 3.28125 -0.863281 3.28125 -0.664062 C 3.28125 -0.46875 3.210938 -0.308594 3.074219 -0.183594 C 2.9375 -0.0625 2.710938 0 2.390625 0 L 0.59375 0 C 0.269531 0 0.0429688 -0.0625 -0.09375 -0.183594 C -0.230469 -0.308594 -0.300781 -0.472656 -0.300781 -0.671875 C -0.300781 -0.871094 -0.226562 -1.03125 -0.0859375 -1.160156 C 0.0585938 -1.285156 0.296875 -1.34375 0.625 -1.335938 L 2.722656 -6.554688 L 1.847656 -6.554688 C 1.527344 -6.554688 1.296875 -6.617188 1.164062 -6.742188 C 1.023438 -6.863281 0.957031 -7.027344 0.957031 -7.226562 C 0.957031 -7.425781 1.023438 -7.585938 1.164062 -7.710938 C 1.296875 -7.835938 1.527344 -7.898438 1.847656 -7.898438 L 4.734375 -7.890625 L 7.390625 -1.335938 C 7.703125 -1.335938 7.90625 -1.300781 8.007812 -1.230469 C 8.207031 -1.085938 8.308594 -0.898438 8.308594 -0.664062 C 8.308594 -0.46875 8.238281 -0.308594 8.105469 -0.183594 C 7.972656 -0.0625 7.742188 0 7.421875 0 L 5.625 0 C 5.304688 0 5.074219 -0.0625 4.9375 -0.183594 C 4.800781 -0.308594 4.734375 -0.472656 4.734375 -0.671875 C 4.734375 -0.867188 4.800781 -1.023438 4.9375 -1.148438 C 5.074219 -1.273438 5.304688 -1.335938 5.625 -1.335938 L 5.949219 -1.335938 L 5.632812 -2.148438 M 5.078125 -3.484375 L 4.003906 -6.125 L 2.921875 -3.484375 Z "/>
</g>
<g id="glyph-0-7">
<path d="M 5.46875 -5.515625 L 5.46875 -5.910156 L 7.03125 -5.910156 C 7.351562 -5.910156 7.582031 -5.847656 7.71875 -5.726562 C 7.855469 -5.601562 7.921875 -5.441406 7.921875 -5.242188 C 7.921875 -5.046875 7.855469 -4.886719 7.71875 -4.761719 C 7.582031 -4.640625 7.351562 -4.578125 7.03125 -4.578125 L 6.804688 -4.578125 L 6.804688 0.28125 C 6.804688 0.75 6.703125 1.15625 6.507812 1.507812 C 6.308594 1.855469 6.007812 2.15625 5.597656 2.410156 C 5.191406 2.660156 4.730469 2.785156 4.21875 2.785156 L 2.707031 2.785156 C 2.386719 2.785156 2.15625 2.722656 2.023438 2.601562 C 1.882812 2.476562 1.816406 2.316406 1.816406 2.121094 C 1.816406 1.921875 1.882812 1.761719 2.023438 1.636719 C 2.15625 1.511719 2.386719 1.453125 2.707031 1.453125 L 4.179688 1.453125 C 4.585938 1.453125 4.90625 1.339844 5.128906 1.121094 C 5.355469 0.898438 5.46875 0.617188 5.46875 0.28125 L 5.46875 -0.371094 C 5.171875 -0.179688 4.875 -0.0351562 4.566406 0.0585938 C 4.261719 0.152344 3.949219 0.203125 3.625 0.203125 C 2.71875 0.203125 1.960938 -0.101562 1.347656 -0.707031 C 0.734375 -1.3125 0.429688 -2.058594 0.429688 -2.949219 C 0.429688 -3.84375 0.734375 -4.59375 1.347656 -5.199219 C 1.960938 -5.804688 2.71875 -6.105469 3.625 -6.105469 C 3.964844 -6.105469 4.289062 -6.058594 4.59375 -5.960938 C 4.898438 -5.863281 5.191406 -5.714844 5.46875 -5.515625 M 5.460938 -2.957031 C 5.460938 -3.445312 5.28125 -3.871094 4.917969 -4.230469 C 4.554688 -4.59375 4.121094 -4.773438 3.613281 -4.773438 C 3.105469 -4.773438 2.671875 -4.59375 2.308594 -4.230469 C 1.945312 -3.871094 1.765625 -3.445312 1.765625 -2.957031 C 1.765625 -2.460938 1.945312 -2.035156 2.308594 -1.675781 C 2.671875 -1.316406 3.105469 -1.140625 3.613281 -1.140625 C 4.121094 -1.140625 4.554688 -1.316406 4.917969 -1.675781 C 5.28125 -2.035156 5.460938 -2.460938 5.460938 -2.957031 Z "/>
</g>
<g id="glyph-0-8">
<path d="M 2.648438 -5.910156 L 2.648438 -5.460938 C 2.894531 -5.671875 3.160156 -5.828125 3.453125 -5.929688 C 3.746094 -6.035156 4.066406 -6.085938 4.40625 -6.085938 C 5.199219 -6.085938 5.824219 -5.84375 6.28125 -5.351562 C 6.648438 -4.960938 6.828125 -4.449219 6.828125 -3.816406 L 6.828125 -1.335938 C 7.113281 -1.335938 7.320312 -1.273438 7.453125 -1.148438 C 7.589844 -1.023438 7.65625 -0.863281 7.65625 -0.664062 C 7.65625 -0.46875 7.585938 -0.308594 7.449219 -0.183594 C 7.3125 -0.0625 7.085938 0 6.765625 0 L 5.558594 0 C 5.238281 0 5.007812 -0.0625 4.875 -0.183594 C 4.734375 -0.308594 4.667969 -0.472656 4.667969 -0.671875 C 4.667969 -0.867188 4.734375 -1.023438 4.871094 -1.148438 C 5.003906 -1.273438 5.210938 -1.335938 5.496094 -1.335938 L 5.496094 -3.855469 C 5.496094 -4.144531 5.417969 -4.359375 5.261719 -4.492188 C 5.054688 -4.664062 4.75 -4.753906 4.34375 -4.753906 C 4.035156 -4.753906 3.765625 -4.691406 3.53125 -4.574219 C 3.300781 -4.453125 3.003906 -4.203125 2.648438 -3.816406 L 2.648438 -1.335938 C 2.992188 -1.335938 3.214844 -1.300781 3.3125 -1.238281 C 3.527344 -1.105469 3.632812 -0.914062 3.632812 -0.664062 C 3.632812 -0.46875 3.5625 -0.308594 3.425781 -0.183594 C 3.289062 -0.0625 3.0625 0 2.742188 0 L 1.222656 0 C 0.902344 0 0.671875 -0.0625 0.539062 -0.183594 C 0.398438 -0.308594 0.332031 -0.472656 0.332031 -0.671875 C 0.332031 -0.914062 0.4375 -1.101562 0.644531 -1.238281 C 0.75 -1.300781 0.972656 -1.335938 1.316406 -1.335938 L 1.316406 -4.578125 C 1.03125 -4.578125 0.824219 -4.640625 0.691406 -4.765625 C 0.554688 -4.890625 0.488281 -5.050781 0.488281 -5.246094 C 0.488281 -5.441406 0.554688 -5.601562 0.691406 -5.726562 C 0.828125 -5.847656 1.058594 -5.910156 1.378906 -5.910156 Z "/>
</g>
<g id="glyph-0-9">
<path d="M 3.671875 -4.578125 L 3.671875 -1.902344 C 3.671875 -1.613281 3.730469 -1.425781 3.847656 -1.335938 C 4.03125 -1.191406 4.355469 -1.121094 4.824219 -1.121094 C 5.503906 -1.121094 6.136719 -1.265625 6.710938 -1.554688 C 6.933594 -1.667969 7.105469 -1.726562 7.234375 -1.726562 C 7.40625 -1.726562 7.558594 -1.660156 7.683594 -1.53125 C 7.8125 -1.398438 7.878906 -1.242188 7.878906 -1.054688 C 7.878906 -0.882812 7.808594 -0.730469 7.667969 -0.605469 C 7.457031 -0.402344 7.035156 -0.214844 6.410156 -0.0429688 C 5.78125 0.128906 5.253906 0.214844 4.824219 0.214844 C 3.996094 0.214844 3.375 0.0351562 2.957031 -0.320312 C 2.542969 -0.679688 2.335938 -1.121094 2.335938 -1.640625 L 2.335938 -4.578125 L 1.855469 -4.578125 C 1.535156 -4.578125 1.304688 -4.640625 1.167969 -4.761719 C 1.03125 -4.886719 0.964844 -5.046875 0.964844 -5.246094 C 0.964844 -5.441406 1.03125 -5.601562 1.167969 -5.726562 C 1.304688 -5.847656 1.535156 -5.910156 1.855469 -5.910156 L 2.335938 -5.910156 L 2.335938 -7.117188 C 2.335938 -7.4375 2.398438 -7.664062 2.523438 -7.800781 C 2.644531 -7.9375 2.808594 -8.007812 3.007812 -8.007812 C 3.203125 -8.007812 3.363281 -7.9375 3.484375 -7.800781 C 3.609375 -7.664062 3.671875 -7.4375 3.671875 -7.117188 L 3.671875 -5.910156 L 6.140625 -5.910156 C 6.460938 -5.910156 6.6875 -5.847656 6.824219 -5.726562 C 6.960938 -5.601562 7.03125 -5.441406 7.03125 -5.242188 C 7.03125 -5.046875 6.960938 -4.886719 6.824219 -4.761719 C 6.6875 -4.640625 6.460938 -4.578125 6.140625 -4.578125 Z "/>
</g>
</g>
</defs>
<g fill="rgb(76.862745%, 47.058824%, 16.470588%)" fill-opacity="1">
<use xlink:href="#glyph-0-0" x="30" y="31.099609"/>
<use xlink:href="#glyph-0-1" x="38" y="31.099609"/>
<use xlink:href="#glyph-0-2" x="46" y="31.099609"/>
<use xlink:href="#glyph-0-3" x="54" y="31.099609"/>
<use xlink:href="#glyph-0-1" x="62" y="31.099609"/>
<use xlink:href="#glyph-0-4" x="70" y="31.099609"/>
<use xlink:href="#glyph-0-5" x="78" y="31.099609"/>
<use xlink:href="#glyph-0-6" x="86" y="31.099609"/>
<use xlink:href="#glyph-0-7" x="94" y="31.099609"/>
<use xlink:href="#glyph-0-1" x="102" y="31.099609"/>
<use xlink:href="#glyph-0-8" x="110" y="31.099609"/>
<use xlink:href="#glyph-0-9" x="118" y="31.099609"/>
</g>
</svg>
