<?xml version="1.0" encoding="UTF-8"?>
<svg xmlns="http://www.w3.org/2000/svg" xmlns:xlink="http://www.w3.org/1999/xlink" width="854" height="480" viewBox="0 0 854 480">
<defs>
<g>
<g id="glyph-0-0">
<path d="M 4.691406 -1.789062 L 1.992188 -1.789062 L 1.71875 -1.113281 L 1.992188 -1.113281 C 2.257812 -1.113281 2.449219 -1.0625 2.5625 -0.957031 C 2.675781 -0.855469 2.734375 -0.71875 2.734375 -0.554688 C 2.734375 -0.390625 2.675781 -0.257812 2.5625 -0.15625 C 2.449219 -0.0507812 2.257812 0 1.992188 0 L 0.492188 0 C 0.226562 0 0.0351562 -0.0507812 -0.078125 -0.15625 C -0.191406 -0.257812 -0.25 -0.390625 -0.25 -0.558594 C -0.25 -0.726562 -0.191406 -0.859375 -0.0703125 -0.964844 C 0.046875 -1.070312 0.246094 -1.121094 0.519531 -1.113281 L 2.269531 -5.464844 L 1.539062 -5.464844 C 1.273438 -5.464844 1.082031 -5.515625 0.96875 -5.617188 C 0.855469 -5.722656 0.796875 -5.855469 0.796875 -6.023438 C 0.796875 -6.1875 0.855469 -6.324219 0.96875 -6.425781 C 1.082031 -6.527344 1.273438 -6.582031 1.539062 -6.582031 L 3.945312 -6.574219 L 6.15625 -1.113281 C 6.417969 -1.113281 6.589844 -1.082031 6.671875 -1.023438 C 6.839844 -0.90625 6.921875 -0.75 6.921875 -0.554688 C 6.921875 -0.390625 6.867188 -0.257812 6.753906 -0.15625 C 6.640625 -0.0507812 6.453125 0 6.183594 0 L 4.6875 0 C 4.417969 0 4.230469 -0.0507812 4.113281 -0.15625 C 4 -0.257812 3.945312 -0.390625 3.945312 -0.558594 C 3.945312 -0.722656 4 -0.855469 4.113281 -0.957031 C 4.230469 -1.0625 4.417969 -1.113281 4.6875 -1.113281 L 4.957031 -1.113281 L 4.691406 -1.789062 M 4.230469 -2.902344 L 3.335938 -5.105469 L 2.4375 -2.902344 Z "/>
</g>
<g id="glyph-0-1">
<path d="M 5.066406 -4.726562 C 5.199219 -4.851562 5.339844 -4.914062 5.480469 -4.914062 C 5.636719 -4.914062 5.769531 -4.859375 5.871094 -4.746094 C 5.976562 -4.628906 6.027344 -4.441406 6.027344 -4.175781 L 6.027344 -3.460938 C 6.027344 -3.195312 5.976562 -3.003906 5.871094 -2.890625 C 5.769531 -2.78125 5.636719 -2.722656 5.46875 -2.722656 C 5.316406 -2.722656 5.1875 -2.765625 5.082031 -2.855469 C 5.007812 -2.917969 4.949219 -3.050781 4.90625 -3.253906 C 4.859375 -3.453125 4.757812 -3.601562 4.589844 -3.699219 C 4.296875 -3.875 3.921875 -3.960938 3.464844 -3.960938 C 2.941406 -3.960938 2.523438 -3.804688 2.207031 -3.5 C 1.890625 -3.191406 1.730469 -2.804688 1.730469 -2.332031 C 1.730469 -1.898438 1.882812 -1.554688 2.1875 -1.304688 C 2.488281 -1.054688 2.996094 -0.925781 3.699219 -0.925781 C 4.164062 -0.925781 4.539062 -0.976562 4.832031 -1.070312 C 5.007812 -1.125 5.171875 -1.226562 5.328125 -1.363281 C 5.484375 -1.503906 5.625 -1.574219 5.75 -1.574219 C 5.902344 -1.574219 6.035156 -1.515625 6.144531 -1.40625 C 6.253906 -1.292969 6.308594 -1.160156 6.308594 -1.007812 C 6.308594 -0.761719 6.140625 -0.53125 5.804688 -0.308594 C 5.304688 0.0195312 4.574219 0.183594 3.613281 0.183594 C 2.75 0.183594 2.074219 0.00390625 1.59375 -0.351562 C 0.945312 -0.832031 0.617188 -1.492188 0.617188 -2.328125 C 0.617188 -3.121094 0.882812 -3.773438 1.410156 -4.292969 C 1.9375 -4.8125 2.628906 -5.074219 3.476562 -5.074219 C 3.785156 -5.074219 4.070312 -5.042969 4.335938 -4.984375 C 4.597656 -4.929688 4.84375 -4.839844 5.066406 -4.726562 Z "/>
</g>
<g id="glyph-0-2">
<path d="M 6.125 -1.898438 L 1.5625 -1.898438 C 1.679688 -1.609375 1.882812 -1.375 2.179688 -1.199219 C 2.472656 -1.023438 2.871094 -0.933594 3.375 -0.933594 C 3.785156 -0.933594 4.335938 -1.023438 5.019531 -1.199219 C 5.300781 -1.269531 5.496094 -1.308594 5.605469 -1.308594 C 5.753906 -1.308594 5.878906 -1.253906 5.976562 -1.148438 C 6.078125 -1.046875 6.128906 -0.914062 6.128906 -0.753906 C 6.128906 -0.609375 6.074219 -0.488281 5.96875 -0.386719 C 5.824219 -0.25 5.46875 -0.125 4.910156 -0.00390625 C 4.347656 0.117188 3.808594 0.179688 3.292969 0.179688 C 2.402344 0.179688 1.691406 -0.0742188 1.160156 -0.574219 C 0.625 -1.078125 0.359375 -1.695312 0.359375 -2.429688 C 0.359375 -3.210938 0.648438 -3.847656 1.222656 -4.335938 C 1.800781 -4.828125 2.464844 -5.074219 3.21875 -5.074219 C 3.667969 -5.074219 4.085938 -4.992188 4.460938 -4.832031 C 4.839844 -4.675781 5.121094 -4.503906 5.304688 -4.320312 C 5.566406 -4.050781 5.78125 -3.71875 5.953125 -3.324219 C 6.066406 -3.050781 6.125 -2.734375 6.125 -2.371094 L 6.125 -1.898438 M 4.894531 -3.011719 C 4.722656 -3.328125 4.5 -3.566406 4.226562 -3.722656 C 3.953125 -3.882812 3.625 -3.960938 3.246094 -3.960938 C 2.867188 -3.960938 2.542969 -3.882812 2.269531 -3.722656 C 1.992188 -3.566406 1.769531 -3.328125 1.59375 -3.011719 Z "/>
</g>
<g id="glyph-0-3">
<path d="M 4.535156 -3.625 C 4.355469 -3.734375 4.164062 -3.820312 3.964844 -3.875 C 3.765625 -3.933594 3.558594 -3.960938 3.34375 -3.960938 C 2.910156 -3.960938 2.570312 -3.890625 2.316406 -3.75 C 2.203125 -3.6875 2.148438 -3.621094 2.148438 -3.546875 C 2.148438 -3.464844 2.222656 -3.382812 2.375 -3.304688 C 2.492188 -3.246094 2.75 -3.191406 3.152344 -3.136719 C 3.890625 -3.035156 4.402344 -2.933594 4.691406 -2.832031 C 5.074219 -2.699219 5.367188 -2.5 5.570312 -2.234375 C 5.777344 -1.972656 5.878906 -1.691406 5.878906 -1.398438 C 5.878906 -1 5.707031 -0.667969 5.355469 -0.402344 C 4.851562 -0.015625 4.199219 0.179688 3.394531 0.179688 C 3.074219 0.179688 2.777344 0.152344 2.503906 0.09375 C 2.230469 0.0390625 1.980469 -0.0429688 1.753906 -0.152344 C 1.699219 -0.105469 1.640625 -0.0703125 1.578125 -0.0429688 C 1.515625 -0.0195312 1.453125 -0.00390625 1.390625 -0.00390625 C 1.214844 -0.00390625 1.078125 -0.0625 0.972656 -0.175781 C 0.871094 -0.289062 0.820312 -0.480469 0.820312 -0.75 L 0.820312 -1.121094 C 0.820312 -1.390625 0.871094 -1.582031 0.972656 -1.695312 C 1.078125 -1.808594 1.210938 -1.867188 1.378906 -1.867188 C 1.511719 -1.867188 1.625 -1.828125 1.714844 -1.753906 C 1.804688 -1.679688 1.875 -1.554688 1.925781 -1.371094 C 2.097656 -1.226562 2.300781 -1.117188 2.539062 -1.042969 C 2.777344 -0.96875 3.050781 -0.933594 3.363281 -0.933594 C 3.875 -0.933594 4.269531 -1.011719 4.550781 -1.171875 C 4.683594 -1.25 4.753906 -1.335938 4.753906 -1.421875 C 4.753906 -1.566406 4.65625 -1.683594 4.464844 -1.78125 C 4.273438 -1.875 3.878906 -1.953125 3.277344 -2.019531 C 2.382812 -2.113281 1.785156 -2.292969 1.488281 -2.5625 C 1.1875 -2.824219 1.035156 -3.148438 1.035156 -3.539062 C 1.035156 -3.933594 1.203125 -4.265625 1.539062 -4.53125 C 1.996094 -4.890625 2.59375 -5.074219 3.332031 -5.074219 C 3.585938 -5.074219 3.835938 -5.046875 4.070312 -5 C 4.308594 -4.949219 4.535156 -4.875 4.753906 -4.773438 C 4.820312 -4.824219 4.886719 -4.863281 4.945312 -4.886719 C 5.003906 -4.914062 5.058594 -4.925781 5.109375 -4.925781 C 5.261719 -4.925781 5.390625 -4.867188 5.492188 -4.753906 C 5.589844 -4.640625 5.640625 -4.449219 5.640625 -4.183594 L 5.640625 -3.910156 C 5.640625 -3.667969 5.613281 -3.503906 5.554688 -3.417969 C 5.441406 -3.25 5.28125 -3.167969 5.082031 -3.167969 C 4.949219 -3.167969 4.832031 -3.210938 4.730469 -3.292969 C 4.628906 -3.375 4.5625 -3.488281 4.535156 -3.625 Z "/>
</g>
<g id="glyph-0-4">
</g>
<g id="glyph-0-5">
<path d="M 3.058594 -3.8125 L 3.058594 -1.585938 C 3.058594 -1.34375 3.109375 -1.1875 3.207031 -1.113281 C 3.359375 -0.992188 3.628906 -0.933594 4.019531 -0.933594 C 4.585938 -0.933594 5.113281 -1.054688 5.59375 -1.296875 C 5.777344 -1.390625 5.921875 -1.4375 6.027344 -1.4375 C 6.171875 -1.4375 6.296875 -1.382812 6.40625 -1.273438 C 6.511719 -1.167969 6.5625 -1.035156 6.5625 -0.878906 C 6.5625 -0.734375 6.507812 -0.609375 6.390625 -0.503906 C 6.214844 -0.335938 5.863281 -0.179688 5.339844 -0.0351562 C 4.820312 0.109375 4.378906 0.179688 4.019531 0.179688 C 3.328125 0.179688 2.8125 0.03125 2.464844 -0.269531 C 2.121094 -0.566406 1.949219 -0.933594 1.949219 -1.367188 L 1.949219 -3.8125 L 1.546875 -3.8125 C 1.277344 -3.8125 1.085938 -3.867188 0.972656 -3.96875 C 0.859375 -4.070312 0.804688 -4.207031 0.804688 -4.371094 C 0.804688 -4.535156 0.859375 -4.667969 0.972656 -4.769531 C 1.085938 -4.875 1.277344 -4.925781 1.546875 -4.925781 L 1.949219 -4.925781 L 1.949219 -5.929688 C 1.949219 -6.199219 2 -6.386719 2.101562 -6.503906 C 2.207031 -6.617188 2.339844 -6.671875 2.507812 -6.671875 C 2.667969 -6.671875 2.800781 -6.617188 2.90625 -6.503906 C 3.007812 -6.386719 3.058594 -6.199219 3.058594 -5.929688 L 3.058594 -4.925781 L 5.117188 -4.925781 C 5.382812 -4.925781 5.574219 -4.875 5.6875 -4.769531 C 5.800781 -4.667969 5.859375 -4.535156 5.859375 -4.367188 C 5.859375 -4.203125 5.800781 -4.070312 5.6875 -3.96875 C 5.574219 -3.867188 5.382812 -3.8125 5.117188 -3.8125 Z "/>
</g>
<g id="glyph-0-6">
<path d="M 2.1875 -7.035156 L 2.1875 -4.664062 C 2.417969 -4.804688 2.652344 -4.90625 2.890625 -4.972656 C 3.125 -5.039062 3.367188 -5.074219 3.609375 -5.074219 C 3.992188 -5.074219 4.332031 -5.007812 4.632812 -4.878906 C 4.933594 -4.746094 5.183594 -4.542969 5.378906 -4.261719 C 5.574219 -3.980469 5.675781 -3.628906 5.675781 -3.199219 L 5.675781 -1.113281 C 5.957031 -1.113281 6.140625 -1.085938 6.226562 -1.03125 C 6.402344 -0.917969 6.488281 -0.757812 6.488281 -0.554688 C 6.488281 -0.390625 6.433594 -0.257812 6.320312 -0.15625 C 6.207031 -0.0507812 6.019531 0 5.75 0 L 4.480469 0 C 4.21875 0 4.027344 -0.0507812 3.914062 -0.15625 C 3.800781 -0.257812 3.742188 -0.390625 3.742188 -0.558594 C 3.742188 -0.761719 3.832031 -0.917969 4.003906 -1.03125 C 4.09375 -1.089844 4.277344 -1.117188 4.558594 -1.113281 L 4.558594 -3.125 C 4.558594 -3.410156 4.492188 -3.613281 4.363281 -3.726562 C 4.191406 -3.882812 3.941406 -3.960938 3.609375 -3.960938 C 3.363281 -3.960938 3.144531 -3.914062 2.953125 -3.816406 C 2.765625 -3.722656 2.507812 -3.515625 2.1875 -3.195312 L 2.1875 -1.113281 C 2.472656 -1.113281 2.65625 -1.085938 2.738281 -1.03125 C 2.917969 -0.917969 3.003906 -0.757812 3.003906 -0.554688 C 3.003906 -0.390625 2.949219 -0.257812 2.835938 -0.15625 C 2.722656 -0.0507812 2.53125 0 2.261719 0 L 1 0 C 0.730469 0 0.539062 -0.0507812 0.425781 -0.15625 C 0.3125 -0.257812 0.253906 -0.390625 0.253906 -0.558594 C 0.253906 -0.761719 0.34375 -0.917969 0.519531 -1.03125 C 0.609375 -1.089844 0.792969 -1.117188 1.074219 -1.113281 L 1.074219 -5.925781 L 0.882812 -5.925781 C 0.617188 -5.925781 0.425781 -5.976562 0.3125 -6.078125 C 0.199219 -6.183594 0.140625 -6.316406 0.140625 -6.484375 C 0.140625 -6.644531 0.199219 -6.777344 0.3125 -6.882812 C 0.425781 -6.984375 0.617188 -7.035156 0.882812 -7.035156 Z "/>
</g>
<g id="glyph-0-7">
<path d="M 1.0625 -1.113281 L 1.0625 -5.464844 L 0.890625 -5.464844 C 0.621094 -5.464844 0.429688 -5.515625 0.316406 -5.617188 C 0.203125 -5.722656 0.144531 -5.855469 0.144531 -6.023438 C 0.144531 -6.1875 0.203125 -6.324219 0.316406 -6.425781 C 0.429688 -6.527344 0.621094 -6.582031 0.890625 -6.582031 L 3.679688 -6.582031 C 4.34375 -6.582031 4.878906 -6.394531 5.285156 -6.023438 C 5.6875 -5.652344 5.890625 -5.214844 5.890625 -4.703125 C 5.890625 -4.460938 5.84375 -4.234375 5.75 -4.019531 C 5.65625 -3.804688 5.515625 -3.609375 5.320312 -3.429688 C 5.671875 -3.21875 5.9375 -2.972656 6.113281 -2.695312 C 6.285156 -2.414062 6.375 -2.097656 6.375 -1.742188 C 6.375 -1.460938 6.3125 -1.195312 6.183594 -0.953125 C 6.089844 -0.769531 5.976562 -0.625 5.835938 -0.515625 C 5.652344 -0.363281 5.425781 -0.238281 5.160156 -0.144531 C 4.890625 -0.046875 4.558594 0 4.15625 0 L 0.890625 0 C 0.621094 0 0.429688 -0.0507812 0.316406 -0.15625 C 0.203125 -0.257812 0.144531 -0.390625 0.144531 -0.558594 C 0.144531 -0.722656 0.203125 -0.855469 0.320312 -0.957031 C 0.4375 -1.0625 0.625 -1.113281 0.890625 -1.113281 L 1.0625 -1.113281 M 2.175781 -3.847656 L 3.394531 -3.847656 C 3.832031 -3.847656 4.195312 -3.957031 4.488281 -4.175781 C 4.683594 -4.324219 4.78125 -4.511719 4.78125 -4.730469 C 4.78125 -4.925781 4.6875 -5.097656 4.503906 -5.242188 C 4.320312 -5.390625 4.027344 -5.464844 3.625 -5.464844 L 2.175781 -5.464844 L 2.175781 -3.847656 M 2.175781 -1.113281 L 4.097656 -1.113281 C 4.546875 -1.113281 4.867188 -1.179688 5.050781 -1.3125 C 5.191406 -1.414062 5.261719 -1.558594 5.261719 -1.746094 C 5.261719 -1.972656 5.125 -2.191406 4.84375 -2.410156 C 4.566406 -2.625 4.167969 -2.734375 3.644531 -2.734375 L 2.175781 -2.734375 Z "/>
</g>
<g id="glyph-0-8">
<path d="M 6.222656 -2.371094 C 6.222656 -1.945312 6.105469 -1.53125 5.867188 -1.132812 C 5.628906 -0.730469 5.277344 -0.414062 4.808594 -0.175781 C 4.339844 0.0625 3.851562 0.179688 3.34375 0.179688 C 2.835938 0.179688 2.351562 0.0625 1.886719 -0.171875 C 1.425781 -0.402344 1.074219 -0.722656 0.828125 -1.121094 C 0.585938 -1.523438 0.464844 -1.945312 0.464844 -2.382812 C 0.464844 -2.828125 0.589844 -3.261719 0.835938 -3.691406 C 1.082031 -4.121094 1.433594 -4.457031 1.894531 -4.703125 C 2.355469 -4.949219 2.839844 -5.074219 3.34375 -5.074219 C 3.847656 -5.074219 4.335938 -4.945312 4.804688 -4.695312 C 5.273438 -4.445312 5.625 -4.105469 5.863281 -3.679688 C 6.101562 -3.257812 6.222656 -2.820312 6.222656 -2.371094 M 5.109375 -2.367188 C 5.109375 -2.722656 4.980469 -3.050781 4.726562 -3.351562 C 4.375 -3.757812 3.914062 -3.960938 3.34375 -3.960938 C 2.839844 -3.960938 2.417969 -3.800781 2.082031 -3.476562 C 1.746094 -3.15625 1.578125 -2.78125 1.578125 -2.359375 C 1.578125 -2.011719 1.75 -1.6875 2.089844 -1.386719 C 2.429688 -1.085938 2.847656 -0.933594 3.34375 -0.933594 C 3.839844 -0.933594 4.261719 -1.085938 4.601562 -1.386719 C 4.941406 -1.6875 5.109375 -2.015625 5.109375 -2.367188 Z "/>
</g>
<g id="glyph-0-9">
<path d="M 2.417969 -1.851562 L 2.417969 0 L 1.117188 0 C 0.851562 0 0.660156 -0.0507812 0.546875 -0.15625 C 0.429688 -0.257812 0.375 -0.390625 0.375 -0.558594 C 0.375 -0.722656 0.433594 -0.855469 0.546875 -0.957031 C 0.664062 -1.0625 0.855469 -1.113281 1.117188 -1.113281 L 1.308594 -1.113281 L 1.308594 -5.925781 L 1.117188 -5.925781 C 0.851562 -5.925781 0.660156 -5.976562 0.546875 -6.078125 C 0.429688 -6.183594 0.375 -6.316406 0.375 -6.484375 C 0.375 -6.644531 0.429688 -6.777344 0.546875 -6.882812 C 0.660156 -6.984375 0.851562 -7.035156 1.117188 -7.035156 L 2.417969 -7.035156 L 2.417969 -3.289062 L 3.289062 -3.988281 C 3.195312 -4.144531 3.152344 -4.269531 3.152344 -4.367188 C 3.152344 -4.535156 3.207031 -4.667969 3.320312 -4.769531 C 3.433594 -4.875 3.621094 -4.925781 3.890625 -4.925781 L 5.160156 -4.925781 C 5.425781 -4.925781 5.617188 -4.875 5.730469 -4.769531 C 5.84375 -4.667969 5.902344 -4.535156 5.902344 -4.367188 C 5.902344 -4.203125 5.84375 -4.070312 5.730469 -3.96875 C 5.617188 -3.867188 5.425781 -3.8125 5.160156 -3.8125 L 4.851562 -3.8125 L 3.5 -2.71875 L 5.316406 -1.113281 L 5.640625 -1.113281 C 5.910156 -1.113281 6.101562 -1.0625 6.214844 -0.957031 C 6.328125 -0.855469 6.386719 -0.71875 6.386719 -0.554688 C 6.386719 -0.390625 6.328125 -0.257812 6.214844 -0.15625 C 6.101562 -0.0507812 5.910156 0 5.640625 0 L 4.363281 0 C 4.09375 0 3.902344 -0.0507812 3.789062 -0.15625 C 3.675781 -0.257812 3.617188 -0.390625 3.617188 -0.558594 C 3.617188 -0.699219 3.679688 -0.839844 3.804688 -0.976562 L 2.625 -2.019531 Z "/>
</g>
</g>
</defs>
<g fill="rgb(76.862745%, 47.058824%, 16.470588%)" fill-opacity="1">
<use xlink:href="#glyph-0-0" x="30" y="29.25"/>
<use xlink:href="#glyph-0-1" x="37" y="29.25"/>
<use xlink:href="#glyph-0-1" x="44" y="29.25"/>
<use xlink:href="#glyph-0-2" x="51" y="29.25"/>
<use xlink:href="#glyph-0-3" x="58" y="29.25"/>
<use xlink:href="#glyph-0-3" x="65" y="29.25"/>
<use xlink:href="#glyph-0-4" x="72" y="29.25"/>
<use xlink:href="#glyph-0-5" x="79" y="29.25"/>
<use xlink:href="#glyph-0-6" x="86" y="29.25"/>
<use xlink:href="#glyph-0-2" x="93" y="29.25"/>
<use xlink:href="#glyph-0-4" x="100" y="29.25"/>
<use xlink:href="#glyph-0-7" x="107" y="29.25"/>
<use xlink:href="#glyph-0-8" x="114" y="29.25"/>
<use xlink:href="#glyph-0-8" x="121" y="29.25"/>
<use xlink:href="#glyph-0-9" x="128" y="29.25"/>
</g>
</svg>
