<?xml version="1.0" encoding="UTF-8"?>
<svg xmlns="http://www.w3.org/2000/svg" xmlns:xlink="http://www.w3.org/1999/xlink" width="854" height="480" viewBox="0 0 854 480">
<defs>
<g>
<g id="glyph-0-0">
<path d="M 0.800781 -1.554688 L 0.800781 -0.101562 L 1.152344 -0.101562 C 1.175781 -0.101562 1.195312 -0.0976562 1.203125 -0.0898438 C 1.214844 -0.078125 1.21875 -0.0664062 1.21875 -0.0507812 C 1.21875 -0.0351562 1.214844 -0.0234375 1.203125 -0.015625 C 1.195312 -0.00390625 1.175781 0 1.152344 0 L 0.347656 0 C 0.320312 0 0.304688 -0.00390625 0.292969 -0.015625 C 0.285156 -0.0234375 0.277344 -0.0351562 0.277344 -0.0507812 C 0.277344 -0.0664062 0.285156 -0.078125 0.292969 -0.0898438 C 0.304688 -0.0976562 0.320312 -0.101562 0.347656 -0.101562 L 0.699219 -0.101562 L 0.699219 -1.410156 L 0.363281 -1.304688 C 0.347656 -1.300781 0.335938 -1.296875 0.328125 -1.296875 C 0.316406 -1.296875 0.304688 -1.304688 0.292969 -1.3125 C 0.285156 -1.324219 0.28125 -1.335938 0.28125 -1.351562 C 0.28125 -1.363281 0.285156 -1.375 0.292969 -1.382812 C 0.296875 -1.390625 0.3125 -1.398438 0.332031 -1.40625 Z "/>
</g>
<g id="glyph-0-1">
<path d="M 0.960938 -0.792969 C 1.046875 -0.753906 1.109375 -0.699219 1.152344 -0.628906 C 1.199219 -0.5625 1.21875 -0.488281 1.21875 -0.410156 C 1.21875 -0.289062 1.175781 -0.183594 1.082031 -0.0976562 C 0.992188 -0.0078125 0.882812 0.0351562 0.75 0.0351562 C 0.621094 0.0351562 0.511719 -0.0078125 0.417969 -0.0976562 C 0.328125 -0.183594 0.28125 -0.289062 0.28125 -0.410156 C 0.28125 -0.488281 0.304688 -0.5625 0.347656 -0.628906 C 0.390625 -0.695312 0.457031 -0.753906 0.542969 -0.792969 C 0.46875 -0.835938 0.414062 -0.882812 0.378906 -0.929688 C 0.332031 -0.996094 0.308594 -1.066406 0.308594 -1.148438 C 0.308594 -1.257812 0.351562 -1.359375 0.4375 -1.441406 C 0.523438 -1.527344 0.628906 -1.570312 0.75 -1.570312 C 0.875 -1.570312 0.976562 -1.527344 1.0625 -1.441406 C 1.152344 -1.359375 1.195312 -1.257812 1.195312 -1.148438 C 1.195312 -1.066406 1.171875 -0.996094 1.125 -0.929688 C 1.089844 -0.882812 1.035156 -0.835938 0.960938 -0.792969 M 1.089844 -1.144531 C 1.089844 -1.230469 1.054688 -1.308594 0.992188 -1.371094 C 0.925781 -1.433594 0.84375 -1.464844 0.75 -1.464844 C 0.65625 -1.464844 0.574219 -1.433594 0.507812 -1.371094 C 0.445312 -1.304688 0.410156 -1.230469 0.410156 -1.144531 C 0.410156 -1.066406 0.445312 -0.996094 0.507812 -0.9375 C 0.574219 -0.875 0.652344 -0.847656 0.75 -0.847656 C 0.847656 -0.847656 0.925781 -0.875 0.992188 -0.9375 C 1.054688 -0.996094 1.089844 -1.066406 1.089844 -1.144531 M 1.117188 -0.410156 C 1.117188 -0.5 1.082031 -0.578125 1.011719 -0.644531 C 0.941406 -0.710938 0.855469 -0.746094 0.75 -0.746094 C 0.648438 -0.746094 0.558594 -0.710938 0.488281 -0.644531 C 0.417969 -0.578125 0.382812 -0.5 0.382812 -0.410156 C 0.382812 -0.316406 0.417969 -0.238281 0.488281 -0.167969 C 0.558594 -0.101562 0.648438 -0.0664062 0.75 -0.0664062 C 0.855469 -0.0664062 0.941406 -0.101562 1.011719 -0.167969 C 1.082031 -0.238281 1.117188 -0.316406 1.117188 -0.410156 Z "/>
</g>
<g id="glyph-0-2">
<path d="M 0.363281 -1.058594 L 0.363281 -0.871094 C 0.425781 -0.945312 0.492188 -1 0.558594 -1.039062 C 0.628906 -1.074219 0.710938 -1.09375 0.808594 -1.09375 C 0.910156 -1.09375 1.003906 -1.070312 1.085938 -1.023438 C 1.171875 -0.976562 1.238281 -0.910156 1.285156 -0.824219 C 1.332031 -0.742188 1.355469 -0.652344 1.355469 -0.558594 C 1.355469 -0.414062 1.304688 -0.285156 1.199219 -0.183594 C 1.09375 -0.078125 0.964844 -0.0273438 0.808594 -0.0273438 C 0.625 -0.0273438 0.476562 -0.101562 0.363281 -0.25 L 0.363281 0.367188 L 0.613281 0.367188 C 0.636719 0.367188 0.65625 0.375 0.664062 0.382812 C 0.675781 0.390625 0.679688 0.40625 0.679688 0.421875 C 0.679688 0.433594 0.675781 0.445312 0.664062 0.457031 C 0.65625 0.464844 0.636719 0.472656 0.613281 0.472656 L 0.125 0.472656 C 0.0976562 0.472656 0.0820312 0.464844 0.0703125 0.457031 C 0.0585938 0.449219 0.0546875 0.433594 0.0546875 0.421875 C 0.0546875 0.40625 0.0585938 0.390625 0.0703125 0.382812 C 0.0820312 0.375 0.0976562 0.367188 0.125 0.367188 L 0.261719 0.367188 L 0.261719 -0.953125 L 0.125 -0.953125 C 0.0976562 -0.953125 0.0820312 -0.957031 0.0703125 -0.96875 C 0.0585938 -0.976562 0.0546875 -0.992188 0.0546875 -1.007812 C 0.0546875 -1.019531 0.0585938 -1.03125 0.0703125 -1.042969 C 0.0820312 -1.050781 0.0976562 -1.058594 0.125 -1.058594 L 0.363281 -1.058594 M 1.253906 -0.558594 C 1.253906 -0.679688 1.210938 -0.78125 1.125 -0.863281 C 1.039062 -0.949219 0.933594 -0.988281 0.808594 -0.988281 C 0.683594 -0.988281 0.578125 -0.949219 0.492188 -0.863281 C 0.40625 -0.777344 0.363281 -0.675781 0.363281 -0.558594 C 0.363281 -0.441406 0.40625 -0.339844 0.492188 -0.257812 C 0.578125 -0.171875 0.683594 -0.128906 0.808594 -0.128906 C 0.933594 -0.128906 1.035156 -0.171875 1.125 -0.253906 C 1.210938 -0.339844 1.253906 -0.441406 1.253906 -0.558594 Z "/>
</g>
<g id="glyph-0-3">
<path d="M 0.820312 -0.554688 L 1.289062 -0.101562 C 1.320312 -0.101562 1.339844 -0.101562 1.347656 -0.0976562 C 1.355469 -0.09375 1.363281 -0.0898438 1.371094 -0.0820312 C 1.375 -0.0703125 1.378906 -0.0625 1.378906 -0.0507812 C 1.378906 -0.0351562 1.375 -0.0234375 1.363281 -0.015625 C 1.351562 -0.00390625 1.335938 0 1.308594 0 L 0.980469 0 C 0.953125 0 0.9375 -0.00390625 0.925781 -0.015625 C 0.914062 -0.0234375 0.910156 -0.0351562 0.910156 -0.0507812 C 0.910156 -0.0664062 0.914062 -0.078125 0.925781 -0.0898438 C 0.9375 -0.0976562 0.953125 -0.101562 0.980469 -0.101562 L 1.148438 -0.101562 L 0.75 -0.484375 L 0.355469 -0.101562 L 0.523438 -0.101562 C 0.550781 -0.101562 0.566406 -0.0976562 0.578125 -0.0898438 C 0.589844 -0.078125 0.59375 -0.0664062 0.59375 -0.0507812 C 0.59375 -0.0351562 0.589844 -0.0234375 0.578125 -0.015625 C 0.566406 -0.00390625 0.550781 0 0.523438 0 L 0.191406 0 C 0.167969 0 0.148438 -0.00390625 0.140625 -0.015625 C 0.128906 -0.0234375 0.125 -0.0351562 0.125 -0.0507812 C 0.125 -0.0625 0.125 -0.0703125 0.132812 -0.0820312 C 0.136719 -0.0898438 0.144531 -0.09375 0.152344 -0.0976562 C 0.160156 -0.101562 0.179688 -0.101562 0.210938 -0.101562 L 0.679688 -0.554688 L 0.265625 -0.953125 C 0.234375 -0.953125 0.214844 -0.953125 0.207031 -0.957031 C 0.199219 -0.960938 0.195312 -0.96875 0.1875 -0.976562 C 0.179688 -0.984375 0.179688 -0.996094 0.179688 -1.007812 C 0.179688 -1.019531 0.183594 -1.03125 0.195312 -1.042969 C 0.203125 -1.050781 0.222656 -1.058594 0.246094 -1.058594 L 0.527344 -1.058594 C 0.550781 -1.058594 0.570312 -1.050781 0.582031 -1.042969 C 0.589844 -1.03125 0.59375 -1.019531 0.59375 -1.003906 C 0.59375 -0.988281 0.589844 -0.976562 0.582031 -0.96875 C 0.570312 -0.957031 0.550781 -0.953125 0.527344 -0.953125 L 0.40625 -0.953125 L 0.75 -0.621094 L 1.097656 -0.953125 L 0.976562 -0.953125 C 0.953125 -0.953125 0.933594 -0.957031 0.921875 -0.96875 C 0.914062 -0.976562 0.90625 -0.992188 0.90625 -1.007812 C 0.90625 -1.019531 0.914062 -1.03125 0.921875 -1.042969 C 0.933594 -1.050781 0.953125 -1.058594 0.976562 -1.058594 L 1.257812 -1.058594 C 1.28125 -1.058594 1.296875 -1.050781 1.308594 -1.042969 C 1.320312 -1.03125 1.324219 -1.019531 1.324219 -1.003906 C 1.324219 -0.996094 1.320312 -0.984375 1.316406 -0.976562 C 1.308594 -0.96875 1.300781 -0.960938 1.292969 -0.957031 C 1.285156 -0.953125 1.269531 -0.953125 1.238281 -0.953125 Z "/>
</g>
</g>
</defs>
<g fill="rgb(53.333333%, 53.333333%, 53.333333%)" fill-opacity="1">
<use xlink:href="#glyph-0-0" x="30" y="22.081055"/>
<use xlink:href="#glyph-0-1" x="32" y="22.081055"/>
<use xlink:href="#glyph-0-2" x="34" y="22.081055"/>
<use xlink:href="#glyph-0-3" x="36" y="22.081055"/>
</g>
</svg>
