<?xml version="1.0" encoding="UTF-8"?>
<svg xmlns="http://www.w3.org/2000/svg" xmlns:xlink="http://www.w3.org/1999/xlink" width="854" height="480" viewBox="0 0 854 480">
<defs>
<g>
<g id="glyph-0-0">
<path d="M 0.734375 -2.722656 L 0.734375 -1.601562 C 0.847656 -1.726562 0.960938 -1.816406 1.066406 -1.867188 C 1.171875 -1.917969 1.292969 -1.945312 1.421875 -1.945312 C 1.566406 -1.945312 1.6875 -1.917969 1.785156 -1.871094 C 1.882812 -1.820312 1.964844 -1.742188 2.035156 -1.640625 C 2.101562 -1.535156 2.132812 -1.425781 2.132812 -1.3125 L 2.132812 -0.183594 L 2.335938 -0.183594 C 2.382812 -0.183594 2.414062 -0.175781 2.429688 -0.15625 C 2.449219 -0.140625 2.457031 -0.117188 2.457031 -0.0898438 C 2.457031 -0.0664062 2.449219 -0.0429688 2.429688 -0.0273438 C 2.414062 -0.0078125 2.382812 0 2.335938 0 L 1.746094 0 C 1.699219 0 1.667969 -0.0078125 1.648438 -0.0273438 C 1.628906 -0.0429688 1.621094 -0.0664062 1.621094 -0.0898438 C 1.621094 -0.117188 1.628906 -0.140625 1.648438 -0.15625 C 1.667969 -0.175781 1.699219 -0.183594 1.746094 -0.183594 L 1.949219 -0.183594 L 1.949219 -1.300781 C 1.949219 -1.429688 1.902344 -1.542969 1.804688 -1.628906 C 1.710938 -1.71875 1.578125 -1.761719 1.410156 -1.761719 C 1.277344 -1.761719 1.164062 -1.730469 1.070312 -1.664062 C 1 -1.617188 0.890625 -1.507812 0.734375 -1.335938 L 0.734375 -0.183594 L 0.941406 -0.183594 C 0.984375 -0.183594 1.015625 -0.175781 1.03125 -0.15625 C 1.050781 -0.140625 1.0625 -0.117188 1.0625 -0.0898438 C 1.0625 -0.0664062 1.050781 -0.0429688 1.03125 -0.0273438 C 1.015625 -0.0078125 0.984375 0 0.941406 0 L 0.34375 0 C 0.300781 0 0.269531 -0.0078125 0.25 -0.0273438 C 0.234375 -0.0429688 0.222656 -0.0664062 0.222656 -0.0898438 C 0.222656 -0.117188 0.234375 -0.140625 0.25 -0.15625 C 0.269531 -0.175781 0.300781 -0.183594 0.34375 -0.183594 L 0.550781 -0.183594 L 0.550781 -2.539062 L 0.304688 -2.539062 C 0.261719 -2.539062 0.230469 -2.546875 0.210938 -2.566406 C 0.195312 -2.582031 0.183594 -2.605469 0.183594 -2.632812 C 0.183594 -2.65625 0.195312 -2.679688 0.210938 -2.695312 C 0.230469 -2.714844 0.261719 -2.722656 0.304688 -2.722656 Z "/>
</g>
<g id="glyph-0-1">
<path d="M 0.960938 -1.878906 L 1.949219 -1.878906 C 1.992188 -1.878906 2.023438 -1.871094 2.042969 -1.851562 C 2.0625 -1.835938 2.070312 -1.8125 2.070312 -1.785156 C 2.070312 -1.761719 2.0625 -1.738281 2.042969 -1.722656 C 2.023438 -1.703125 1.992188 -1.695312 1.949219 -1.695312 L 0.960938 -1.695312 L 0.960938 -0.480469 C 0.960938 -0.375 1 -0.289062 1.085938 -0.21875 C 1.171875 -0.144531 1.292969 -0.109375 1.457031 -0.109375 C 1.582031 -0.109375 1.714844 -0.128906 1.859375 -0.164062 C 2 -0.203125 2.113281 -0.246094 2.191406 -0.289062 C 2.21875 -0.308594 2.246094 -0.320312 2.261719 -0.320312 C 2.285156 -0.320312 2.304688 -0.308594 2.324219 -0.292969 C 2.339844 -0.273438 2.351562 -0.253906 2.351562 -0.226562 C 2.351562 -0.207031 2.339844 -0.1875 2.320312 -0.167969 C 2.277344 -0.121094 2.164062 -0.0664062 1.984375 -0.0117188 C 1.804688 0.0429688 1.632812 0.0703125 1.472656 0.0703125 C 1.257812 0.0703125 1.089844 0.0234375 0.964844 -0.078125 C 0.835938 -0.179688 0.773438 -0.3125 0.773438 -0.480469 L 0.773438 -1.695312 L 0.4375 -1.695312 C 0.394531 -1.695312 0.363281 -1.703125 0.34375 -1.722656 C 0.328125 -1.738281 0.316406 -1.761719 0.316406 -1.789062 C 0.316406 -1.8125 0.328125 -1.835938 0.34375 -1.851562 C 0.363281 -1.871094 0.394531 -1.878906 0.4375 -1.878906 L 0.773438 -1.878906 L 0.773438 -2.417969 C 0.773438 -2.460938 0.785156 -2.492188 0.800781 -2.511719 C 0.816406 -2.53125 0.839844 -2.539062 0.867188 -2.539062 C 0.894531 -2.539062 0.914062 -2.53125 0.933594 -2.511719 C 0.949219 -2.492188 0.960938 -2.460938 0.960938 -2.417969 Z "/>
</g>
<g id="glyph-0-2">
<path d="M 0.503906 -1.878906 L 0.503906 -1.695312 C 0.660156 -1.859375 0.8125 -1.945312 0.96875 -1.945312 C 1.0625 -1.945312 1.144531 -1.917969 1.21875 -1.871094 C 1.289062 -1.820312 1.347656 -1.742188 1.394531 -1.644531 C 1.476562 -1.742188 1.558594 -1.820312 1.640625 -1.871094 C 1.726562 -1.917969 1.808594 -1.945312 1.890625 -1.945312 C 2.023438 -1.945312 2.128906 -1.902344 2.207031 -1.816406 C 2.308594 -1.707031 2.359375 -1.585938 2.359375 -1.457031 L 2.359375 -0.183594 L 2.515625 -0.183594 C 2.558594 -0.183594 2.589844 -0.175781 2.609375 -0.15625 C 2.628906 -0.140625 2.636719 -0.117188 2.636719 -0.0898438 C 2.636719 -0.0664062 2.628906 -0.0429688 2.609375 -0.0273438 C 2.589844 -0.0078125 2.558594 0 2.515625 0 L 2.179688 0 L 2.179688 -1.4375 C 2.179688 -1.53125 2.152344 -1.609375 2.09375 -1.667969 C 2.039062 -1.730469 1.972656 -1.761719 1.898438 -1.761719 C 1.832031 -1.761719 1.761719 -1.734375 1.6875 -1.683594 C 1.613281 -1.636719 1.53125 -1.535156 1.4375 -1.390625 L 1.4375 -0.183594 L 1.589844 -0.183594 C 1.632812 -0.183594 1.664062 -0.175781 1.683594 -0.15625 C 1.699219 -0.140625 1.710938 -0.117188 1.710938 -0.0898438 C 1.710938 -0.0664062 1.699219 -0.0429688 1.683594 -0.0273438 C 1.664062 -0.0078125 1.632812 0 1.589844 0 L 1.253906 0 L 1.253906 -1.425781 C 1.253906 -1.523438 1.222656 -1.601562 1.167969 -1.664062 C 1.109375 -1.726562 1.046875 -1.761719 0.972656 -1.761719 C 0.910156 -1.761719 0.84375 -1.738281 0.78125 -1.695312 C 0.691406 -1.636719 0.601562 -1.535156 0.503906 -1.390625 L 0.503906 -0.183594 L 0.65625 -0.183594 C 0.699219 -0.183594 0.730469 -0.175781 0.75 -0.15625 C 0.769531 -0.140625 0.777344 -0.117188 0.777344 -0.0898438 C 0.777344 -0.0664062 0.769531 -0.0429688 0.75 -0.0273438 C 0.730469 -0.0078125 0.699219 0 0.65625 0 L 0.167969 0 C 0.125 0 0.09375 -0.0078125 0.0742188 -0.0273438 C 0.0546875 -0.0429688 0.046875 -0.0664062 0.046875 -0.0898438 C 0.046875 -0.117188 0.0546875 -0.140625 0.0742188 -0.15625 C 0.09375 -0.175781 0.125 -0.183594 0.167969 -0.183594 L 0.320312 -0.183594 L 0.320312 -1.695312 L 0.167969 -1.695312 C 0.125 -1.695312 0.09375 -1.703125 0.0742188 -1.722656 C 0.0546875 -1.738281 0.046875 -1.761719 0.046875 -1.789062 C 0.046875 -1.8125 0.0546875 -1.835938 0.0742188 -1.851562 C 0.09375 -1.871094 0.125 -1.878906 0.167969 -1.878906 Z "/>
</g>
<g id="glyph-0-3">
<path d="M 1.425781 -2.722656 L 1.425781 -0.183594 L 2.140625 -0.183594 C 2.1875 -0.183594 2.21875 -0.175781 2.238281 -0.15625 C 2.257812 -0.140625 2.265625 -0.117188 2.265625 -0.0898438 C 2.265625 -0.0664062 2.257812 -0.0429688 2.238281 -0.0273438 C 2.21875 -0.0078125 2.1875 0 2.140625 0 L 0.527344 0 C 0.484375 0 0.453125 -0.0078125 0.433594 -0.0273438 C 0.414062 -0.0429688 0.40625 -0.0664062 0.40625 -0.0898438 C 0.40625 -0.117188 0.414062 -0.140625 0.433594 -0.15625 C 0.453125 -0.175781 0.484375 -0.183594 0.527344 -0.183594 L 1.242188 -0.183594 L 1.242188 -2.539062 L 0.71875 -2.539062 C 0.675781 -2.539062 0.644531 -2.546875 0.625 -2.566406 C 0.605469 -2.582031 0.59375 -2.605469 0.59375 -2.632812 C 0.59375 -2.65625 0.605469 -2.679688 0.621094 -2.695312 C 0.640625 -2.714844 0.671875 -2.722656 0.71875 -2.722656 Z "/>
</g>
<g id="glyph-0-4">
<path d="M 0.648438 -1.878906 L 0.648438 -1.546875 C 0.753906 -1.679688 0.871094 -1.777344 0.996094 -1.84375 C 1.121094 -1.910156 1.265625 -1.945312 1.4375 -1.945312 C 1.617188 -1.945312 1.78125 -1.902344 1.933594 -1.820312 C 2.085938 -1.734375 2.203125 -1.617188 2.285156 -1.46875 C 2.371094 -1.316406 2.410156 -1.160156 2.410156 -0.996094 C 2.410156 -0.734375 2.316406 -0.511719 2.128906 -0.324219 C 1.941406 -0.136719 1.710938 -0.046875 1.4375 -0.046875 C 1.113281 -0.046875 0.847656 -0.179688 0.648438 -0.441406 L 0.648438 0.65625 L 1.089844 0.65625 C 1.132812 0.65625 1.164062 0.664062 1.183594 0.679688 C 1.203125 0.695312 1.210938 0.71875 1.210938 0.746094 C 1.210938 0.773438 1.203125 0.792969 1.183594 0.8125 C 1.164062 0.828125 1.132812 0.835938 1.089844 0.835938 L 0.21875 0.835938 C 0.175781 0.835938 0.144531 0.828125 0.125 0.8125 C 0.105469 0.796875 0.0976562 0.773438 0.0976562 0.746094 C 0.0976562 0.71875 0.105469 0.695312 0.125 0.679688 C 0.144531 0.664062 0.175781 0.65625 0.21875 0.65625 L 0.464844 0.65625 L 0.464844 -1.695312 L 0.21875 -1.695312 C 0.175781 -1.695312 0.144531 -1.703125 0.125 -1.722656 C 0.105469 -1.738281 0.0976562 -1.761719 0.0976562 -1.789062 C 0.0976562 -1.8125 0.105469 -1.835938 0.125 -1.851562 C 0.144531 -1.871094 0.175781 -1.878906 0.21875 -1.878906 L 0.648438 -1.878906 M 2.226562 -0.996094 C 2.226562 -1.207031 2.148438 -1.386719 1.996094 -1.535156 C 1.84375 -1.683594 1.660156 -1.761719 1.4375 -1.761719 C 1.21875 -1.761719 1.03125 -1.683594 0.875 -1.535156 C 0.722656 -1.382812 0.648438 -1.203125 0.648438 -0.996094 C 0.648438 -0.785156 0.722656 -0.605469 0.875 -0.457031 C 1.03125 -0.304688 1.21875 -0.230469 1.4375 -0.230469 C 1.65625 -0.230469 1.84375 -0.304688 1.996094 -0.453125 C 2.148438 -0.605469 2.226562 -0.785156 2.226562 -0.996094 Z "/>
</g>
<g id="glyph-0-5">
<path d="M 1.117188 -1.878906 L 1.117188 -1.417969 C 1.351562 -1.632812 1.53125 -1.769531 1.648438 -1.832031 C 1.765625 -1.894531 1.875 -1.925781 1.976562 -1.925781 C 2.082031 -1.925781 2.183594 -1.886719 2.277344 -1.816406 C 2.371094 -1.742188 2.417969 -1.6875 2.417969 -1.648438 C 2.417969 -1.621094 2.410156 -1.597656 2.390625 -1.582031 C 2.371094 -1.5625 2.347656 -1.554688 2.320312 -1.554688 C 2.308594 -1.554688 2.296875 -1.554688 2.285156 -1.5625 C 2.273438 -1.566406 2.257812 -1.582031 2.226562 -1.609375 C 2.179688 -1.660156 2.132812 -1.695312 2.097656 -1.714844 C 2.058594 -1.734375 2.023438 -1.742188 1.984375 -1.742188 C 1.90625 -1.742188 1.808594 -1.710938 1.699219 -1.648438 C 1.585938 -1.582031 1.390625 -1.429688 1.117188 -1.179688 L 1.117188 -0.183594 L 1.921875 -0.183594 C 1.96875 -0.183594 2 -0.175781 2.019531 -0.15625 C 2.035156 -0.140625 2.046875 -0.117188 2.046875 -0.0898438 C 2.046875 -0.0664062 2.035156 -0.0429688 2.019531 -0.0273438 C 2 -0.0078125 1.96875 0 1.921875 0 L 0.492188 0 C 0.449219 0 0.417969 -0.0078125 0.398438 -0.0234375 C 0.378906 -0.0429688 0.371094 -0.0625 0.371094 -0.0898438 C 0.371094 -0.113281 0.378906 -0.132812 0.398438 -0.152344 C 0.417969 -0.167969 0.449219 -0.175781 0.492188 -0.175781 L 0.933594 -0.175781 L 0.933594 -1.695312 L 0.597656 -1.695312 C 0.554688 -1.695312 0.523438 -1.703125 0.503906 -1.722656 C 0.484375 -1.738281 0.476562 -1.761719 0.476562 -1.789062 C 0.476562 -1.8125 0.484375 -1.835938 0.503906 -1.851562 C 0.519531 -1.871094 0.550781 -1.878906 0.597656 -1.878906 Z "/>
</g>
<g id="glyph-0-6">
<path d="M 2.320312 -0.894531 L 0.460938 -0.894531 C 0.492188 -0.660156 0.59375 -0.46875 0.757812 -0.328125 C 0.925781 -0.183594 1.128906 -0.109375 1.375 -0.109375 C 1.507812 -0.109375 1.652344 -0.132812 1.800781 -0.179688 C 1.949219 -0.222656 2.070312 -0.28125 2.164062 -0.355469 C 2.191406 -0.378906 2.21875 -0.386719 2.238281 -0.386719 C 2.261719 -0.386719 2.28125 -0.378906 2.296875 -0.359375 C 2.316406 -0.34375 2.324219 -0.320312 2.324219 -0.296875 C 2.324219 -0.273438 2.3125 -0.25 2.289062 -0.226562 C 2.21875 -0.152344 2.097656 -0.0859375 1.917969 -0.0234375 C 1.742188 0.0390625 1.558594 0.0703125 1.375 0.0703125 C 1.0625 0.0703125 0.800781 -0.03125 0.589844 -0.234375 C 0.382812 -0.441406 0.277344 -0.6875 0.277344 -0.980469 C 0.277344 -1.242188 0.375 -1.46875 0.570312 -1.660156 C 0.769531 -1.847656 1.011719 -1.945312 1.300781 -1.945312 C 1.597656 -1.945312 1.84375 -1.847656 2.035156 -1.652344 C 2.226562 -1.457031 2.324219 -1.207031 2.320312 -0.894531 M 2.136719 -1.082031 C 2.097656 -1.28125 2.003906 -1.445312 1.851562 -1.570312 C 1.695312 -1.695312 1.511719 -1.761719 1.300781 -1.761719 C 1.085938 -1.761719 0.902344 -1.699219 0.75 -1.574219 C 0.597656 -1.449219 0.503906 -1.285156 0.464844 -1.082031 Z "/>
</g>
<g id="glyph-0-7">
<path d="M 1.492188 0 L 1.183594 0 L 0.4375 -1.695312 L 0.25 -1.695312 C 0.207031 -1.695312 0.175781 -1.703125 0.15625 -1.722656 C 0.136719 -1.738281 0.128906 -1.761719 0.128906 -1.789062 C 0.128906 -1.8125 0.136719 -1.835938 0.15625 -1.851562 C 0.175781 -1.871094 0.207031 -1.878906 0.25 -1.878906 L 0.933594 -1.878906 C 0.976562 -1.878906 1.007812 -1.871094 1.027344 -1.851562 C 1.046875 -1.835938 1.054688 -1.8125 1.054688 -1.785156 C 1.054688 -1.761719 1.046875 -1.738281 1.027344 -1.722656 C 1.007812 -1.703125 0.976562 -1.695312 0.933594 -1.695312 L 0.632812 -1.695312 L 1.300781 -0.183594 L 1.378906 -0.183594 L 2.035156 -1.695312 L 1.730469 -1.695312 C 1.6875 -1.695312 1.65625 -1.703125 1.636719 -1.722656 C 1.621094 -1.738281 1.609375 -1.761719 1.609375 -1.789062 C 1.609375 -1.8125 1.621094 -1.835938 1.636719 -1.851562 C 1.65625 -1.871094 1.6875 -1.878906 1.730469 -1.878906 L 2.417969 -1.878906 C 2.460938 -1.878906 2.492188 -1.871094 2.511719 -1.851562 C 2.53125 -1.835938 2.539062 -1.8125 2.539062 -1.785156 C 2.539062 -1.761719 2.53125 -1.738281 2.511719 -1.722656 C 2.492188 -1.703125 2.460938 -1.695312 2.417969 -1.695312 L 2.234375 -1.695312 Z "/>
</g>
<g id="glyph-0-8">
<path d="M 1.421875 -2.8125 L 1.421875 -2.34375 L 1.15625 -2.34375 L 1.15625 -2.8125 L 1.421875 -2.8125 M 1.429688 -1.878906 L 1.429688 -0.183594 L 2.144531 -0.183594 C 2.191406 -0.183594 2.222656 -0.175781 2.242188 -0.15625 C 2.261719 -0.140625 2.269531 -0.117188 2.269531 -0.0898438 C 2.269531 -0.0664062 2.261719 -0.0429688 2.242188 -0.0273438 C 2.222656 -0.0078125 2.191406 0 2.144531 0 L 0.53125 0 C 0.488281 0 0.457031 -0.0078125 0.4375 -0.0273438 C 0.417969 -0.0429688 0.410156 -0.0664062 0.410156 -0.0898438 C 0.410156 -0.117188 0.417969 -0.140625 0.4375 -0.15625 C 0.457031 -0.175781 0.488281 -0.183594 0.53125 -0.183594 L 1.246094 -0.183594 L 1.246094 -1.695312 L 0.714844 -1.695312 C 0.671875 -1.695312 0.640625 -1.703125 0.621094 -1.722656 C 0.601562 -1.738281 0.59375 -1.761719 0.59375 -1.785156 C 0.59375 -1.8125 0.601562 -1.835938 0.621094 -1.851562 C 0.640625 -1.871094 0.671875 -1.878906 0.714844 -1.878906 Z "/>
</g>
<g id="glyph-0-9">
<path d="M 1.960938 0 L 1.734375 0.00390625 L 1.335938 -1.167969 L 0.933594 0.00390625 L 0.710938 0 L 0.332031 -1.695312 L 0.242188 -1.695312 C 0.199219 -1.695312 0.167969 -1.703125 0.148438 -1.722656 C 0.132812 -1.738281 0.121094 -1.761719 0.121094 -1.789062 C 0.121094 -1.8125 0.132812 -1.835938 0.148438 -1.851562 C 0.167969 -1.871094 0.199219 -1.878906 0.242188 -1.878906 L 0.746094 -1.878906 C 0.789062 -1.878906 0.820312 -1.871094 0.835938 -1.851562 C 0.855469 -1.835938 0.867188 -1.8125 0.867188 -1.785156 C 0.867188 -1.761719 0.855469 -1.738281 0.835938 -1.722656 C 0.820312 -1.703125 0.789062 -1.695312 0.746094 -1.695312 L 0.511719 -1.695312 L 0.835938 -0.25 L 1.222656 -1.402344 L 1.441406 -1.402344 L 1.839844 -0.25 L 2.152344 -1.695312 L 1.921875 -1.695312 C 1.878906 -1.695312 1.84375 -1.703125 1.824219 -1.722656 C 1.804688 -1.738281 1.796875 -1.761719 1.796875 -1.789062 C 1.796875 -1.8125 1.804688 -1.835938 1.824219 -1.851562 C 1.84375 -1.871094 1.875 -1.878906 1.921875 -1.878906 L 2.417969 -1.878906 C 2.464844 -1.878906 2.496094 -1.871094 2.515625 -1.851562 C 2.535156 -1.835938 2.542969 -1.8125 2.542969 -1.785156 C 2.542969 -1.761719 2.535156 -1.738281 2.515625 -1.722656 C 2.496094 -1.703125 2.464844 -1.695312 2.417969 -1.695312 L 2.332031 -1.695312 Z "/>
</g>
<g id="glyph-0-10">
<path d="M 1.296875 -0.523438 L 1.375 -0.523438 C 1.453125 -0.523438 1.523438 -0.496094 1.582031 -0.4375 C 1.640625 -0.378906 1.667969 -0.3125 1.667969 -0.230469 C 1.667969 -0.144531 1.640625 -0.0742188 1.582031 -0.0195312 C 1.523438 0.0351562 1.453125 0.0664062 1.375 0.0664062 L 1.296875 0.0664062 C 1.214844 0.0664062 1.144531 0.0351562 1.085938 -0.0195312 C 1.027344 -0.078125 1 -0.148438 1 -0.226562 C 1 -0.3125 1.03125 -0.382812 1.089844 -0.4375 C 1.148438 -0.496094 1.214844 -0.523438 1.296875 -0.523438 Z "/>
</g>
<g id="glyph-0-11">
<path d="M 1.945312 -1.546875 L 1.945312 -1.878906 L 2.375 -1.878906 C 2.417969 -1.878906 2.449219 -1.871094 2.46875 -1.851562 C 2.484375 -1.835938 2.496094 -1.8125 2.496094 -1.785156 C 2.496094 -1.761719 2.484375 -1.738281 2.46875 -1.722656 C 2.449219 -1.703125 2.417969 -1.695312 2.375 -1.695312 L 2.128906 -1.695312 L 2.128906 0.125 C 2.128906 0.246094 2.101562 0.355469 2.050781 0.453125 C 2.015625 0.515625 1.957031 0.582031 1.878906 0.648438 C 1.796875 0.71875 1.722656 0.765625 1.65625 0.792969 C 1.589844 0.824219 1.5 0.835938 1.390625 0.835938 L 0.871094 0.835938 C 0.828125 0.835938 0.796875 0.828125 0.777344 0.8125 C 0.761719 0.796875 0.75 0.773438 0.75 0.746094 C 0.75 0.71875 0.761719 0.695312 0.777344 0.679688 C 0.796875 0.660156 0.828125 0.652344 0.871094 0.652344 L 1.394531 0.65625 C 1.503906 0.65625 1.597656 0.628906 1.683594 0.574219 C 1.769531 0.519531 1.84375 0.4375 1.898438 0.332031 C 1.929688 0.269531 1.945312 0.195312 1.945312 0.101562 L 1.945312 -0.445312 C 1.75 -0.179688 1.5 -0.046875 1.191406 -0.046875 C 0.941406 -0.046875 0.726562 -0.136719 0.542969 -0.324219 C 0.363281 -0.511719 0.269531 -0.734375 0.269531 -0.996094 C 0.269531 -1.257812 0.363281 -1.480469 0.542969 -1.667969 C 0.726562 -1.851562 0.941406 -1.945312 1.191406 -1.945312 C 1.5 -1.945312 1.75 -1.8125 1.945312 -1.546875 M 1.945312 -0.996094 C 1.945312 -1.210938 1.871094 -1.390625 1.726562 -1.539062 C 1.578125 -1.6875 1.402344 -1.761719 1.199219 -1.761719 C 0.996094 -1.761719 0.820312 -1.6875 0.675781 -1.539062 C 0.527344 -1.390625 0.457031 -1.207031 0.457031 -0.996094 C 0.457031 -0.78125 0.527344 -0.601562 0.675781 -0.453125 C 0.820312 -0.304688 0.996094 -0.230469 1.199219 -0.230469 C 1.402344 -0.230469 1.578125 -0.304688 1.726562 -0.453125 C 1.871094 -0.601562 1.945312 -0.78125 1.945312 -0.996094 Z "/>
</g>
<g id="glyph-0-12">
<path d="M 1.957031 0 L 1.957031 -0.265625 C 1.707031 -0.0429688 1.4375 0.0703125 1.148438 0.0703125 C 0.972656 0.0703125 0.835938 0.0234375 0.746094 -0.0742188 C 0.625 -0.199219 0.5625 -0.347656 0.5625 -0.519531 L 0.5625 -1.695312 L 0.320312 -1.695312 C 0.277344 -1.695312 0.246094 -1.703125 0.226562 -1.722656 C 0.207031 -1.738281 0.199219 -1.761719 0.199219 -1.789062 C 0.199219 -1.8125 0.207031 -1.835938 0.226562 -1.851562 C 0.246094 -1.871094 0.277344 -1.878906 0.320312 -1.878906 L 0.746094 -1.878906 L 0.746094 -0.519531 C 0.746094 -0.398438 0.785156 -0.300781 0.859375 -0.226562 C 0.933594 -0.148438 1.027344 -0.109375 1.140625 -0.109375 C 1.4375 -0.109375 1.710938 -0.246094 1.957031 -0.519531 L 1.957031 -1.695312 L 1.621094 -1.695312 C 1.578125 -1.695312 1.546875 -1.703125 1.527344 -1.722656 C 1.507812 -1.738281 1.5 -1.761719 1.5 -1.789062 C 1.5 -1.8125 1.507812 -1.835938 1.527344 -1.851562 C 1.546875 -1.871094 1.578125 -1.878906 1.621094 -1.878906 L 2.140625 -1.878906 L 2.140625 -0.183594 L 2.292969 -0.183594 C 2.335938 -0.183594 2.367188 -0.175781 2.386719 -0.15625 C 2.40625 -0.140625 2.414062 -0.117188 2.414062 -0.0898438 C 2.414062 -0.0664062 2.40625 -0.0429688 2.386719 -0.0273438 C 2.367188 -0.0078125 2.335938 0 2.292969 0 Z "/>
</g>
<g id="glyph-0-13">
<path d="M 0.648438 -2.722656 L 0.648438 -1.515625 C 0.867188 -1.800781 1.132812 -1.945312 1.441406 -1.945312 C 1.710938 -1.945312 1.9375 -1.847656 2.125 -1.65625 C 2.316406 -1.460938 2.410156 -1.222656 2.410156 -0.945312 C 2.410156 -0.660156 2.316406 -0.421875 2.125 -0.222656 C 1.929688 -0.0273438 1.703125 0.0703125 1.441406 0.0703125 C 1.125 0.0703125 0.859375 -0.0703125 0.648438 -0.359375 L 0.648438 0 L 0.21875 0 C 0.175781 0 0.144531 -0.0078125 0.125 -0.0273438 C 0.105469 -0.0429688 0.0976562 -0.0664062 0.0976562 -0.0898438 C 0.0976562 -0.117188 0.105469 -0.140625 0.125 -0.15625 C 0.144531 -0.175781 0.175781 -0.183594 0.21875 -0.183594 L 0.464844 -0.183594 L 0.464844 -2.539062 L 0.21875 -2.539062 C 0.175781 -2.539062 0.144531 -2.546875 0.125 -2.566406 C 0.105469 -2.582031 0.0976562 -2.605469 0.0976562 -2.632812 C 0.0976562 -2.65625 0.105469 -2.679688 0.125 -2.695312 C 0.144531 -2.714844 0.175781 -2.722656 0.21875 -2.722656 L 0.648438 -2.722656 M 2.226562 -0.933594 C 2.226562 -1.164062 2.148438 -1.359375 1.992188 -1.519531 C 1.835938 -1.679688 1.648438 -1.761719 1.4375 -1.761719 C 1.226562 -1.761719 1.042969 -1.679688 0.886719 -1.519531 C 0.726562 -1.359375 0.648438 -1.164062 0.648438 -0.933594 C 0.648438 -0.707031 0.726562 -0.511719 0.886719 -0.351562 C 1.042969 -0.191406 1.226562 -0.109375 1.4375 -0.109375 C 1.648438 -0.109375 1.835938 -0.191406 1.992188 -0.351562 C 2.148438 -0.511719 2.226562 -0.707031 2.226562 -0.933594 Z "/>
</g>
<g id="glyph-0-14">
<path d="M 2.351562 -0.933594 C 2.351562 -0.65625 2.253906 -0.421875 2.054688 -0.222656 C 1.855469 -0.0273438 1.613281 0.0703125 1.335938 0.0703125 C 1.050781 0.0703125 0.808594 -0.0273438 0.613281 -0.222656 C 0.414062 -0.421875 0.316406 -0.660156 0.316406 -0.933594 C 0.316406 -1.214844 0.414062 -1.449219 0.613281 -1.648438 C 0.808594 -1.84375 1.050781 -1.945312 1.335938 -1.945312 C 1.613281 -1.945312 1.855469 -1.847656 2.054688 -1.648438 C 2.253906 -1.453125 2.351562 -1.214844 2.351562 -0.933594 M 2.167969 -0.933594 C 2.167969 -1.164062 2.085938 -1.359375 1.921875 -1.519531 C 1.761719 -1.679688 1.5625 -1.761719 1.332031 -1.761719 C 1.101562 -1.761719 0.902344 -1.679688 0.742188 -1.519531 C 0.578125 -1.355469 0.496094 -1.164062 0.496094 -0.933594 C 0.496094 -0.710938 0.578125 -0.515625 0.742188 -0.355469 C 0.902344 -0.191406 1.101562 -0.109375 1.332031 -0.109375 C 1.5625 -0.109375 1.761719 -0.191406 1.921875 -0.351562 C 2.085938 -0.515625 2.167969 -0.707031 2.167969 -0.933594 Z "/>
</g>
<g id="glyph-0-15">
<path d="M 2.152344 -2.855469 L 0.6875 0.285156 C 0.660156 0.339844 0.628906 0.367188 0.589844 0.367188 C 0.566406 0.367188 0.542969 0.359375 0.527344 0.339844 C 0.507812 0.320312 0.5 0.300781 0.5 0.28125 C 0.5 0.261719 0.507812 0.238281 0.519531 0.207031 L 1.984375 -2.933594 C 2 -2.96875 2.015625 -2.988281 2.03125 -3 C 2.046875 -3.007812 2.0625 -3.015625 2.082031 -3.015625 C 2.109375 -3.015625 2.128906 -3.003906 2.148438 -2.988281 C 2.164062 -2.96875 2.175781 -2.949219 2.175781 -2.925781 C 2.175781 -2.910156 2.167969 -2.886719 2.152344 -2.855469 Z "/>
</g>
</g>
</defs>
<g fill="rgb(53.333333%, 53.333333%, 53.333333%)" fill-opacity="1">
<use xlink:href="#glyph-0-0" x="30" y="23.699219"/>
<use xlink:href="#glyph-0-1" x="33" y="23.699219"/>
<use xlink:href="#glyph-0-2" x="36" y="23.699219"/>
<use xlink:href="#glyph-0-3" x="39" y="23.699219"/>
<use xlink:href="#glyph-0-4" x="42" y="23.699219"/>
<use xlink:href="#glyph-0-5" x="45" y="23.699219"/>
<use xlink:href="#glyph-0-6" x="48" y="23.699219"/>
<use xlink:href="#glyph-0-7" x="51" y="23.699219"/>
<use xlink:href="#glyph-0-8" x="54" y="23.699219"/>
<use xlink:href="#glyph-0-6" x="57" y="23.699219"/>
<use xlink:href="#glyph-0-9" x="60" y="23.699219"/>
<use xlink:href="#glyph-0-10" x="63" y="23.699219"/>
<use xlink:href="#glyph-0-11" x="66" y="23.699219"/>
<use xlink:href="#glyph-0-8" x="69" y="23.699219"/>
<use xlink:href="#glyph-0-1" x="72" y="23.699219"/>
<use xlink:href="#glyph-0-0" x="75" y="23.699219"/>
<use xlink:href="#glyph-0-12" x="78" y="23.699219"/>
<use xlink:href="#glyph-0-13" x="81" y="23.699219"/>
<use xlink:href="#glyph-0-10" x="84" y="23.699219"/>
<use xlink:href="#glyph-0-8" x="87" y="23.699219"/>
<use xlink:href="#glyph-0-14" x="90" y="23.699219"/>
<use xlink:href="#glyph-0-15" x="93" y="23.699219"/>
<use xlink:href="#glyph-0-10" x="96" y="23.699219"/>
<use xlink:href="#glyph-0-10" x="99" y="23.699219"/>
<use xlink:href="#glyph-0-10" x="102" y="23.699219"/>
</g>
</svg>
