<?xml version="1.0" encoding="UTF-8"?>
<svg xmlns="http://www.w3.org/2000/svg" xmlns:xlink="http://www.w3.org/1999/xlink" width="854" height="480" viewBox="0 0 854 480">
<defs>
<g>
<g id="glyph-0-0">
<path d="M 1.464844 -0.921875 L 0.554688 -0.921875 L 0.554688 -0.136719 L 0.742188 -0.136719 C 0.773438 -0.136719 0.796875 -0.128906 0.808594 -0.117188 C 0.824219 -0.105469 0.832031 -0.0898438 0.832031 -0.0703125 C 0.832031 -0.046875 0.824219 -0.03125 0.808594 -0.0195312 C 0.796875 -0.0078125 0.773438 0 0.742188 0 L 0.265625 0 C 0.234375 0 0.210938 -0.0078125 0.195312 -0.0195312 C 0.179688 -0.03125 0.175781 -0.046875 0.175781 -0.0703125 C 0.175781 -0.0898438 0.179688 -0.105469 0.195312 -0.117188 C 0.210938 -0.128906 0.234375 -0.136719 0.265625 -0.136719 L 0.417969 -0.136719 L 0.417969 -1.765625 L 0.335938 -1.765625 C 0.300781 -1.765625 0.277344 -1.773438 0.265625 -1.785156 C 0.25 -1.796875 0.242188 -1.816406 0.242188 -1.835938 C 0.242188 -1.855469 0.25 -1.875 0.265625 -1.886719 C 0.277344 -1.898438 0.300781 -1.902344 0.335938 -1.902344 L 0.742188 -1.902344 C 0.773438 -1.902344 0.796875 -1.898438 0.808594 -1.886719 C 0.824219 -1.875 0.832031 -1.855469 0.832031 -1.835938 C 0.832031 -1.816406 0.824219 -1.796875 0.808594 -1.785156 C 0.796875 -1.773438 0.773438 -1.765625 0.742188 -1.765625 L 0.554688 -1.765625 L 0.554688 -1.058594 L 1.464844 -1.058594 L 1.464844 -1.765625 L 1.28125 -1.765625 C 1.25 -1.765625 1.226562 -1.773438 1.210938 -1.785156 C 1.195312 -1.796875 1.191406 -1.816406 1.191406 -1.835938 C 1.191406 -1.855469 1.195312 -1.875 1.210938 -1.886719 C 1.222656 -1.898438 1.246094 -1.902344 1.28125 -1.902344 L 1.6875 -1.902344 C 1.71875 -1.902344 1.742188 -1.898438 1.757812 -1.886719 C 1.773438 -1.875 1.777344 -1.855469 1.777344 -1.835938 C 1.777344 -1.816406 1.773438 -1.796875 1.757812 -1.785156 C 1.742188 -1.773438 1.71875 -1.765625 1.6875 -1.765625 L 1.601562 -1.765625 L 1.601562 -0.136719 L 1.757812 -0.136719 C 1.789062 -0.136719 1.8125 -0.128906 1.824219 -0.117188 C 1.839844 -0.105469 1.847656 -0.0898438 1.847656 -0.0703125 C 1.847656 -0.046875 1.839844 -0.03125 1.824219 -0.0195312 C 1.8125 -0.0078125 1.789062 0 1.757812 0 L 1.28125 0 C 1.25 0 1.226562 -0.0078125 1.210938 -0.0195312 C 1.195312 -0.03125 1.191406 -0.046875 1.191406 -0.0703125 C 1.191406 -0.0898438 1.195312 -0.105469 1.210938 -0.117188 C 1.222656 -0.128906 1.246094 -0.136719 1.28125 -0.136719 L 1.464844 -0.136719 Z "/>
</g>
<g id="glyph-0-1">
<path d="M 1.738281 -0.671875 L 0.347656 -0.671875 C 0.371094 -0.496094 0.445312 -0.351562 0.570312 -0.246094 C 0.691406 -0.136719 0.847656 -0.0820312 1.03125 -0.0820312 C 1.132812 -0.0820312 1.238281 -0.101562 1.351562 -0.132812 C 1.460938 -0.167969 1.554688 -0.210938 1.625 -0.265625 C 1.644531 -0.28125 1.664062 -0.292969 1.679688 -0.292969 C 1.695312 -0.292969 1.710938 -0.285156 1.722656 -0.269531 C 1.738281 -0.257812 1.742188 -0.242188 1.742188 -0.222656 C 1.742188 -0.203125 1.734375 -0.1875 1.71875 -0.167969 C 1.664062 -0.113281 1.574219 -0.0625 1.441406 -0.015625 C 1.308594 0.03125 1.171875 0.0546875 1.03125 0.0546875 C 0.796875 0.0546875 0.601562 -0.0234375 0.445312 -0.175781 C 0.285156 -0.332031 0.207031 -0.515625 0.207031 -0.734375 C 0.207031 -0.933594 0.28125 -1.101562 0.429688 -1.246094 C 0.574219 -1.386719 0.757812 -1.457031 0.976562 -1.457031 C 1.199219 -1.457031 1.382812 -1.386719 1.527344 -1.238281 C 1.671875 -1.09375 1.742188 -0.90625 1.738281 -0.671875 M 1.601562 -0.808594 C 1.574219 -0.960938 1.503906 -1.085938 1.386719 -1.179688 C 1.273438 -1.273438 1.132812 -1.320312 0.976562 -1.320312 C 0.816406 -1.320312 0.679688 -1.273438 0.5625 -1.179688 C 0.449219 -1.085938 0.375 -0.964844 0.347656 -0.808594 Z "/>
</g>
<g id="glyph-0-2">
<path d="M 0.835938 -1.410156 L 0.835938 -1.0625 C 1.015625 -1.226562 1.148438 -1.328125 1.234375 -1.375 C 1.324219 -1.421875 1.40625 -1.445312 1.480469 -1.445312 C 1.5625 -1.445312 1.636719 -1.417969 1.707031 -1.363281 C 1.777344 -1.308594 1.8125 -1.265625 1.8125 -1.238281 C 1.8125 -1.214844 1.804688 -1.199219 1.792969 -1.1875 C 1.777344 -1.171875 1.761719 -1.164062 1.742188 -1.164062 C 1.730469 -1.164062 1.722656 -1.167969 1.714844 -1.171875 C 1.707031 -1.175781 1.691406 -1.1875 1.671875 -1.207031 C 1.632812 -1.246094 1.601562 -1.273438 1.570312 -1.285156 C 1.542969 -1.300781 1.515625 -1.308594 1.488281 -1.308594 C 1.429688 -1.308594 1.359375 -1.28125 1.273438 -1.234375 C 1.191406 -1.1875 1.042969 -1.070312 0.835938 -0.886719 L 0.835938 -0.136719 L 1.441406 -0.136719 C 1.476562 -0.136719 1.5 -0.128906 1.511719 -0.117188 C 1.527344 -0.105469 1.535156 -0.0898438 1.535156 -0.0703125 C 1.535156 -0.046875 1.527344 -0.03125 1.511719 -0.0195312 C 1.5 -0.0078125 1.476562 0 1.441406 0 L 0.371094 0 C 0.335938 0 0.3125 -0.0078125 0.300781 -0.0195312 C 0.285156 -0.03125 0.277344 -0.046875 0.277344 -0.0664062 C 0.277344 -0.0859375 0.285156 -0.101562 0.296875 -0.113281 C 0.3125 -0.125 0.335938 -0.132812 0.371094 -0.132812 L 0.699219 -0.132812 L 0.699219 -1.269531 L 0.449219 -1.269531 C 0.414062 -1.269531 0.390625 -1.277344 0.378906 -1.289062 C 0.363281 -1.304688 0.355469 -1.320312 0.355469 -1.339844 C 0.355469 -1.359375 0.363281 -1.375 0.375 -1.390625 C 0.390625 -1.402344 0.414062 -1.410156 0.449219 -1.410156 Z "/>
</g>
<g id="glyph-0-3">
<path d="M 0.378906 -1.410156 L 0.378906 -1.269531 C 0.492188 -1.394531 0.609375 -1.457031 0.726562 -1.457031 C 0.796875 -1.457031 0.859375 -1.441406 0.914062 -1.402344 C 0.964844 -1.363281 1.011719 -1.308594 1.046875 -1.230469 C 1.105469 -1.308594 1.167969 -1.363281 1.230469 -1.402344 C 1.292969 -1.441406 1.355469 -1.457031 1.417969 -1.457031 C 1.519531 -1.457031 1.597656 -1.425781 1.65625 -1.363281 C 1.730469 -1.28125 1.769531 -1.191406 1.769531 -1.09375 L 1.769531 -0.136719 L 1.886719 -0.136719 C 1.917969 -0.136719 1.941406 -0.128906 1.957031 -0.117188 C 1.96875 -0.105469 1.976562 -0.0898438 1.976562 -0.0703125 C 1.976562 -0.046875 1.96875 -0.03125 1.957031 -0.0195312 C 1.941406 -0.0078125 1.917969 0 1.886719 0 L 1.632812 0 L 1.632812 -1.078125 C 1.632812 -1.148438 1.613281 -1.207031 1.570312 -1.25 C 1.527344 -1.296875 1.480469 -1.320312 1.425781 -1.320312 C 1.375 -1.320312 1.320312 -1.300781 1.265625 -1.265625 C 1.210938 -1.226562 1.148438 -1.152344 1.078125 -1.042969 L 1.078125 -0.136719 L 1.191406 -0.136719 C 1.222656 -0.136719 1.246094 -0.128906 1.261719 -0.117188 C 1.277344 -0.105469 1.28125 -0.0898438 1.28125 -0.0703125 C 1.28125 -0.046875 1.277344 -0.03125 1.261719 -0.0195312 C 1.246094 -0.0078125 1.222656 0 1.191406 0 L 0.9375 0 L 0.9375 -1.070312 C 0.9375 -1.140625 0.917969 -1.203125 0.875 -1.25 C 0.832031 -1.296875 0.785156 -1.320312 0.730469 -1.320312 C 0.683594 -1.320312 0.632812 -1.304688 0.585938 -1.273438 C 0.519531 -1.226562 0.449219 -1.152344 0.378906 -1.042969 L 0.378906 -0.136719 L 0.492188 -0.136719 C 0.527344 -0.136719 0.550781 -0.128906 0.5625 -0.117188 C 0.578125 -0.105469 0.585938 -0.0898438 0.585938 -0.0703125 C 0.585938 -0.046875 0.578125 -0.03125 0.5625 -0.0195312 C 0.550781 -0.0078125 0.527344 0 0.492188 0 L 0.125 0 C 0.09375 0 0.0703125 -0.0078125 0.0546875 -0.0195312 C 0.0429688 -0.03125 0.0351562 -0.046875 0.0351562 -0.0703125 C 0.0351562 -0.0898438 0.0429688 -0.105469 0.0546875 -0.117188 C 0.0703125 -0.128906 0.09375 -0.136719 0.125 -0.136719 L 0.242188 -0.136719 L 0.242188 -1.269531 L 0.125 -1.269531 C 0.09375 -1.269531 0.0703125 -1.277344 0.0546875 -1.289062 C 0.0429688 -1.304688 0.0351562 -1.320312 0.0351562 -1.339844 C 0.0351562 -1.359375 0.0429688 -1.375 0.0546875 -1.390625 C 0.0703125 -1.402344 0.09375 -1.410156 0.125 -1.410156 Z "/>
</g>
<g id="glyph-0-4">
<path d="M 1.453125 -1.320312 C 1.453125 -1.351562 1.457031 -1.375 1.472656 -1.386719 C 1.484375 -1.402344 1.5 -1.410156 1.519531 -1.410156 C 1.539062 -1.410156 1.558594 -1.402344 1.570312 -1.386719 C 1.582031 -1.375 1.589844 -1.351562 1.589844 -1.316406 L 1.589844 -1.082031 C 1.589844 -1.050781 1.582031 -1.027344 1.570312 -1.011719 C 1.558594 -1 1.539062 -0.992188 1.519531 -0.992188 C 1.5 -0.992188 1.484375 -0.996094 1.472656 -1.007812 C 1.460938 -1.019531 1.453125 -1.039062 1.453125 -1.066406 C 1.445312 -1.132812 1.410156 -1.1875 1.351562 -1.230469 C 1.261719 -1.289062 1.144531 -1.320312 0.996094 -1.320312 C 0.84375 -1.320312 0.726562 -1.289062 0.640625 -1.226562 C 0.578125 -1.179688 0.546875 -1.128906 0.546875 -1.070312 C 0.546875 -1.007812 0.582031 -0.953125 0.660156 -0.90625 C 0.710938 -0.878906 0.808594 -0.855469 0.957031 -0.839844 C 1.144531 -0.816406 1.277344 -0.792969 1.351562 -0.769531 C 1.457031 -0.730469 1.535156 -0.675781 1.585938 -0.609375 C 1.636719 -0.542969 1.664062 -0.46875 1.664062 -0.390625 C 1.664062 -0.277344 1.609375 -0.171875 1.496094 -0.0820312 C 1.382812 0.0078125 1.21875 0.0546875 1.003906 0.0546875 C 0.789062 0.0546875 0.613281 0 0.472656 -0.109375 C 0.472656 -0.0742188 0.472656 -0.0507812 0.46875 -0.0390625 C 0.460938 -0.0273438 0.453125 -0.0195312 0.445312 -0.0117188 C 0.433594 -0.00390625 0.417969 0 0.40625 0 C 0.386719 0 0.371094 -0.0078125 0.355469 -0.0195312 C 0.34375 -0.0351562 0.335938 -0.0585938 0.335938 -0.0898438 L 0.335938 -0.371094 C 0.335938 -0.40625 0.34375 -0.429688 0.355469 -0.441406 C 0.367188 -0.457031 0.382812 -0.464844 0.40625 -0.464844 C 0.425781 -0.464844 0.441406 -0.457031 0.453125 -0.445312 C 0.46875 -0.429688 0.476562 -0.410156 0.476562 -0.390625 C 0.476562 -0.339844 0.488281 -0.296875 0.511719 -0.265625 C 0.550781 -0.210938 0.609375 -0.167969 0.695312 -0.132812 C 0.777344 -0.101562 0.878906 -0.0820312 1 -0.0820312 C 1.175781 -0.0820312 1.308594 -0.117188 1.394531 -0.183594 C 1.484375 -0.25 1.527344 -0.320312 1.527344 -0.390625 C 1.527344 -0.476562 1.484375 -0.542969 1.394531 -0.59375 C 1.304688 -0.648438 1.175781 -0.679688 1.007812 -0.699219 C 0.835938 -0.714844 0.714844 -0.738281 0.640625 -0.765625 C 0.566406 -0.792969 0.511719 -0.835938 0.46875 -0.894531 C 0.425781 -0.949219 0.40625 -1.011719 0.40625 -1.074219 C 0.40625 -1.191406 0.464844 -1.285156 0.578125 -1.355469 C 0.695312 -1.425781 0.832031 -1.457031 0.992188 -1.457031 C 1.179688 -1.457031 1.332031 -1.414062 1.453125 -1.320312 Z "/>
</g>
<g id="glyph-0-5">
</g>
<g id="glyph-0-6">
<path d="M 1.449219 -0.636719 L 0.550781 -0.636719 L 0.367188 -0.136719 L 0.628906 -0.136719 C 0.664062 -0.136719 0.6875 -0.128906 0.699219 -0.117188 C 0.714844 -0.105469 0.722656 -0.0898438 0.722656 -0.0703125 C 0.722656 -0.046875 0.714844 -0.03125 0.699219 -0.0195312 C 0.6875 -0.0078125 0.664062 0 0.628906 0 L 0.117188 0 C 0.0859375 0 0.0625 -0.0078125 0.046875 -0.0195312 C 0.0351562 -0.03125 0.0273438 -0.046875 0.0273438 -0.0703125 C 0.0273438 -0.0898438 0.0351562 -0.105469 0.046875 -0.117188 C 0.0625 -0.128906 0.0859375 -0.136719 0.117188 -0.136719 L 0.222656 -0.136719 L 0.828125 -1.765625 L 0.425781 -1.765625 C 0.390625 -1.765625 0.367188 -1.773438 0.355469 -1.785156 C 0.339844 -1.796875 0.332031 -1.816406 0.332031 -1.835938 C 0.332031 -1.855469 0.339844 -1.875 0.355469 -1.886719 C 0.367188 -1.898438 0.390625 -1.902344 0.425781 -1.902344 L 1.113281 -1.902344 L 1.78125 -0.136719 L 1.886719 -0.136719 C 1.917969 -0.136719 1.941406 -0.128906 1.957031 -0.117188 C 1.96875 -0.105469 1.976562 -0.0898438 1.976562 -0.0703125 C 1.976562 -0.046875 1.96875 -0.03125 1.957031 -0.0195312 C 1.941406 -0.0078125 1.917969 0 1.886719 0 L 1.375 0 C 1.34375 0 1.320312 -0.0078125 1.304688 -0.0195312 C 1.292969 -0.03125 1.285156 -0.046875 1.285156 -0.0703125 C 1.285156 -0.0898438 1.292969 -0.105469 1.304688 -0.117188 C 1.320312 -0.128906 1.34375 -0.136719 1.375 -0.136719 L 1.636719 -0.136719 L 1.449219 -0.636719 M 1.398438 -0.773438 L 1.019531 -1.765625 L 0.96875 -1.765625 L 0.605469 -0.773438 Z "/>
</g>
<g id="glyph-0-7">
<path d="M 1.460938 -1.160156 L 1.460938 -1.410156 L 1.78125 -1.410156 C 1.8125 -1.410156 1.835938 -1.402344 1.851562 -1.390625 C 1.863281 -1.375 1.871094 -1.359375 1.871094 -1.339844 C 1.871094 -1.320312 1.863281 -1.304688 1.851562 -1.289062 C 1.835938 -1.277344 1.8125 -1.269531 1.78125 -1.269531 L 1.597656 -1.269531 L 1.597656 0.09375 C 1.597656 0.183594 1.578125 0.265625 1.539062 0.339844 C 1.511719 0.386719 1.46875 0.4375 1.40625 0.488281 C 1.347656 0.539062 1.292969 0.574219 1.242188 0.59375 C 1.191406 0.617188 1.125 0.628906 1.042969 0.628906 L 0.652344 0.628906 C 0.621094 0.628906 0.597656 0.621094 0.585938 0.609375 C 0.570312 0.597656 0.5625 0.582031 0.5625 0.558594 C 0.5625 0.539062 0.570312 0.523438 0.585938 0.507812 C 0.597656 0.496094 0.621094 0.488281 0.652344 0.488281 L 1.046875 0.492188 C 1.125 0.492188 1.199219 0.472656 1.265625 0.429688 C 1.328125 0.386719 1.382812 0.328125 1.425781 0.25 C 1.449219 0.203125 1.460938 0.144531 1.460938 0.0742188 L 1.460938 -0.335938 C 1.3125 -0.132812 1.125 -0.0351562 0.894531 -0.0351562 C 0.707031 -0.0351562 0.542969 -0.105469 0.40625 -0.242188 C 0.273438 -0.382812 0.203125 -0.550781 0.203125 -0.746094 C 0.203125 -0.945312 0.273438 -1.109375 0.40625 -1.25 C 0.542969 -1.390625 0.707031 -1.457031 0.894531 -1.457031 C 1.125 -1.457031 1.3125 -1.359375 1.460938 -1.160156 M 1.460938 -0.746094 C 1.460938 -0.90625 1.40625 -1.042969 1.292969 -1.152344 C 1.183594 -1.265625 1.054688 -1.320312 0.898438 -1.320312 C 0.746094 -1.320312 0.617188 -1.265625 0.507812 -1.152344 C 0.398438 -1.042969 0.339844 -0.90625 0.339844 -0.746094 C 0.339844 -0.585938 0.398438 -0.449219 0.507812 -0.339844 C 0.617188 -0.226562 0.746094 -0.171875 0.898438 -0.171875 C 1.054688 -0.171875 1.183594 -0.226562 1.292969 -0.339844 C 1.40625 -0.449219 1.460938 -0.585938 1.460938 -0.746094 Z "/>
</g>
<g id="glyph-0-8">
<path d="M 0.558594 -1.410156 L 0.558594 -1.203125 C 0.652344 -1.300781 0.738281 -1.367188 0.816406 -1.402344 C 0.894531 -1.441406 0.980469 -1.457031 1.078125 -1.457031 C 1.179688 -1.457031 1.277344 -1.4375 1.363281 -1.390625 C 1.421875 -1.359375 1.476562 -1.304688 1.527344 -1.230469 C 1.578125 -1.152344 1.601562 -1.078125 1.601562 -0.996094 L 1.601562 -0.136719 L 1.71875 -0.136719 C 1.75 -0.136719 1.773438 -0.128906 1.785156 -0.117188 C 1.800781 -0.105469 1.808594 -0.0898438 1.808594 -0.0703125 C 1.808594 -0.046875 1.800781 -0.03125 1.785156 -0.0195312 C 1.773438 -0.0078125 1.75 0 1.71875 0 L 1.351562 0 C 1.316406 0 1.292969 -0.0078125 1.277344 -0.0195312 C 1.265625 -0.03125 1.257812 -0.046875 1.257812 -0.0703125 C 1.257812 -0.0898438 1.265625 -0.105469 1.277344 -0.117188 C 1.292969 -0.128906 1.316406 -0.136719 1.351562 -0.136719 L 1.464844 -0.136719 L 1.464844 -0.976562 C 1.464844 -1.070312 1.429688 -1.152344 1.359375 -1.21875 C 1.289062 -1.285156 1.195312 -1.320312 1.074219 -1.320312 C 0.984375 -1.320312 0.90625 -1.300781 0.839844 -1.265625 C 0.773438 -1.230469 0.679688 -1.140625 0.558594 -0.996094 L 0.558594 -0.136719 L 0.710938 -0.136719 C 0.746094 -0.136719 0.769531 -0.128906 0.78125 -0.117188 C 0.796875 -0.105469 0.804688 -0.0898438 0.804688 -0.0703125 C 0.804688 -0.046875 0.796875 -0.03125 0.78125 -0.0195312 C 0.769531 -0.0078125 0.746094 0 0.710938 0 L 0.265625 0 C 0.234375 0 0.210938 -0.0078125 0.195312 -0.0195312 C 0.183594 -0.03125 0.175781 -0.046875 0.175781 -0.0703125 C 0.175781 -0.0898438 0.183594 -0.105469 0.195312 -0.117188 C 0.210938 -0.128906 0.234375 -0.136719 0.265625 -0.136719 L 0.421875 -0.136719 L 0.421875 -1.269531 L 0.304688 -1.269531 C 0.273438 -1.269531 0.25 -1.277344 0.234375 -1.289062 C 0.222656 -1.304688 0.214844 -1.320312 0.214844 -1.339844 C 0.214844 -1.359375 0.222656 -1.375 0.234375 -1.390625 C 0.25 -1.402344 0.273438 -1.410156 0.304688 -1.410156 Z "/>
</g>
<g id="glyph-0-9">
<path d="M 0.71875 -1.410156 L 1.460938 -1.410156 C 1.492188 -1.410156 1.515625 -1.402344 1.53125 -1.390625 C 1.546875 -1.375 1.550781 -1.359375 1.550781 -1.339844 C 1.550781 -1.320312 1.546875 -1.304688 1.53125 -1.289062 C 1.515625 -1.277344 1.492188 -1.269531 1.460938 -1.269531 L 0.71875 -1.269531 L 0.71875 -0.359375 C 0.71875 -0.28125 0.75 -0.214844 0.816406 -0.164062 C 0.878906 -0.109375 0.972656 -0.0820312 1.09375 -0.0820312 C 1.1875 -0.0820312 1.285156 -0.0976562 1.394531 -0.125 C 1.5 -0.152344 1.585938 -0.183594 1.644531 -0.21875 C 1.664062 -0.230469 1.683594 -0.238281 1.699219 -0.238281 C 1.714844 -0.238281 1.730469 -0.234375 1.742188 -0.21875 C 1.757812 -0.207031 1.761719 -0.1875 1.761719 -0.171875 C 1.761719 -0.15625 1.753906 -0.140625 1.742188 -0.125 C 1.707031 -0.0898438 1.621094 -0.0507812 1.488281 -0.0078125 C 1.355469 0.03125 1.226562 0.0546875 1.101562 0.0546875 C 0.945312 0.0546875 0.816406 0.015625 0.722656 -0.0585938 C 0.628906 -0.132812 0.582031 -0.234375 0.582031 -0.359375 L 0.582031 -1.269531 L 0.328125 -1.269531 C 0.296875 -1.269531 0.273438 -1.277344 0.257812 -1.289062 C 0.246094 -1.304688 0.238281 -1.320312 0.238281 -1.339844 C 0.238281 -1.359375 0.246094 -1.375 0.257812 -1.390625 C 0.273438 -1.402344 0.296875 -1.410156 0.328125 -1.410156 L 0.582031 -1.410156 L 0.582031 -1.8125 C 0.582031 -1.84375 0.585938 -1.867188 0.601562 -1.882812 C 0.613281 -1.898438 0.628906 -1.902344 0.648438 -1.902344 C 0.671875 -1.902344 0.6875 -1.898438 0.699219 -1.882812 C 0.710938 -1.867188 0.71875 -1.84375 0.71875 -1.8125 Z "/>
</g>
<g id="glyph-0-10">
<path d="M 1.570312 -1.269531 L 1.570312 -1.316406 C 1.570312 -1.351562 1.578125 -1.375 1.589844 -1.386719 C 1.601562 -1.402344 1.621094 -1.410156 1.640625 -1.410156 C 1.660156 -1.410156 1.675781 -1.402344 1.6875 -1.386719 C 1.703125 -1.375 1.707031 -1.351562 1.707031 -1.316406 L 1.707031 -1.007812 C 1.707031 -0.972656 1.699219 -0.949219 1.6875 -0.9375 C 1.675781 -0.921875 1.660156 -0.914062 1.640625 -0.914062 C 1.621094 -0.914062 1.605469 -0.921875 1.59375 -0.933594 C 1.582031 -0.945312 1.574219 -0.964844 1.570312 -0.996094 C 1.5625 -1.074219 1.511719 -1.144531 1.417969 -1.214844 C 1.324219 -1.285156 1.195312 -1.320312 1.035156 -1.320312 C 0.832031 -1.320312 0.679688 -1.257812 0.574219 -1.128906 C 0.46875 -1.003906 0.414062 -0.855469 0.414062 -0.691406 C 0.414062 -0.515625 0.472656 -0.371094 0.589844 -0.253906 C 0.707031 -0.140625 0.855469 -0.0820312 1.039062 -0.0820312 C 1.144531 -0.0820312 1.253906 -0.101562 1.363281 -0.140625 C 1.476562 -0.179688 1.574219 -0.242188 1.664062 -0.332031 C 1.6875 -0.351562 1.707031 -0.363281 1.722656 -0.363281 C 1.742188 -0.363281 1.757812 -0.355469 1.769531 -0.34375 C 1.78125 -0.332031 1.789062 -0.316406 1.789062 -0.296875 C 1.789062 -0.25 1.734375 -0.191406 1.625 -0.121094 C 1.449219 -0.00390625 1.25 0.0546875 1.035156 0.0546875 C 0.8125 0.0546875 0.632812 -0.015625 0.492188 -0.15625 C 0.347656 -0.296875 0.277344 -0.476562 0.277344 -0.691406 C 0.277344 -0.910156 0.351562 -1.09375 0.496094 -1.242188 C 0.640625 -1.386719 0.824219 -1.457031 1.042969 -1.457031 C 1.253906 -1.457031 1.429688 -1.394531 1.570312 -1.269531 Z "/>
</g>
<g id="glyph-0-11">
<path d="M 1.765625 -0.703125 C 1.765625 -0.492188 1.691406 -0.316406 1.539062 -0.167969 C 1.390625 -0.0195312 1.210938 0.0546875 1 0.0546875 C 0.789062 0.0546875 0.609375 -0.0195312 0.457031 -0.167969 C 0.308594 -0.316406 0.234375 -0.496094 0.234375 -0.703125 C 0.234375 -0.910156 0.308594 -1.089844 0.457031 -1.234375 C 0.609375 -1.382812 0.789062 -1.457031 1 -1.457031 C 1.210938 -1.457031 1.390625 -1.382812 1.539062 -1.238281 C 1.691406 -1.089844 1.765625 -0.910156 1.765625 -0.703125 M 1.625 -0.703125 C 1.625 -0.871094 1.566406 -1.019531 1.441406 -1.140625 C 1.320312 -1.257812 1.171875 -1.320312 1 -1.320312 C 0.824219 -1.320312 0.679688 -1.257812 0.554688 -1.136719 C 0.433594 -1.015625 0.371094 -0.871094 0.371094 -0.703125 C 0.371094 -0.53125 0.433594 -0.386719 0.554688 -0.265625 C 0.679688 -0.144531 0.824219 -0.0820312 1 -0.0820312 C 1.171875 -0.0820312 1.320312 -0.144531 1.441406 -0.265625 C 1.566406 -0.386719 1.625 -0.53125 1.625 -0.703125 Z "/>
</g>
<g id="glyph-0-12">
<path d="M 1.394531 0 L 1.394531 -0.195312 C 1.195312 -0.03125 0.984375 0.0546875 0.757812 0.0546875 C 0.59375 0.0546875 0.464844 0.0117188 0.371094 -0.0703125 C 0.28125 -0.152344 0.234375 -0.253906 0.234375 -0.375 C 0.234375 -0.507812 0.296875 -0.625 0.417969 -0.722656 C 0.539062 -0.820312 0.714844 -0.871094 0.949219 -0.871094 C 1.011719 -0.871094 1.082031 -0.867188 1.152344 -0.859375 C 1.226562 -0.851562 1.308594 -0.835938 1.394531 -0.820312 L 1.394531 -1.042969 C 1.394531 -1.117188 1.359375 -1.179688 1.289062 -1.238281 C 1.21875 -1.292969 1.117188 -1.320312 0.976562 -1.320312 C 0.871094 -1.320312 0.722656 -1.289062 0.527344 -1.226562 C 0.496094 -1.214844 0.472656 -1.210938 0.460938 -1.210938 C 0.445312 -1.210938 0.429688 -1.21875 0.417969 -1.230469 C 0.40625 -1.242188 0.398438 -1.257812 0.398438 -1.277344 C 0.398438 -1.296875 0.402344 -1.3125 0.414062 -1.324219 C 0.429688 -1.339844 0.492188 -1.363281 0.597656 -1.390625 C 0.769531 -1.433594 0.894531 -1.457031 0.984375 -1.457031 C 1.15625 -1.457031 1.289062 -1.414062 1.386719 -1.332031 C 1.484375 -1.246094 1.53125 -1.148438 1.53125 -1.042969 L 1.53125 -0.136719 L 1.714844 -0.136719 C 1.746094 -0.136719 1.769531 -0.128906 1.785156 -0.117188 C 1.800781 -0.105469 1.804688 -0.0898438 1.804688 -0.0703125 C 1.804688 -0.046875 1.800781 -0.03125 1.785156 -0.0195312 C 1.769531 -0.0078125 1.746094 0 1.714844 0 L 1.394531 0 M 1.394531 -0.679688 C 1.328125 -0.699219 1.261719 -0.710938 1.191406 -0.722656 C 1.117188 -0.730469 1.042969 -0.734375 0.964844 -0.734375 C 0.765625 -0.734375 0.609375 -0.691406 0.496094 -0.605469 C 0.414062 -0.542969 0.371094 -0.464844 0.371094 -0.375 C 0.371094 -0.292969 0.402344 -0.222656 0.46875 -0.167969 C 0.53125 -0.109375 0.625 -0.0820312 0.75 -0.0820312 C 0.867188 -0.0820312 0.976562 -0.105469 1.078125 -0.152344 C 1.179688 -0.199219 1.285156 -0.277344 1.394531 -0.378906 Z "/>
</g>
<g id="glyph-0-13">
<path d="M 0.761719 -1.765625 L 0.761719 -0.136719 L 1.671875 -0.136719 L 1.671875 -0.679688 C 1.671875 -0.710938 1.679688 -0.734375 1.691406 -0.75 C 1.703125 -0.765625 1.722656 -0.769531 1.742188 -0.769531 C 1.761719 -0.769531 1.777344 -0.765625 1.789062 -0.75 C 1.804688 -0.738281 1.808594 -0.714844 1.808594 -0.679688 L 1.808594 0 L 0.300781 0 C 0.265625 0 0.242188 -0.0078125 0.230469 -0.0195312 C 0.214844 -0.03125 0.207031 -0.046875 0.207031 -0.0703125 C 0.207031 -0.0898438 0.214844 -0.105469 0.230469 -0.117188 C 0.242188 -0.128906 0.265625 -0.136719 0.300781 -0.136719 L 0.625 -0.136719 L 0.625 -1.765625 L 0.300781 -1.765625 C 0.265625 -1.765625 0.242188 -1.773438 0.230469 -1.785156 C 0.214844 -1.796875 0.207031 -1.816406 0.207031 -1.835938 C 0.207031 -1.855469 0.214844 -1.875 0.230469 -1.886719 C 0.242188 -1.898438 0.265625 -1.902344 0.300781 -1.902344 L 1.089844 -1.902344 C 1.121094 -1.902344 1.144531 -1.898438 1.160156 -1.886719 C 1.171875 -1.875 1.179688 -1.855469 1.179688 -1.835938 C 1.179688 -1.816406 1.171875 -1.796875 1.160156 -1.785156 C 1.144531 -1.773438 1.121094 -1.765625 1.089844 -1.765625 Z "/>
</g>
<g id="glyph-0-14">
<path d="M 1.089844 -0.570312 L 0.933594 -0.570312 L 0.410156 -1.765625 L 0.382812 -1.765625 L 0.382812 -0.136719 L 0.632812 -0.136719 C 0.667969 -0.136719 0.691406 -0.128906 0.703125 -0.117188 C 0.71875 -0.105469 0.726562 -0.0898438 0.726562 -0.0703125 C 0.726562 -0.046875 0.71875 -0.03125 0.703125 -0.0195312 C 0.691406 -0.0078125 0.667969 0 0.632812 0 L 0.128906 0 C 0.0976562 0 0.0742188 -0.0078125 0.0585938 -0.0195312 C 0.046875 -0.03125 0.0390625 -0.046875 0.0390625 -0.0703125 C 0.0390625 -0.0898438 0.046875 -0.105469 0.0585938 -0.117188 C 0.0742188 -0.128906 0.0976562 -0.136719 0.128906 -0.136719 L 0.246094 -0.136719 L 0.246094 -1.765625 L 0.160156 -1.765625 C 0.125 -1.765625 0.105469 -1.773438 0.0898438 -1.785156 C 0.0742188 -1.796875 0.0703125 -1.816406 0.0703125 -1.835938 C 0.0703125 -1.855469 0.0742188 -1.875 0.0898438 -1.886719 C 0.105469 -1.898438 0.125 -1.902344 0.160156 -1.902344 L 0.496094 -1.902344 L 1.011719 -0.726562 L 1.523438 -1.902344 L 1.855469 -1.902344 C 1.890625 -1.902344 1.914062 -1.898438 1.929688 -1.886719 C 1.941406 -1.875 1.949219 -1.855469 1.949219 -1.835938 C 1.949219 -1.816406 1.941406 -1.796875 1.929688 -1.785156 C 1.914062 -1.773438 1.890625 -1.765625 1.855469 -1.765625 L 1.773438 -1.765625 L 1.773438 -0.136719 L 1.886719 -0.136719 C 1.921875 -0.136719 1.945312 -0.128906 1.957031 -0.117188 C 1.972656 -0.105469 1.980469 -0.0898438 1.980469 -0.0703125 C 1.980469 -0.046875 1.972656 -0.03125 1.957031 -0.0195312 C 1.945312 -0.0078125 1.921875 0 1.886719 0 L 1.382812 0 C 1.351562 0 1.328125 -0.0078125 1.3125 -0.0195312 C 1.296875 -0.03125 1.289062 -0.046875 1.289062 -0.0703125 C 1.289062 -0.0898438 1.296875 -0.105469 1.3125 -0.117188 C 1.324219 -0.128906 1.351562 -0.136719 1.382812 -0.136719 L 1.636719 -0.136719 L 1.636719 -1.765625 L 1.605469 -1.765625 Z "/>
</g>
<g id="glyph-1-0">
<path d="M 0.71875 -1.410156 L 1.460938 -1.410156 C 1.492188 -1.410156 1.515625 -1.402344 1.53125 -1.390625 C 1.546875 -1.375 1.550781 -1.359375 1.550781 -1.339844 C 1.550781 -1.320312 1.546875 -1.304688 1.53125 -1.289062 C 1.515625 -1.277344 1.492188 -1.269531 1.460938 -1.269531 L 0.71875 -1.269531 L 0.71875 -0.359375 C 0.71875 -0.28125 0.75 -0.214844 0.816406 -0.164062 C 0.878906 -0.109375 0.972656 -0.0820312 1.09375 -0.0820312 C 1.1875 -0.0820312 1.285156 -0.0976562 1.394531 -0.125 C 1.5 -0.152344 1.585938 -0.183594 1.644531 -0.21875 C 1.664062 -0.230469 1.683594 -0.238281 1.699219 -0.238281 C 1.714844 -0.238281 1.730469 -0.234375 1.742188 -0.21875 C 1.757812 -0.207031 1.761719 -0.1875 1.761719 -0.171875 C 1.761719 -0.15625 1.753906 -0.140625 1.742188 -0.125 C 1.707031 -0.0898438 1.621094 -0.0507812 1.488281 -0.0078125 C 1.355469 0.03125 1.226562 0.0546875 1.101562 0.0546875 C 0.945312 0.0546875 0.816406 0.015625 0.722656 -0.0585938 C 0.628906 -0.132812 0.582031 -0.234375 0.582031 -0.359375 L 0.582031 -1.269531 L 0.328125 -1.269531 C 0.296875 -1.269531 0.273438 -1.277344 0.257812 -1.289062 C 0.246094 -1.304688 0.238281 -1.320312 0.238281 -1.339844 C 0.238281 -1.359375 0.246094 -1.375 0.257812 -1.390625 C 0.273438 -1.402344 0.296875 -1.410156 0.328125 -1.410156 L 0.582031 -1.410156 L 0.582031 -1.8125 C 0.582031 -1.84375 0.585938 -1.867188 0.601562 -1.882812 C 0.613281 -1.898438 0.628906 -1.902344 0.648438 -1.902344 C 0.671875 -1.902344 0.6875 -1.898438 0.699219 -1.882812 C 0.710938 -1.867188 0.71875 -1.84375 0.71875 -1.8125 Z "/>
</g>
<g id="glyph-1-1">
<path d="M 1.765625 -0.703125 C 1.765625 -0.492188 1.691406 -0.316406 1.539062 -0.167969 C 1.390625 -0.0195312 1.210938 0.0546875 1 0.0546875 C 0.789062 0.0546875 0.609375 -0.0195312 0.457031 -0.167969 C 0.308594 -0.316406 0.234375 -0.496094 0.234375 -0.703125 C 0.234375 -0.910156 0.308594 -1.089844 0.457031 -1.234375 C 0.609375 -1.382812 0.789062 -1.457031 1 -1.457031 C 1.210938 -1.457031 1.390625 -1.382812 1.539062 -1.238281 C 1.691406 -1.089844 1.765625 -0.910156 1.765625 -0.703125 M 1.625 -0.703125 C 1.625 -0.871094 1.566406 -1.019531 1.441406 -1.140625 C 1.320312 -1.257812 1.171875 -1.320312 1 -1.320312 C 0.824219 -1.320312 0.679688 -1.257812 0.554688 -1.136719 C 0.433594 -1.015625 0.371094 -0.871094 0.371094 -0.703125 C 0.371094 -0.53125 0.433594 -0.386719 0.554688 -0.265625 C 0.679688 -0.144531 0.824219 -0.0820312 1 -0.0820312 C 1.171875 -0.0820312 1.320312 -0.144531 1.441406 -0.265625 C 1.566406 -0.386719 1.625 -0.53125 1.625 -0.703125 Z "/>
</g>
<g id="glyph-1-2">
</g>
<g id="glyph-1-3">
<path d="M 1.394531 0 L 1.394531 -0.195312 C 1.195312 -0.03125 0.984375 0.0546875 0.757812 0.0546875 C 0.59375 0.0546875 0.464844 0.0117188 0.371094 -0.0703125 C 0.28125 -0.152344 0.234375 -0.253906 0.234375 -0.375 C 0.234375 -0.507812 0.296875 -0.625 0.417969 -0.722656 C 0.539062 -0.820312 0.714844 -0.871094 0.949219 -0.871094 C 1.011719 -0.871094 1.082031 -0.867188 1.152344 -0.859375 C 1.226562 -0.851562 1.308594 -0.835938 1.394531 -0.820312 L 1.394531 -1.042969 C 1.394531 -1.117188 1.359375 -1.179688 1.289062 -1.238281 C 1.21875 -1.292969 1.117188 -1.320312 0.976562 -1.320312 C 0.871094 -1.320312 0.722656 -1.289062 0.527344 -1.226562 C 0.496094 -1.214844 0.472656 -1.210938 0.460938 -1.210938 C 0.445312 -1.210938 0.429688 -1.21875 0.417969 -1.230469 C 0.40625 -1.242188 0.398438 -1.257812 0.398438 -1.277344 C 0.398438 -1.296875 0.402344 -1.3125 0.414062 -1.324219 C 0.429688 -1.339844 0.492188 -1.363281 0.597656 -1.390625 C 0.769531 -1.433594 0.894531 -1.457031 0.984375 -1.457031 C 1.15625 -1.457031 1.289062 -1.414062 1.386719 -1.332031 C 1.484375 -1.246094 1.53125 -1.148438 1.53125 -1.042969 L 1.53125 -0.136719 L 1.714844 -0.136719 C 1.746094 -0.136719 1.769531 -0.128906 1.785156 -0.117188 C 1.800781 -0.105469 1.804688 -0.0898438 1.804688 -0.0703125 C 1.804688 -0.046875 1.800781 -0.03125 1.785156 -0.0195312 C 1.769531 -0.0078125 1.746094 0 1.714844 0 L 1.394531 0 M 1.394531 -0.679688 C 1.328125 -0.699219 1.261719 -0.710938 1.191406 -0.722656 C 1.117188 -0.730469 1.042969 -0.734375 0.964844 -0.734375 C 0.765625 -0.734375 0.609375 -0.691406 0.496094 -0.605469 C 0.414062 -0.542969 0.371094 -0.464844 0.371094 -0.375 C 0.371094 -0.292969 0.402344 -0.222656 0.46875 -0.167969 C 0.53125 -0.109375 0.625 -0.0820312 0.75 -0.0820312 C 0.867188 -0.0820312 0.976562 -0.105469 1.078125 -0.152344 C 1.179688 -0.199219 1.285156 -0.277344 1.394531 -0.378906 Z "/>
</g>
<g id="glyph-1-4">
<path d="M 0.835938 -1.410156 L 0.835938 -1.0625 C 1.015625 -1.226562 1.148438 -1.328125 1.234375 -1.375 C 1.324219 -1.421875 1.40625 -1.445312 1.480469 -1.445312 C 1.5625 -1.445312 1.636719 -1.417969 1.707031 -1.363281 C 1.777344 -1.308594 1.8125 -1.265625 1.8125 -1.238281 C 1.8125 -1.214844 1.804688 -1.199219 1.792969 -1.1875 C 1.777344 -1.171875 1.761719 -1.164062 1.742188 -1.164062 C 1.730469 -1.164062 1.722656 -1.167969 1.714844 -1.171875 C 1.707031 -1.175781 1.691406 -1.1875 1.671875 -1.207031 C 1.632812 -1.246094 1.601562 -1.273438 1.570312 -1.285156 C 1.542969 -1.300781 1.515625 -1.308594 1.488281 -1.308594 C 1.429688 -1.308594 1.359375 -1.28125 1.273438 -1.234375 C 1.191406 -1.1875 1.042969 -1.070312 0.835938 -0.886719 L 0.835938 -0.136719 L 1.441406 -0.136719 C 1.476562 -0.136719 1.5 -0.128906 1.511719 -0.117188 C 1.527344 -0.105469 1.535156 -0.0898438 1.535156 -0.0703125 C 1.535156 -0.046875 1.527344 -0.03125 1.511719 -0.0195312 C 1.5 -0.0078125 1.476562 0 1.441406 0 L 0.371094 0 C 0.335938 0 0.3125 -0.0078125 0.300781 -0.0195312 C 0.285156 -0.03125 0.277344 -0.046875 0.277344 -0.0664062 C 0.277344 -0.0859375 0.285156 -0.101562 0.296875 -0.113281 C 0.3125 -0.125 0.335938 -0.132812 0.371094 -0.132812 L 0.699219 -0.132812 L 0.699219 -1.269531 L 0.449219 -1.269531 C 0.414062 -1.269531 0.390625 -1.277344 0.378906 -1.289062 C 0.363281 -1.304688 0.355469 -1.320312 0.355469 -1.339844 C 0.355469 -1.359375 0.363281 -1.375 0.375 -1.390625 C 0.390625 -1.402344 0.414062 -1.410156 0.449219 -1.410156 Z "/>
</g>
<g id="glyph-1-5">
<path d="M 1.066406 -2.109375 L 1.066406 -1.757812 L 0.867188 -1.757812 L 0.867188 -2.109375 L 1.066406 -2.109375 M 1.074219 -1.410156 L 1.074219 -0.136719 L 1.609375 -0.136719 C 1.644531 -0.136719 1.667969 -0.128906 1.679688 -0.117188 C 1.695312 -0.105469 1.703125 -0.0898438 1.703125 -0.0703125 C 1.703125 -0.046875 1.695312 -0.03125 1.679688 -0.0195312 C 1.667969 -0.0078125 1.644531 0 1.609375 0 L 0.398438 0 C 0.367188 0 0.34375 -0.0078125 0.328125 -0.0195312 C 0.316406 -0.03125 0.308594 -0.046875 0.308594 -0.0703125 C 0.308594 -0.0898438 0.316406 -0.105469 0.328125 -0.117188 C 0.34375 -0.128906 0.367188 -0.136719 0.398438 -0.136719 L 0.9375 -0.136719 L 0.9375 -1.269531 L 0.539062 -1.269531 C 0.503906 -1.269531 0.480469 -1.277344 0.464844 -1.289062 C 0.453125 -1.304688 0.445312 -1.320312 0.445312 -1.339844 C 0.445312 -1.359375 0.453125 -1.375 0.464844 -1.390625 C 0.480469 -1.402344 0.503906 -1.410156 0.539062 -1.410156 Z "/>
</g>
<g id="glyph-1-6">
<path d="M 1.570312 -1.269531 L 1.570312 -1.316406 C 1.570312 -1.351562 1.578125 -1.375 1.589844 -1.386719 C 1.601562 -1.402344 1.621094 -1.410156 1.640625 -1.410156 C 1.660156 -1.410156 1.675781 -1.402344 1.6875 -1.386719 C 1.703125 -1.375 1.707031 -1.351562 1.707031 -1.316406 L 1.707031 -1.007812 C 1.707031 -0.972656 1.699219 -0.949219 1.6875 -0.9375 C 1.675781 -0.921875 1.660156 -0.914062 1.640625 -0.914062 C 1.621094 -0.914062 1.605469 -0.921875 1.59375 -0.933594 C 1.582031 -0.945312 1.574219 -0.964844 1.570312 -0.996094 C 1.5625 -1.074219 1.511719 -1.144531 1.417969 -1.214844 C 1.324219 -1.285156 1.195312 -1.320312 1.035156 -1.320312 C 0.832031 -1.320312 0.679688 -1.257812 0.574219 -1.128906 C 0.46875 -1.003906 0.414062 -0.855469 0.414062 -0.691406 C 0.414062 -0.515625 0.472656 -0.371094 0.589844 -0.253906 C 0.707031 -0.140625 0.855469 -0.0820312 1.039062 -0.0820312 C 1.144531 -0.0820312 1.253906 -0.101562 1.363281 -0.140625 C 1.476562 -0.179688 1.574219 -0.242188 1.664062 -0.332031 C 1.6875 -0.351562 1.707031 -0.363281 1.722656 -0.363281 C 1.742188 -0.363281 1.757812 -0.355469 1.769531 -0.34375 C 1.78125 -0.332031 1.789062 -0.316406 1.789062 -0.296875 C 1.789062 -0.25 1.734375 -0.191406 1.625 -0.121094 C 1.449219 -0.00390625 1.25 0.0546875 1.035156 0.0546875 C 0.8125 0.0546875 0.632812 -0.015625 0.492188 -0.15625 C 0.347656 -0.296875 0.277344 -0.476562 0.277344 -0.691406 C 0.277344 -0.910156 0.351562 -1.09375 0.496094 -1.242188 C 0.640625 -1.386719 0.824219 -1.457031 1.042969 -1.457031 C 1.253906 -1.457031 1.429688 -1.394531 1.570312 -1.269531 Z "/>
</g>
<g id="glyph-1-7">
<path d="M 0.550781 -2.042969 L 0.550781 -1.203125 C 0.636719 -1.296875 0.71875 -1.363281 0.800781 -1.402344 C 0.878906 -1.4375 0.96875 -1.457031 1.066406 -1.457031 C 1.175781 -1.457031 1.265625 -1.441406 1.339844 -1.402344 C 1.414062 -1.363281 1.476562 -1.308594 1.523438 -1.230469 C 1.574219 -1.152344 1.601562 -1.070312 1.601562 -0.984375 L 1.601562 -0.136719 L 1.753906 -0.136719 C 1.785156 -0.136719 1.808594 -0.128906 1.824219 -0.117188 C 1.835938 -0.105469 1.84375 -0.0898438 1.84375 -0.0703125 C 1.84375 -0.046875 1.835938 -0.03125 1.824219 -0.0195312 C 1.808594 -0.0078125 1.785156 0 1.753906 0 L 1.308594 0 C 1.273438 0 1.25 -0.0078125 1.238281 -0.0195312 C 1.222656 -0.03125 1.214844 -0.046875 1.214844 -0.0703125 C 1.214844 -0.0898438 1.222656 -0.105469 1.238281 -0.117188 C 1.25 -0.128906 1.273438 -0.136719 1.308594 -0.136719 L 1.460938 -0.136719 L 1.460938 -0.976562 C 1.460938 -1.074219 1.425781 -1.15625 1.355469 -1.222656 C 1.285156 -1.289062 1.183594 -1.320312 1.058594 -1.320312 C 0.957031 -1.320312 0.871094 -1.296875 0.800781 -1.25 C 0.75 -1.214844 0.667969 -1.132812 0.550781 -1.003906 L 0.550781 -0.136719 L 0.703125 -0.136719 C 0.738281 -0.136719 0.761719 -0.128906 0.773438 -0.117188 C 0.789062 -0.105469 0.796875 -0.0898438 0.796875 -0.0703125 C 0.796875 -0.046875 0.789062 -0.03125 0.773438 -0.0195312 C 0.761719 -0.0078125 0.738281 0 0.703125 0 L 0.257812 0 C 0.226562 0 0.203125 -0.0078125 0.1875 -0.0195312 C 0.175781 -0.03125 0.167969 -0.046875 0.167969 -0.0703125 C 0.167969 -0.0898438 0.175781 -0.105469 0.1875 -0.117188 C 0.203125 -0.128906 0.226562 -0.136719 0.257812 -0.136719 L 0.414062 -0.136719 L 0.414062 -1.902344 L 0.230469 -1.902344 C 0.195312 -1.902344 0.171875 -1.910156 0.160156 -1.921875 C 0.144531 -1.9375 0.136719 -1.953125 0.136719 -1.972656 C 0.136719 -1.992188 0.144531 -2.011719 0.160156 -2.023438 C 0.171875 -2.035156 0.195312 -2.042969 0.230469 -2.042969 Z "/>
</g>
<g id="glyph-1-8">
<path d="M 1.453125 -1.320312 C 1.453125 -1.351562 1.457031 -1.375 1.472656 -1.386719 C 1.484375 -1.402344 1.5 -1.410156 1.519531 -1.410156 C 1.539062 -1.410156 1.558594 -1.402344 1.570312 -1.386719 C 1.582031 -1.375 1.589844 -1.351562 1.589844 -1.316406 L 1.589844 -1.082031 C 1.589844 -1.050781 1.582031 -1.027344 1.570312 -1.011719 C 1.558594 -1 1.539062 -0.992188 1.519531 -0.992188 C 1.5 -0.992188 1.484375 -0.996094 1.472656 -1.007812 C 1.460938 -1.019531 1.453125 -1.039062 1.453125 -1.066406 C 1.445312 -1.132812 1.410156 -1.1875 1.351562 -1.230469 C 1.261719 -1.289062 1.144531 -1.320312 0.996094 -1.320312 C 0.84375 -1.320312 0.726562 -1.289062 0.640625 -1.226562 C 0.578125 -1.179688 0.546875 -1.128906 0.546875 -1.070312 C 0.546875 -1.007812 0.582031 -0.953125 0.660156 -0.90625 C 0.710938 -0.878906 0.808594 -0.855469 0.957031 -0.839844 C 1.144531 -0.816406 1.277344 -0.792969 1.351562 -0.769531 C 1.457031 -0.730469 1.535156 -0.675781 1.585938 -0.609375 C 1.636719 -0.542969 1.664062 -0.46875 1.664062 -0.390625 C 1.664062 -0.277344 1.609375 -0.171875 1.496094 -0.0820312 C 1.382812 0.0078125 1.21875 0.0546875 1.003906 0.0546875 C 0.789062 0.0546875 0.613281 0 0.472656 -0.109375 C 0.472656 -0.0742188 0.472656 -0.0507812 0.46875 -0.0390625 C 0.460938 -0.0273438 0.453125 -0.0195312 0.445312 -0.0117188 C 0.433594 -0.00390625 0.417969 0 0.40625 0 C 0.386719 0 0.371094 -0.0078125 0.355469 -0.0195312 C 0.34375 -0.0351562 0.335938 -0.0585938 0.335938 -0.0898438 L 0.335938 -0.371094 C 0.335938 -0.40625 0.34375 -0.429688 0.355469 -0.441406 C 0.367188 -0.457031 0.382812 -0.464844 0.40625 -0.464844 C 0.425781 -0.464844 0.441406 -0.457031 0.453125 -0.445312 C 0.46875 -0.429688 0.476562 -0.410156 0.476562 -0.390625 C 0.476562 -0.339844 0.488281 -0.296875 0.511719 -0.265625 C 0.550781 -0.210938 0.609375 -0.167969 0.695312 -0.132812 C 0.777344 -0.101562 0.878906 -0.0820312 1 -0.0820312 C 1.175781 -0.0820312 1.308594 -0.117188 1.394531 -0.183594 C 1.484375 -0.25 1.527344 -0.320312 1.527344 -0.390625 C 1.527344 -0.476562 1.484375 -0.542969 1.394531 -0.59375 C 1.304688 -0.648438 1.175781 -0.679688 1.007812 -0.699219 C 0.835938 -0.714844 0.714844 -0.738281 0.640625 -0.765625 C 0.566406 -0.792969 0.511719 -0.835938 0.46875 -0.894531 C 0.425781 -0.949219 0.40625 -1.011719 0.40625 -1.074219 C 0.40625 -1.191406 0.464844 -1.285156 0.578125 -1.355469 C 0.695312 -1.425781 0.832031 -1.457031 0.992188 -1.457031 C 1.179688 -1.457031 1.332031 -1.414062 1.453125 -1.320312 Z "/>
</g>
<g id="glyph-1-9">
<path d="M 1.738281 -0.671875 L 0.347656 -0.671875 C 0.371094 -0.496094 0.445312 -0.351562 0.570312 -0.246094 C 0.691406 -0.136719 0.847656 -0.0820312 1.03125 -0.0820312 C 1.132812 -0.0820312 1.238281 -0.101562 1.351562 -0.132812 C 1.460938 -0.167969 1.554688 -0.210938 1.625 -0.265625 C 1.644531 -0.28125 1.664062 -0.292969 1.679688 -0.292969 C 1.695312 -0.292969 1.710938 -0.285156 1.722656 -0.269531 C 1.738281 -0.257812 1.742188 -0.242188 1.742188 -0.222656 C 1.742188 -0.203125 1.734375 -0.1875 1.71875 -0.167969 C 1.664062 -0.113281 1.574219 -0.0625 1.441406 -0.015625 C 1.308594 0.03125 1.171875 0.0546875 1.03125 0.0546875 C 0.796875 0.0546875 0.601562 -0.0234375 0.445312 -0.175781 C 0.285156 -0.332031 0.207031 -0.515625 0.207031 -0.734375 C 0.207031 -0.933594 0.28125 -1.101562 0.429688 -1.246094 C 0.574219 -1.386719 0.757812 -1.457031 0.976562 -1.457031 C 1.199219 -1.457031 1.382812 -1.386719 1.527344 -1.238281 C 1.671875 -1.09375 1.742188 -0.90625 1.738281 -0.671875 M 1.601562 -0.808594 C 1.574219 -0.960938 1.503906 -1.085938 1.386719 -1.179688 C 1.273438 -1.273438 1.132812 -1.320312 0.976562 -1.320312 C 0.816406 -1.320312 0.679688 -1.273438 0.5625 -1.179688 C 0.449219 -1.085938 0.375 -0.964844 0.347656 -0.808594 Z "/>
</g>
<g id="glyph-1-10">
<path d="M 0.910156 -1.269531 L 0.910156 -0.136719 L 1.511719 -0.136719 C 1.542969 -0.136719 1.566406 -0.128906 1.582031 -0.117188 C 1.59375 -0.105469 1.601562 -0.0898438 1.601562 -0.0703125 C 1.601562 -0.046875 1.59375 -0.03125 1.582031 -0.0195312 C 1.566406 -0.0078125 1.542969 0 1.511719 0 L 0.441406 0 C 0.410156 0 0.386719 -0.0078125 0.371094 -0.0195312 C 0.355469 -0.03125 0.351562 -0.046875 0.351562 -0.0703125 C 0.351562 -0.0898438 0.355469 -0.105469 0.371094 -0.117188 C 0.386719 -0.128906 0.410156 -0.136719 0.441406 -0.136719 L 0.769531 -0.136719 L 0.769531 -1.269531 L 0.476562 -1.269531 C 0.441406 -1.269531 0.417969 -1.277344 0.40625 -1.289062 C 0.390625 -1.304688 0.382812 -1.320312 0.382812 -1.339844 C 0.382812 -1.359375 0.390625 -1.375 0.40625 -1.390625 C 0.417969 -1.402344 0.441406 -1.410156 0.476562 -1.410156 L 0.769531 -1.410156 L 0.769531 -1.617188 C 0.769531 -1.730469 0.816406 -1.832031 0.910156 -1.914062 C 1.003906 -2 1.128906 -2.042969 1.28125 -2.042969 C 1.410156 -2.042969 1.550781 -2.03125 1.695312 -2.007812 C 1.75 -2 1.785156 -1.988281 1.796875 -1.976562 C 1.808594 -1.964844 1.8125 -1.949219 1.8125 -1.929688 C 1.8125 -1.910156 1.804688 -1.894531 1.792969 -1.878906 C 1.78125 -1.867188 1.761719 -1.863281 1.742188 -1.863281 C 1.734375 -1.863281 1.71875 -1.863281 1.699219 -1.867188 C 1.535156 -1.890625 1.394531 -1.902344 1.28125 -1.902344 C 1.164062 -1.902344 1.070312 -1.875 1.007812 -1.816406 C 0.941406 -1.757812 0.910156 -1.691406 0.910156 -1.617188 L 0.910156 -1.410156 L 1.550781 -1.410156 C 1.582031 -1.410156 1.605469 -1.402344 1.621094 -1.390625 C 1.632812 -1.375 1.640625 -1.359375 1.640625 -1.339844 C 1.640625 -1.320312 1.632812 -1.304688 1.621094 -1.289062 C 1.605469 -1.277344 1.582031 -1.269531 1.550781 -1.269531 Z "/>
</g>
<g id="glyph-1-11">
<path d="M 1.070312 -2.042969 L 1.070312 -0.136719 L 1.605469 -0.136719 C 1.640625 -0.136719 1.664062 -0.128906 1.679688 -0.117188 C 1.691406 -0.105469 1.699219 -0.0898438 1.699219 -0.0703125 C 1.699219 -0.046875 1.691406 -0.03125 1.679688 -0.0195312 C 1.664062 -0.0078125 1.640625 0 1.605469 0 L 0.394531 0 C 0.363281 0 0.339844 -0.0078125 0.324219 -0.0195312 C 0.3125 -0.03125 0.304688 -0.046875 0.304688 -0.0703125 C 0.304688 -0.0898438 0.3125 -0.105469 0.324219 -0.117188 C 0.339844 -0.128906 0.363281 -0.136719 0.394531 -0.136719 L 0.933594 -0.136719 L 0.933594 -1.902344 L 0.539062 -1.902344 C 0.507812 -1.902344 0.484375 -1.910156 0.46875 -1.921875 C 0.453125 -1.9375 0.445312 -1.953125 0.445312 -1.972656 C 0.445312 -1.992188 0.453125 -2.011719 0.46875 -2.023438 C 0.480469 -2.035156 0.503906 -2.042969 0.539062 -2.042969 Z "/>
</g>
<g id="glyph-1-12">
<path d="M 1.46875 0 L 1.46875 -0.199219 C 1.28125 -0.03125 1.078125 0.0546875 0.863281 0.0546875 C 0.730469 0.0546875 0.628906 0.015625 0.558594 -0.0546875 C 0.46875 -0.152344 0.421875 -0.261719 0.421875 -0.390625 L 0.421875 -1.269531 L 0.238281 -1.269531 C 0.207031 -1.269531 0.183594 -1.277344 0.167969 -1.289062 C 0.15625 -1.304688 0.148438 -1.320312 0.148438 -1.339844 C 0.148438 -1.359375 0.15625 -1.375 0.167969 -1.390625 C 0.183594 -1.402344 0.207031 -1.410156 0.238281 -1.410156 L 0.558594 -1.410156 L 0.558594 -0.390625 C 0.558594 -0.300781 0.589844 -0.226562 0.644531 -0.167969 C 0.699219 -0.113281 0.769531 -0.0820312 0.855469 -0.0820312 C 1.078125 -0.0820312 1.28125 -0.183594 1.46875 -0.390625 L 1.46875 -1.269531 L 1.214844 -1.269531 C 1.183594 -1.269531 1.160156 -1.277344 1.144531 -1.289062 C 1.132812 -1.304688 1.125 -1.320312 1.125 -1.339844 C 1.125 -1.359375 1.132812 -1.375 1.144531 -1.390625 C 1.160156 -1.402344 1.183594 -1.410156 1.214844 -1.410156 L 1.605469 -1.410156 L 1.605469 -0.136719 L 1.71875 -0.136719 C 1.753906 -0.136719 1.777344 -0.128906 1.789062 -0.117188 C 1.804688 -0.105469 1.8125 -0.0898438 1.8125 -0.0703125 C 1.8125 -0.046875 1.804688 -0.03125 1.789062 -0.0195312 C 1.777344 -0.0078125 1.753906 0 1.71875 0 Z "/>
</g>
<g id="glyph-1-13">
<path d="M 1.460938 -1.160156 L 1.460938 -1.410156 L 1.78125 -1.410156 C 1.8125 -1.410156 1.835938 -1.402344 1.851562 -1.390625 C 1.863281 -1.375 1.871094 -1.359375 1.871094 -1.339844 C 1.871094 -1.320312 1.863281 -1.304688 1.851562 -1.289062 C 1.835938 -1.277344 1.8125 -1.269531 1.78125 -1.269531 L 1.597656 -1.269531 L 1.597656 0.09375 C 1.597656 0.183594 1.578125 0.265625 1.539062 0.339844 C 1.511719 0.386719 1.46875 0.4375 1.40625 0.488281 C 1.347656 0.539062 1.292969 0.574219 1.242188 0.59375 C 1.191406 0.617188 1.125 0.628906 1.042969 0.628906 L 0.652344 0.628906 C 0.621094 0.628906 0.597656 0.621094 0.585938 0.609375 C 0.570312 0.597656 0.5625 0.582031 0.5625 0.558594 C 0.5625 0.539062 0.570312 0.523438 0.585938 0.507812 C 0.597656 0.496094 0.621094 0.488281 0.652344 0.488281 L 1.046875 0.492188 C 1.125 0.492188 1.199219 0.472656 1.265625 0.429688 C 1.328125 0.386719 1.382812 0.328125 1.425781 0.25 C 1.449219 0.203125 1.460938 0.144531 1.460938 0.0742188 L 1.460938 -0.335938 C 1.3125 -0.132812 1.125 -0.0351562 0.894531 -0.0351562 C 0.707031 -0.0351562 0.542969 -0.105469 0.40625 -0.242188 C 0.273438 -0.382812 0.203125 -0.550781 0.203125 -0.746094 C 0.203125 -0.945312 0.273438 -1.109375 0.40625 -1.25 C 0.542969 -1.390625 0.707031 -1.457031 0.894531 -1.457031 C 1.125 -1.457031 1.3125 -1.359375 1.460938 -1.160156 M 1.460938 -0.746094 C 1.460938 -0.90625 1.40625 -1.042969 1.292969 -1.152344 C 1.183594 -1.265625 1.054688 -1.320312 0.898438 -1.320312 C 0.746094 -1.320312 0.617188 -1.265625 0.507812 -1.152344 C 0.398438 -1.042969 0.339844 -0.90625 0.339844 -0.746094 C 0.339844 -0.585938 0.398438 -0.449219 0.507812 -0.339844 C 0.617188 -0.226562 0.746094 -0.171875 0.898438 -0.171875 C 1.054688 -0.171875 1.183594 -0.226562 1.292969 -0.339844 C 1.40625 -0.449219 1.460938 -0.585938 1.460938 -0.746094 Z "/>
</g>
<g id="glyph-2-0">
<path d="M 1.394531 0 L 1.394531 -0.195312 C 1.195312 -0.03125 0.984375 0.0546875 0.757812 0.0546875 C 0.59375 0.0546875 0.464844 0.0117188 0.371094 -0.0703125 C 0.28125 -0.152344 0.234375 -0.253906 0.234375 -0.375 C 0.234375 -0.507812 0.296875 -0.625 0.417969 -0.722656 C 0.539062 -0.820312 0.714844 -0.871094 0.949219 -0.871094 C 1.011719 -0.871094 1.082031 -0.867188 1.152344 -0.859375 C 1.226562 -0.851562 1.308594 -0.835938 1.394531 -0.820312 L 1.394531 -1.042969 C 1.394531 -1.117188 1.359375 -1.179688 1.289062 -1.238281 C 1.21875 -1.292969 1.117188 -1.320312 0.976562 -1.320312 C 0.871094 -1.320312 0.722656 -1.289062 0.527344 -1.226562 C 0.496094 -1.214844 0.472656 -1.210938 0.460938 -1.210938 C 0.445312 -1.210938 0.429688 -1.21875 0.417969 -1.230469 C 0.40625 -1.242188 0.398438 -1.257812 0.398438 -1.277344 C 0.398438 -1.296875 0.402344 -1.3125 0.414062 -1.324219 C 0.429688 -1.339844 0.492188 -1.363281 0.597656 -1.390625 C 0.769531 -1.433594 0.894531 -1.457031 0.984375 -1.457031 C 1.15625 -1.457031 1.289062 -1.414062 1.386719 -1.332031 C 1.484375 -1.246094 1.53125 -1.148438 1.53125 -1.042969 L 1.53125 -0.136719 L 1.714844 -0.136719 C 1.746094 -0.136719 1.769531 -0.128906 1.785156 -0.117188 C 1.800781 -0.105469 1.804688 -0.0898438 1.804688 -0.0703125 C 1.804688 -0.046875 1.800781 -0.03125 1.785156 -0.0195312 C 1.769531 -0.0078125 1.746094 0 1.714844 0 L 1.394531 0 M 1.394531 -0.679688 C 1.328125 -0.699219 1.261719 -0.710938 1.191406 -0.722656 C 1.117188 -0.730469 1.042969 -0.734375 0.964844 -0.734375 C 0.765625 -0.734375 0.609375 -0.691406 0.496094 -0.605469 C 0.414062 -0.542969 0.371094 -0.464844 0.371094 -0.375 C 0.371094 -0.292969 0.402344 -0.222656 0.46875 -0.167969 C 0.53125 -0.109375 0.625 -0.0820312 0.75 -0.0820312 C 0.867188 -0.0820312 0.976562 -0.105469 1.078125 -0.152344 C 1.179688 -0.199219 1.285156 -0.277344 1.394531 -0.378906 Z "/>
</g>
<g id="glyph-2-1">
</g>
<g id="glyph-2-2">
<path d="M 0.71875 -1.410156 L 1.460938 -1.410156 C 1.492188 -1.410156 1.515625 -1.402344 1.53125 -1.390625 C 1.546875 -1.375 1.550781 -1.359375 1.550781 -1.339844 C 1.550781 -1.320312 1.546875 -1.304688 1.53125 -1.289062 C 1.515625 -1.277344 1.492188 -1.269531 1.460938 -1.269531 L 0.71875 -1.269531 L 0.71875 -0.359375 C 0.71875 -0.28125 0.75 -0.214844 0.816406 -0.164062 C 0.878906 -0.109375 0.972656 -0.0820312 1.09375 -0.0820312 C 1.1875 -0.0820312 1.285156 -0.0976562 1.394531 -0.125 C 1.5 -0.152344 1.585938 -0.183594 1.644531 -0.21875 C 1.664062 -0.230469 1.683594 -0.238281 1.699219 -0.238281 C 1.714844 -0.238281 1.730469 -0.234375 1.742188 -0.21875 C 1.757812 -0.207031 1.761719 -0.1875 1.761719 -0.171875 C 1.761719 -0.15625 1.753906 -0.140625 1.742188 -0.125 C 1.707031 -0.0898438 1.621094 -0.0507812 1.488281 -0.0078125 C 1.355469 0.03125 1.226562 0.0546875 1.101562 0.0546875 C 0.945312 0.0546875 0.816406 0.015625 0.722656 -0.0585938 C 0.628906 -0.132812 0.582031 -0.234375 0.582031 -0.359375 L 0.582031 -1.269531 L 0.328125 -1.269531 C 0.296875 -1.269531 0.273438 -1.277344 0.257812 -1.289062 C 0.246094 -1.304688 0.238281 -1.320312 0.238281 -1.339844 C 0.238281 -1.359375 0.246094 -1.375 0.257812 -1.390625 C 0.273438 -1.402344 0.296875 -1.410156 0.328125 -1.410156 L 0.582031 -1.410156 L 0.582031 -1.8125 C 0.582031 -1.84375 0.585938 -1.867188 0.601562 -1.882812 C 0.613281 -1.898438 0.628906 -1.902344 0.648438 -1.902344 C 0.671875 -1.902344 0.6875 -1.898438 0.699219 -1.882812 C 0.710938 -1.867188 0.71875 -1.84375 0.71875 -1.8125 Z "/>
</g>
<g id="glyph-2-3">
<path d="M 1.765625 -0.703125 C 1.765625 -0.492188 1.691406 -0.316406 1.539062 -0.167969 C 1.390625 -0.0195312 1.210938 0.0546875 1 0.0546875 C 0.789062 0.0546875 0.609375 -0.0195312 0.457031 -0.167969 C 0.308594 -0.316406 0.234375 -0.496094 0.234375 -0.703125 C 0.234375 -0.910156 0.308594 -1.089844 0.457031 -1.234375 C 0.609375 -1.382812 0.789062 -1.457031 1 -1.457031 C 1.210938 -1.457031 1.390625 -1.382812 1.539062 -1.238281 C 1.691406 -1.089844 1.765625 -0.910156 1.765625 -0.703125 M 1.625 -0.703125 C 1.625 -0.871094 1.566406 -1.019531 1.441406 -1.140625 C 1.320312 -1.257812 1.171875 -1.320312 1 -1.320312 C 0.824219 -1.320312 0.679688 -1.257812 0.554688 -1.136719 C 0.433594 -1.015625 0.371094 -0.871094 0.371094 -0.703125 C 0.371094 -0.53125 0.433594 -0.386719 0.554688 -0.265625 C 0.679688 -0.144531 0.824219 -0.0820312 1 -0.0820312 C 1.171875 -0.0820312 1.320312 -0.144531 1.441406 -0.265625 C 1.566406 -0.386719 1.625 -0.53125 1.625 -0.703125 Z "/>
</g>
<g id="glyph-2-4">
<path d="M 1.070312 -2.042969 L 1.070312 -0.136719 L 1.605469 -0.136719 C 1.640625 -0.136719 1.664062 -0.128906 1.679688 -0.117188 C 1.691406 -0.105469 1.699219 -0.0898438 1.699219 -0.0703125 C 1.699219 -0.046875 1.691406 -0.03125 1.679688 -0.0195312 C 1.664062 -0.0078125 1.640625 0 1.605469 0 L 0.394531 0 C 0.363281 0 0.339844 -0.0078125 0.324219 -0.0195312 C 0.3125 -0.03125 0.304688 -0.046875 0.304688 -0.0703125 C 0.304688 -0.0898438 0.3125 -0.105469 0.324219 -0.117188 C 0.339844 -0.128906 0.363281 -0.136719 0.394531 -0.136719 L 0.933594 -0.136719 L 0.933594 -1.902344 L 0.539062 -1.902344 C 0.507812 -1.902344 0.484375 -1.910156 0.46875 -1.921875 C 0.453125 -1.9375 0.445312 -1.953125 0.445312 -1.972656 C 0.445312 -1.992188 0.453125 -2.011719 0.46875 -2.023438 C 0.480469 -2.035156 0.503906 -2.042969 0.539062 -2.042969 Z "/>
</g>
<g id="glyph-2-5">
<path d="M 1.699219 -1.039062 L 1.699219 -0.84375 L 0.304688 -0.84375 L 0.304688 -1.039062 Z "/>
</g>
<g id="glyph-2-6">
<path d="M 1.46875 0 L 1.46875 -0.199219 C 1.28125 -0.03125 1.078125 0.0546875 0.863281 0.0546875 C 0.730469 0.0546875 0.628906 0.015625 0.558594 -0.0546875 C 0.46875 -0.152344 0.421875 -0.261719 0.421875 -0.390625 L 0.421875 -1.269531 L 0.238281 -1.269531 C 0.207031 -1.269531 0.183594 -1.277344 0.167969 -1.289062 C 0.15625 -1.304688 0.148438 -1.320312 0.148438 -1.339844 C 0.148438 -1.359375 0.15625 -1.375 0.167969 -1.390625 C 0.183594 -1.402344 0.207031 -1.410156 0.238281 -1.410156 L 0.558594 -1.410156 L 0.558594 -0.390625 C 0.558594 -0.300781 0.589844 -0.226562 0.644531 -0.167969 C 0.699219 -0.113281 0.769531 -0.0820312 0.855469 -0.0820312 C 1.078125 -0.0820312 1.28125 -0.183594 1.46875 -0.390625 L 1.46875 -1.269531 L 1.214844 -1.269531 C 1.183594 -1.269531 1.160156 -1.277344 1.144531 -1.289062 C 1.132812 -1.304688 1.125 -1.320312 1.125 -1.339844 C 1.125 -1.359375 1.132812 -1.375 1.144531 -1.390625 C 1.160156 -1.402344 1.183594 -1.410156 1.214844 -1.410156 L 1.605469 -1.410156 L 1.605469 -0.136719 L 1.71875 -0.136719 C 1.753906 -0.136719 1.777344 -0.128906 1.789062 -0.117188 C 1.804688 -0.105469 1.8125 -0.0898438 1.8125 -0.0703125 C 1.8125 -0.046875 1.804688 -0.03125 1.789062 -0.0195312 C 1.777344 -0.0078125 1.753906 0 1.71875 0 Z "/>
</g>
<g id="glyph-2-7">
<path d="M 1.453125 -1.320312 C 1.453125 -1.351562 1.457031 -1.375 1.472656 -1.386719 C 1.484375 -1.402344 1.5 -1.410156 1.519531 -1.410156 C 1.539062 -1.410156 1.558594 -1.402344 1.570312 -1.386719 C 1.582031 -1.375 1.589844 -1.351562 1.589844 -1.316406 L 1.589844 -1.082031 C 1.589844 -1.050781 1.582031 -1.027344 1.570312 -1.011719 C 1.558594 -1 1.539062 -0.992188 1.519531 -0.992188 C 1.5 -0.992188 1.484375 -0.996094 1.472656 -1.007812 C 1.460938 -1.019531 1.453125 -1.039062 1.453125 -1.066406 C 1.445312 -1.132812 1.410156 -1.1875 1.351562 -1.230469 C 1.261719 -1.289062 1.144531 -1.320312 0.996094 -1.320312 C 0.84375 -1.320312 0.726562 -1.289062 0.640625 -1.226562 C 0.578125 -1.179688 0.546875 -1.128906 0.546875 -1.070312 C 0.546875 -1.007812 0.582031 -0.953125 0.660156 -0.90625 C 0.710938 -0.878906 0.808594 -0.855469 0.957031 -0.839844 C 1.144531 -0.816406 1.277344 -0.792969 1.351562 -0.769531 C 1.457031 -0.730469 1.535156 -0.675781 1.585938 -0.609375 C 1.636719 -0.542969 1.664062 -0.46875 1.664062 -0.390625 C 1.664062 -0.277344 1.609375 -0.171875 1.496094 -0.0820312 C 1.382812 0.0078125 1.21875 0.0546875 1.003906 0.0546875 C 0.789062 0.0546875 0.613281 0 0.472656 -0.109375 C 0.472656 -0.0742188 0.472656 -0.0507812 0.46875 -0.0390625 C 0.460938 -0.0273438 0.453125 -0.0195312 0.445312 -0.0117188 C 0.433594 -0.00390625 0.417969 0 0.40625 0 C 0.386719 0 0.371094 -0.0078125 0.355469 -0.0195312 C 0.34375 -0.0351562 0.335938 -0.0585938 0.335938 -0.0898438 L 0.335938 -0.371094 C 0.335938 -0.40625 0.34375 -0.429688 0.355469 -0.441406 C 0.367188 -0.457031 0.382812 -0.464844 0.40625 -0.464844 C 0.425781 -0.464844 0.441406 -0.457031 0.453125 -0.445312 C 0.46875 -0.429688 0.476562 -0.410156 0.476562 -0.390625 C 0.476562 -0.339844 0.488281 -0.296875 0.511719 -0.265625 C 0.550781 -0.210938 0.609375 -0.167969 0.695312 -0.132812 C 0.777344 -0.101562 0.878906 -0.0820312 1 -0.0820312 C 1.175781 -0.0820312 1.308594 -0.117188 1.394531 -0.183594 C 1.484375 -0.25 1.527344 -0.320312 1.527344 -0.390625 C 1.527344 -0.476562 1.484375 -0.542969 1.394531 -0.59375 C 1.304688 -0.648438 1.175781 -0.679688 1.007812 -0.699219 C 0.835938 -0.714844 0.714844 -0.738281 0.640625 -0.765625 C 0.566406 -0.792969 0.511719 -0.835938 0.46875 -0.894531 C 0.425781 -0.949219 0.40625 -1.011719 0.40625 -1.074219 C 0.40625 -1.191406 0.464844 -1.285156 0.578125 -1.355469 C 0.695312 -1.425781 0.832031 -1.457031 0.992188 -1.457031 C 1.179688 -1.457031 1.332031 -1.414062 1.453125 -1.320312 Z "/>
</g>
<g id="glyph-2-8">
<path d="M 1.738281 -0.671875 L 0.347656 -0.671875 C 0.371094 -0.496094 0.445312 -0.351562 0.570312 -0.246094 C 0.691406 -0.136719 0.847656 -0.0820312 1.03125 -0.0820312 C 1.132812 -0.0820312 1.238281 -0.101562 1.351562 -0.132812 C 1.460938 -0.167969 1.554688 -0.210938 1.625 -0.265625 C 1.644531 -0.28125 1.664062 -0.292969 1.679688 -0.292969 C 1.695312 -0.292969 1.710938 -0.285156 1.722656 -0.269531 C 1.738281 -0.257812 1.742188 -0.242188 1.742188 -0.222656 C 1.742188 -0.203125 1.734375 -0.1875 1.71875 -0.167969 C 1.664062 -0.113281 1.574219 -0.0625 1.441406 -0.015625 C 1.308594 0.03125 1.171875 0.0546875 1.03125 0.0546875 C 0.796875 0.0546875 0.601562 -0.0234375 0.445312 -0.175781 C 0.285156 -0.332031 0.207031 -0.515625 0.207031 -0.734375 C 0.207031 -0.933594 0.28125 -1.101562 0.429688 -1.246094 C 0.574219 -1.386719 0.757812 -1.457031 0.976562 -1.457031 C 1.199219 -1.457031 1.382812 -1.386719 1.527344 -1.238281 C 1.671875 -1.09375 1.742188 -0.90625 1.738281 -0.671875 M 1.601562 -0.808594 C 1.574219 -0.960938 1.503906 -1.085938 1.386719 -1.179688 C 1.273438 -1.273438 1.132812 -1.320312 0.976562 -1.320312 C 0.816406 -1.320312 0.679688 -1.273438 0.5625 -1.179688 C 0.449219 -1.085938 0.375 -0.964844 0.347656 -0.808594 Z "/>
</g>
<g id="glyph-2-9">
<path d="M 0.484375 -1.410156 L 0.484375 -1.160156 C 0.566406 -1.257812 0.652344 -1.332031 0.746094 -1.382812 C 0.839844 -1.433594 0.949219 -1.457031 1.078125 -1.457031 C 1.210938 -1.457031 1.335938 -1.425781 1.449219 -1.363281 C 1.5625 -1.300781 1.652344 -1.214844 1.714844 -1.101562 C 1.777344 -0.988281 1.808594 -0.871094 1.808594 -0.746094 C 1.808594 -0.550781 1.738281 -0.382812 1.597656 -0.242188 C 1.457031 -0.105469 1.285156 -0.0351562 1.078125 -0.0351562 C 0.835938 -0.0351562 0.636719 -0.132812 0.484375 -0.332031 L 0.484375 0.492188 L 0.816406 0.492188 C 0.847656 0.492188 0.871094 0.496094 0.886719 0.511719 C 0.902344 0.523438 0.90625 0.539062 0.90625 0.558594 C 0.90625 0.578125 0.902344 0.59375 0.886719 0.609375 C 0.871094 0.621094 0.847656 0.628906 0.816406 0.628906 L 0.164062 0.628906 C 0.132812 0.628906 0.109375 0.621094 0.09375 0.609375 C 0.0820312 0.597656 0.0742188 0.582031 0.0742188 0.558594 C 0.0742188 0.539062 0.0820312 0.523438 0.09375 0.511719 C 0.109375 0.496094 0.132812 0.492188 0.164062 0.492188 L 0.347656 0.492188 L 0.347656 -1.269531 L 0.164062 -1.269531 C 0.132812 -1.269531 0.109375 -1.277344 0.09375 -1.289062 C 0.0820312 -1.304688 0.0742188 -1.320312 0.0742188 -1.339844 C 0.0742188 -1.359375 0.0820312 -1.375 0.09375 -1.390625 C 0.109375 -1.402344 0.132812 -1.410156 0.164062 -1.410156 L 0.484375 -1.410156 M 1.667969 -0.746094 C 1.667969 -0.90625 1.613281 -1.039062 1.5 -1.152344 C 1.382812 -1.265625 1.242188 -1.320312 1.078125 -1.320312 C 0.914062 -1.320312 0.773438 -1.261719 0.65625 -1.152344 C 0.542969 -1.039062 0.484375 -0.902344 0.484375 -0.746094 C 0.484375 -0.589844 0.542969 -0.453125 0.65625 -0.339844 C 0.773438 -0.230469 0.914062 -0.171875 1.078125 -0.171875 C 1.242188 -0.171875 1.382812 -0.230469 1.496094 -0.339844 C 1.613281 -0.453125 1.667969 -0.589844 1.667969 -0.746094 Z "/>
</g>
<g id="glyph-2-10">
<path d="M 0.972656 -0.390625 L 1.03125 -0.390625 C 1.089844 -0.390625 1.144531 -0.371094 1.1875 -0.328125 C 1.230469 -0.285156 1.25 -0.234375 1.25 -0.171875 C 1.25 -0.109375 1.230469 -0.0585938 1.1875 -0.015625 C 1.140625 0.0273438 1.089844 0.046875 1.03125 0.046875 L 0.972656 0.046875 C 0.910156 0.046875 0.859375 0.0273438 0.816406 -0.015625 C 0.773438 -0.0585938 0.75 -0.109375 0.75 -0.171875 C 0.75 -0.234375 0.773438 -0.285156 0.816406 -0.328125 C 0.859375 -0.371094 0.910156 -0.390625 0.972656 -0.390625 Z "/>
</g>
</g>
</defs>
<g fill="rgb(97.647059%, 96.470588%, 93.72549%)" fill-opacity="1">
<use xlink:href="#glyph-0-0" x="30" y="22.774414"/>
<use xlink:href="#glyph-0-1" x="32" y="22.774414"/>
<use xlink:href="#glyph-0-2" x="34" y="22.774414"/>
<use xlink:href="#glyph-0-3" x="36" y="22.774414"/>
<use xlink:href="#glyph-0-1" x="38" y="22.774414"/>
<use xlink:href="#glyph-0-4" x="40" y="22.774414"/>
<use xlink:href="#glyph-0-5" x="42" y="22.774414"/>
<use xlink:href="#glyph-0-6" x="44" y="22.774414"/>
<use xlink:href="#glyph-0-7" x="46" y="22.774414"/>
<use xlink:href="#glyph-0-1" x="48" y="22.774414"/>
<use xlink:href="#glyph-0-8" x="50" y="22.774414"/>
<use xlink:href="#glyph-0-9" x="52" y="22.774414"/>
<use xlink:href="#glyph-0-5" x="54" y="22.774414"/>
<use xlink:href="#glyph-0-10" x="56" y="22.774414"/>
<use xlink:href="#glyph-0-11" x="58" y="22.774414"/>
<use xlink:href="#glyph-0-8" x="60" y="22.774414"/>
<use xlink:href="#glyph-0-8" x="62" y="22.774414"/>
<use xlink:href="#glyph-0-1" x="64" y="22.774414"/>
<use xlink:href="#glyph-0-10" x="66" y="22.774414"/>
<use xlink:href="#glyph-0-9" x="68" y="22.774414"/>
<use xlink:href="#glyph-0-4" x="70" y="22.774414"/>
<use xlink:href="#glyph-0-5" x="72" y="22.774414"/>
<use xlink:href="#glyph-0-12" x="74" y="22.774414"/>
<use xlink:href="#glyph-0-8" x="76" y="22.774414"/>
<use xlink:href="#glyph-0-5" x="78" y="22.774414"/>
<use xlink:href="#glyph-0-13" x="80" y="22.774414"/>
<use xlink:href="#glyph-0-13" x="82" y="22.774414"/>
<use xlink:href="#glyph-0-14" x="84" y="22.774414"/>
<use xlink:href="#glyph-0-5" x="86" y="22.774414"/>
</g>
<g fill="rgb(97.647059%, 96.470588%, 93.72549%)" fill-opacity="1">
<use xlink:href="#glyph-1-0" x="30" y="26.024414"/>
<use xlink:href="#glyph-1-1" x="32" y="26.024414"/>
<use xlink:href="#glyph-1-2" x="34" y="26.024414"/>
<use xlink:href="#glyph-1-3" x="36" y="26.024414"/>
<use xlink:href="#glyph-1-2" x="38" y="26.024414"/>
<use xlink:href="#glyph-1-4" x="40" y="26.024414"/>
<use xlink:href="#glyph-1-5" x="42" y="26.024414"/>
<use xlink:href="#glyph-1-6" x="44" y="26.024414"/>
<use xlink:href="#glyph-1-7" x="46" y="26.024414"/>
<use xlink:href="#glyph-1-2" x="48" y="26.024414"/>
<use xlink:href="#glyph-1-8" x="50" y="26.024414"/>
<use xlink:href="#glyph-1-9" x="52" y="26.024414"/>
<use xlink:href="#glyph-1-0" x="54" y="26.024414"/>
<use xlink:href="#glyph-1-2" x="56" y="26.024414"/>
<use xlink:href="#glyph-1-1" x="58" y="26.024414"/>
<use xlink:href="#glyph-1-10" x="60" y="26.024414"/>
<use xlink:href="#glyph-1-2" x="62" y="26.024414"/>
<use xlink:href="#glyph-1-0" x="64" y="26.024414"/>
<use xlink:href="#glyph-1-1" x="66" y="26.024414"/>
<use xlink:href="#glyph-1-1" x="68" y="26.024414"/>
<use xlink:href="#glyph-1-11" x="70" y="26.024414"/>
<use xlink:href="#glyph-1-8" x="72" y="26.024414"/>
<use xlink:href="#glyph-1-2" x="74" y="26.024414"/>
<use xlink:href="#glyph-1-0" x="76" y="26.024414"/>
<use xlink:href="#glyph-1-7" x="78" y="26.024414"/>
<use xlink:href="#glyph-1-4" x="80" y="26.024414"/>
<use xlink:href="#glyph-1-1" x="82" y="26.024414"/>
<use xlink:href="#glyph-1-12" x="84" y="26.024414"/>
<use xlink:href="#glyph-1-13" x="86" y="26.024414"/>
<use xlink:href="#glyph-1-7" x="88" y="26.024414"/>
<use xlink:href="#glyph-1-2" x="90" y="26.024414"/>
</g>
<g fill="rgb(97.647059%, 96.470588%, 93.72549%)" fill-opacity="1">
<use xlink:href="#glyph-2-0" x="30" y="29.274414"/>
<use xlink:href="#glyph-2-1" x="32" y="29.274414"/>
<use xlink:href="#glyph-2-2" x="34" y="29.274414"/>
<use xlink:href="#glyph-2-3" x="36" y="29.274414"/>
<use xlink:href="#glyph-2-3" x="38" y="29.274414"/>
<use xlink:href="#glyph-2-4" x="40" y="29.274414"/>
<use xlink:href="#glyph-2-5" x="42" y="29.274414"/>
<use xlink:href="#glyph-2-6" x="44" y="29.274414"/>
<use xlink:href="#glyph-2-7" x="46" y="29.274414"/>
<use xlink:href="#glyph-2-8" x="48" y="29.274414"/>
<use xlink:href="#glyph-2-1" x="50" y="29.274414"/>
<use xlink:href="#glyph-2-4" x="52" y="29.274414"/>
<use xlink:href="#glyph-2-3" x="54" y="29.274414"/>
<use xlink:href="#glyph-2-3" x="56" y="29.274414"/>
<use xlink:href="#glyph-2-9" x="58" y="29.274414"/>
<use xlink:href="#glyph-2-10" x="60" y="29.274414"/>
</g>
</svg>
