<?xml version="1.0" encoding="UTF-8"?>
<svg xmlns="http://www.w3.org/2000/svg" xmlns:xlink="http://www.w3.org/1999/xlink" width="854" height="480" viewBox="0 0 854 480">
<defs>
<g>
<g id="glyph-0-0">
<path d="M 0.914062 -1.519531 C 1.023438 -1.609375 1.125 -1.675781 1.222656 -1.714844 C 1.320312 -1.757812 1.421875 -1.777344 1.53125 -1.777344 C 1.765625 -1.777344 1.96875 -1.683594 2.144531 -1.5 C 2.320312 -1.3125 2.40625 -1.082031 2.40625 -0.804688 C 2.40625 -0.542969 2.324219 -0.335938 2.164062 -0.175781 C 2 -0.015625 1.777344 0.0664062 1.5 0.0664062 C 1.265625 0.0664062 1.074219 0.0117188 0.925781 -0.0976562 C 0.773438 -0.207031 0.660156 -0.375 0.582031 -0.597656 C 0.507812 -0.824219 0.46875 -1.078125 0.46875 -1.355469 C 0.46875 -1.6875 0.542969 -1.964844 0.695312 -2.183594 C 0.847656 -2.40625 1.027344 -2.574219 1.234375 -2.695312 C 1.4375 -2.820312 1.65625 -2.878906 1.882812 -2.878906 C 2.0625 -2.878906 2.203125 -2.84375 2.304688 -2.773438 C 2.371094 -2.726562 2.402344 -2.664062 2.402344 -2.589844 C 2.402344 -2.527344 2.378906 -2.472656 2.335938 -2.425781 C 2.292969 -2.382812 2.242188 -2.359375 2.179688 -2.359375 C 2.144531 -2.359375 2.097656 -2.378906 2.03125 -2.414062 C 1.992188 -2.433594 1.953125 -2.441406 1.917969 -2.441406 C 1.777344 -2.441406 1.628906 -2.402344 1.476562 -2.324219 C 1.324219 -2.242188 1.195312 -2.121094 1.082031 -1.953125 C 1.007812 -1.835938 0.949219 -1.691406 0.914062 -1.519531 M 0.980469 -0.832031 C 1.027344 -0.65625 1.089844 -0.539062 1.167969 -0.476562 C 1.246094 -0.410156 1.359375 -0.378906 1.507812 -0.378906 C 1.652344 -0.378906 1.765625 -0.417969 1.84375 -0.496094 C 1.921875 -0.570312 1.960938 -0.675781 1.960938 -0.808594 C 1.960938 -0.957031 1.917969 -1.082031 1.824219 -1.183594 C 1.734375 -1.28125 1.632812 -1.332031 1.519531 -1.332031 C 1.429688 -1.332031 1.335938 -1.289062 1.234375 -1.199219 C 1.132812 -1.113281 1.046875 -0.988281 0.980469 -0.832031 Z "/>
</g>
<g id="glyph-0-1">
<path d="M 1.671875 -0.222656 C 1.671875 -0.140625 1.644531 -0.0703125 1.585938 -0.0117188 C 1.523438 0.0429688 1.441406 0.0703125 1.339844 0.0703125 C 1.234375 0.0703125 1.152344 0.0429688 1.09375 -0.0117188 C 1.035156 -0.0703125 1.003906 -0.140625 1.003906 -0.222656 C 1.003906 -0.308594 1.035156 -0.378906 1.09375 -0.433594 C 1.152344 -0.492188 1.234375 -0.519531 1.339844 -0.519531 C 1.441406 -0.519531 1.523438 -0.492188 1.585938 -0.433594 C 1.644531 -0.378906 1.671875 -0.308594 1.671875 -0.222656 Z "/>
</g>
<g id="glyph-0-2">
</g>
<g id="glyph-0-3">
<path d="M 0.636719 -1.769531 L 0.636719 -0.445312 L 0.796875 -0.445312 C 0.90625 -0.445312 0.980469 -0.425781 1.027344 -0.382812 C 1.074219 -0.339844 1.097656 -0.289062 1.097656 -0.222656 C 1.097656 -0.15625 1.074219 -0.101562 1.027344 -0.0625 C 0.980469 -0.0195312 0.90625 0 0.796875 0 L 0.214844 0 C 0.109375 0 0.03125 -0.0195312 -0.015625 -0.0625 C -0.0585938 -0.101562 -0.0820312 -0.15625 -0.0820312 -0.222656 C -0.0820312 -0.289062 -0.0585938 -0.339844 -0.015625 -0.382812 C 0.03125 -0.425781 0.0976562 -0.445312 0.191406 -0.445312 L 0.191406 -2.183594 C 0.113281 -2.191406 0.0546875 -2.214844 0.015625 -2.257812 C -0.0234375 -2.296875 -0.0429688 -2.347656 -0.0429688 -2.410156 C -0.0429688 -2.476562 -0.0195312 -2.527344 0.0234375 -2.570312 C 0.0703125 -2.613281 0.148438 -2.632812 0.253906 -2.632812 L 0.742188 -2.628906 L 1.347656 -1.292969 L 1.941406 -2.632812 L 2.433594 -2.628906 C 2.542969 -2.628906 2.617188 -2.609375 2.664062 -2.570312 C 2.710938 -2.527344 2.730469 -2.476562 2.730469 -2.410156 C 2.730469 -2.347656 2.710938 -2.296875 2.671875 -2.257812 C 2.628906 -2.214844 2.570312 -2.191406 2.496094 -2.183594 L 2.496094 -0.445312 C 2.589844 -0.445312 2.660156 -0.425781 2.703125 -0.382812 C 2.75 -0.339844 2.769531 -0.285156 2.769531 -0.222656 C 2.769531 -0.15625 2.75 -0.101562 2.703125 -0.0625 C 2.65625 -0.0195312 2.582031 0 2.472656 0 L 1.886719 0 C 1.78125 0 1.707031 -0.0195312 1.660156 -0.0625 C 1.617188 -0.101562 1.59375 -0.15625 1.59375 -0.222656 C 1.59375 -0.289062 1.617188 -0.339844 1.660156 -0.382812 C 1.707031 -0.425781 1.78125 -0.445312 1.886719 -0.445312 L 2.050781 -0.445312 L 2.050781 -1.769531 L 1.539062 -0.625 L 1.15625 -0.625 Z "/>
</g>
<g id="glyph-0-4">
<path d="M 2.449219 -0.757812 L 0.625 -0.757812 C 0.671875 -0.644531 0.753906 -0.550781 0.871094 -0.480469 C 0.988281 -0.410156 1.148438 -0.375 1.351562 -0.375 C 1.515625 -0.375 1.734375 -0.410156 2.007812 -0.480469 C 2.121094 -0.507812 2.199219 -0.523438 2.242188 -0.523438 C 2.300781 -0.523438 2.351562 -0.503906 2.390625 -0.460938 C 2.433594 -0.417969 2.453125 -0.367188 2.453125 -0.300781 C 2.453125 -0.242188 2.429688 -0.195312 2.386719 -0.152344 C 2.328125 -0.101562 2.1875 -0.0507812 1.964844 0 C 1.738281 0.046875 1.523438 0.0703125 1.316406 0.0703125 C 0.960938 0.0703125 0.675781 -0.0273438 0.464844 -0.230469 C 0.25 -0.429688 0.144531 -0.679688 0.144531 -0.972656 C 0.144531 -1.285156 0.257812 -1.539062 0.488281 -1.734375 C 0.71875 -1.929688 0.984375 -2.027344 1.285156 -2.027344 C 1.46875 -2.027344 1.632812 -1.996094 1.785156 -1.933594 C 1.9375 -1.871094 2.046875 -1.800781 2.121094 -1.726562 C 2.226562 -1.621094 2.3125 -1.488281 2.378906 -1.332031 C 2.425781 -1.21875 2.449219 -1.09375 2.449219 -0.949219 L 2.449219 -0.757812 M 1.957031 -1.203125 C 1.890625 -1.332031 1.800781 -1.425781 1.691406 -1.488281 C 1.582031 -1.550781 1.449219 -1.585938 1.296875 -1.585938 C 1.148438 -1.585938 1.015625 -1.550781 0.90625 -1.488281 C 0.796875 -1.425781 0.707031 -1.332031 0.636719 -1.203125 Z "/>
</g>
<g id="glyph-0-5">
<path d="M 0.648438 -1.96875 L 0.648438 -1.84375 C 0.71875 -1.914062 0.785156 -1.964844 0.84375 -1.992188 C 0.902344 -2.019531 0.96875 -2.03125 1.046875 -2.03125 C 1.109375 -2.03125 1.175781 -2.015625 1.238281 -1.984375 C 1.300781 -1.953125 1.363281 -1.902344 1.425781 -1.839844 C 1.503906 -1.902344 1.578125 -1.949219 1.660156 -1.980469 C 1.738281 -2.011719 1.820312 -2.027344 1.902344 -2.027344 C 2.066406 -2.027344 2.199219 -1.984375 2.300781 -1.898438 C 2.4375 -1.78125 2.507812 -1.628906 2.507812 -1.441406 L 2.507812 -0.445312 C 2.597656 -0.445312 2.667969 -0.425781 2.710938 -0.382812 C 2.757812 -0.339844 2.78125 -0.285156 2.78125 -0.222656 C 2.78125 -0.15625 2.757812 -0.101562 2.710938 -0.0625 C 2.667969 -0.0195312 2.589844 0 2.484375 0 L 2.0625 0 L 2.0625 -1.402344 C 2.0625 -1.472656 2.050781 -1.519531 2.023438 -1.546875 C 2 -1.570312 1.960938 -1.585938 1.910156 -1.585938 C 1.863281 -1.585938 1.816406 -1.570312 1.773438 -1.546875 C 1.722656 -1.507812 1.65625 -1.441406 1.578125 -1.339844 L 1.578125 -0.445312 C 1.671875 -0.445312 1.742188 -0.425781 1.785156 -0.382812 C 1.832031 -0.339844 1.851562 -0.285156 1.851562 -0.222656 C 1.851562 -0.15625 1.832031 -0.101562 1.785156 -0.0625 C 1.742188 -0.0195312 1.664062 0 1.558594 0 L 1.136719 0 L 1.136719 -1.402344 C 1.136719 -1.46875 1.121094 -1.515625 1.097656 -1.542969 C 1.070312 -1.570312 1.035156 -1.585938 0.984375 -1.585938 C 0.929688 -1.585938 0.878906 -1.566406 0.828125 -1.535156 C 0.777344 -1.503906 0.71875 -1.4375 0.648438 -1.339844 L 0.648438 -0.445312 C 0.738281 -0.445312 0.808594 -0.425781 0.855469 -0.382812 C 0.898438 -0.339844 0.921875 -0.285156 0.921875 -0.222656 C 0.921875 -0.15625 0.898438 -0.101562 0.855469 -0.0625 C 0.808594 -0.0195312 0.730469 0 0.625 0 L 0.222656 0 C 0.117188 0 0.0390625 -0.0195312 -0.00390625 -0.0625 C -0.0507812 -0.101562 -0.0742188 -0.15625 -0.0742188 -0.222656 C -0.0742188 -0.289062 -0.0507812 -0.339844 -0.0078125 -0.382812 C 0.0390625 -0.425781 0.109375 -0.445312 0.203125 -0.445312 L 0.203125 -1.527344 C 0.109375 -1.527344 0.0390625 -1.546875 -0.0078125 -1.589844 C -0.0507812 -1.628906 -0.0742188 -1.683594 -0.0742188 -1.75 C -0.0742188 -1.8125 -0.0507812 -1.867188 -0.00390625 -1.910156 C 0.0390625 -1.949219 0.117188 -1.96875 0.222656 -1.96875 Z "/>
</g>
<g id="glyph-0-6">
<path d="M 2.488281 -0.949219 C 2.488281 -0.777344 2.441406 -0.613281 2.347656 -0.453125 C 2.253906 -0.292969 2.109375 -0.164062 1.921875 -0.0703125 C 1.734375 0.0234375 1.539062 0.0703125 1.335938 0.0703125 C 1.132812 0.0703125 0.941406 0.0234375 0.753906 -0.0664062 C 0.570312 -0.160156 0.429688 -0.289062 0.332031 -0.449219 C 0.234375 -0.609375 0.1875 -0.777344 0.1875 -0.953125 C 0.1875 -1.128906 0.234375 -1.304688 0.335938 -1.476562 C 0.433594 -1.648438 0.574219 -1.78125 0.757812 -1.882812 C 0.941406 -1.980469 1.136719 -2.027344 1.335938 -2.027344 C 1.539062 -2.027344 1.734375 -1.980469 1.921875 -1.878906 C 2.109375 -1.777344 2.25 -1.640625 2.34375 -1.472656 C 2.441406 -1.300781 2.488281 -1.128906 2.488281 -0.949219 M 2.042969 -0.945312 C 2.042969 -1.089844 1.992188 -1.222656 1.890625 -1.339844 C 1.75 -1.503906 1.566406 -1.585938 1.335938 -1.585938 C 1.136719 -1.585938 0.96875 -1.519531 0.832031 -1.390625 C 0.699219 -1.261719 0.632812 -1.113281 0.632812 -0.945312 C 0.632812 -0.804688 0.699219 -0.675781 0.835938 -0.554688 C 0.972656 -0.433594 1.136719 -0.375 1.335938 -0.375 C 1.535156 -0.375 1.703125 -0.433594 1.839844 -0.554688 C 1.976562 -0.675781 2.042969 -0.804688 2.042969 -0.945312 Z "/>
</g>
<g id="glyph-0-7">
<path d="M 1.242188 -1.96875 L 1.242188 -1.691406 C 1.429688 -1.828125 1.574219 -1.917969 1.683594 -1.960938 C 1.789062 -2.007812 1.890625 -2.027344 1.984375 -2.027344 C 2.128906 -2.027344 2.269531 -1.976562 2.40625 -1.867188 C 2.5 -1.796875 2.546875 -1.722656 2.546875 -1.648438 C 2.546875 -1.582031 2.523438 -1.53125 2.480469 -1.484375 C 2.433594 -1.441406 2.382812 -1.417969 2.320312 -1.417969 C 2.265625 -1.417969 2.207031 -1.445312 2.144531 -1.5 C 2.085938 -1.554688 2.03125 -1.585938 1.984375 -1.585938 C 1.921875 -1.585938 1.828125 -1.546875 1.703125 -1.46875 C 1.582031 -1.390625 1.425781 -1.273438 1.242188 -1.117188 L 1.242188 -0.445312 L 1.875 -0.445312 C 1.980469 -0.445312 2.058594 -0.425781 2.105469 -0.382812 C 2.148438 -0.339844 2.171875 -0.289062 2.171875 -0.222656 C 2.171875 -0.15625 2.148438 -0.101562 2.105469 -0.0625 C 2.058594 -0.0195312 1.980469 0 1.875 0 L 0.53125 0 C 0.425781 0 0.347656 -0.0195312 0.300781 -0.0625 C 0.257812 -0.101562 0.234375 -0.15625 0.234375 -0.222656 C 0.234375 -0.289062 0.257812 -0.339844 0.300781 -0.382812 C 0.347656 -0.425781 0.425781 -0.445312 0.53125 -0.445312 L 0.796875 -0.445312 L 0.796875 -1.527344 L 0.636719 -1.527344 C 0.527344 -1.527344 0.453125 -1.546875 0.40625 -1.585938 C 0.359375 -1.628906 0.339844 -1.683594 0.339844 -1.75 C 0.339844 -1.8125 0.359375 -1.867188 0.40625 -1.910156 C 0.453125 -1.949219 0.527344 -1.96875 0.636719 -1.96875 Z "/>
</g>
<g id="glyph-0-8">
<path d="M 1.085938 -0.015625 L 0.316406 -1.527344 C 0.242188 -1.535156 0.1875 -1.558594 0.148438 -1.597656 C 0.113281 -1.640625 0.09375 -1.6875 0.09375 -1.746094 C 0.09375 -1.8125 0.117188 -1.867188 0.160156 -1.910156 C 0.207031 -1.949219 0.285156 -1.96875 0.390625 -1.96875 L 0.796875 -1.96875 C 0.902344 -1.96875 0.980469 -1.949219 1.023438 -1.910156 C 1.070312 -1.867188 1.09375 -1.8125 1.09375 -1.746094 C 1.09375 -1.683594 1.070312 -1.628906 1.023438 -1.585938 C 0.980469 -1.546875 0.90625 -1.527344 0.808594 -1.527344 L 1.335938 -0.503906 L 1.855469 -1.527344 C 1.761719 -1.527344 1.6875 -1.546875 1.644531 -1.585938 C 1.597656 -1.628906 1.574219 -1.683594 1.574219 -1.75 C 1.574219 -1.8125 1.597656 -1.867188 1.644531 -1.910156 C 1.6875 -1.949219 1.765625 -1.96875 1.871094 -1.96875 L 2.292969 -1.96875 C 2.398438 -1.96875 2.472656 -1.949219 2.519531 -1.910156 C 2.5625 -1.867188 2.585938 -1.8125 2.585938 -1.746094 C 2.585938 -1.6875 2.566406 -1.636719 2.527344 -1.597656 C 2.488281 -1.554688 2.429688 -1.53125 2.355469 -1.527344 L 1.335938 0.484375 C 1.445312 0.484375 1.519531 0.496094 1.554688 0.515625 C 1.625 0.5625 1.65625 0.625 1.65625 0.707031 C 1.65625 0.773438 1.636719 0.824219 1.589844 0.867188 C 1.542969 0.90625 1.46875 0.929688 1.359375 0.929688 L 0.390625 0.929688 C 0.285156 0.929688 0.207031 0.90625 0.160156 0.867188 C 0.117188 0.824219 0.09375 0.773438 0.09375 0.707031 C 0.09375 0.640625 0.117188 0.585938 0.160156 0.546875 C 0.207031 0.503906 0.285156 0.484375 0.390625 0.484375 L 0.832031 0.484375 Z "/>
</g>
<g id="glyph-0-9">
<path d="M 1.796875 -0.882812 L 1.90625 -1.261719 L 2.132812 -1.261719 C 2.226562 -1.261719 2.289062 -1.25 2.324219 -1.226562 C 2.394531 -1.183594 2.429688 -1.117188 2.429688 -1.035156 C 2.429688 -0.972656 2.410156 -0.921875 2.371094 -0.882812 C 2.335938 -0.839844 2.292969 -0.820312 2.238281 -0.816406 C 2.203125 -0.660156 2.15625 -0.539062 2.101562 -0.445312 C 2.21875 -0.445312 2.296875 -0.433594 2.328125 -0.414062 C 2.398438 -0.367188 2.433594 -0.304688 2.433594 -0.222656 C 2.433594 -0.15625 2.410156 -0.101562 2.367188 -0.0625 C 2.320312 -0.0195312 2.246094 0 2.136719 0 L 1.871094 0 L 1.820312 -0.0703125 C 1.753906 -0.0234375 1.691406 0.0078125 1.632812 0.0273438 C 1.546875 0.0507812 1.4375 0.0664062 1.3125 0.0664062 C 1.050781 0.0664062 0.847656 0 0.703125 -0.136719 C 0.558594 -0.269531 0.488281 -0.4375 0.488281 -0.644531 C 0.488281 -0.785156 0.523438 -0.917969 0.59375 -1.046875 C 0.667969 -1.175781 0.777344 -1.28125 0.925781 -1.371094 C 0.859375 -1.476562 0.820312 -1.558594 0.800781 -1.617188 C 0.78125 -1.675781 0.769531 -1.738281 0.769531 -1.804688 C 0.769531 -1.984375 0.839844 -2.140625 0.972656 -2.273438 C 1.109375 -2.410156 1.273438 -2.476562 1.457031 -2.476562 C 1.507812 -2.476562 1.558594 -2.472656 1.609375 -2.460938 C 1.664062 -2.449219 1.714844 -2.429688 1.769531 -2.402344 C 1.824219 -2.425781 1.863281 -2.4375 1.886719 -2.4375 C 1.949219 -2.4375 2 -2.414062 2.042969 -2.371094 C 2.085938 -2.328125 2.109375 -2.273438 2.109375 -2.214844 C 2.109375 -2.164062 2.097656 -2.121094 2.074219 -2.089844 C 2.050781 -2.054688 2 -2.019531 1.929688 -1.980469 L 1.742188 -1.882812 C 1.671875 -1.945312 1.613281 -1.988281 1.570312 -2.007812 C 1.539062 -2.023438 1.5 -2.035156 1.457031 -2.035156 C 1.386719 -2.035156 1.332031 -2.011719 1.285156 -1.964844 C 1.238281 -1.917969 1.214844 -1.867188 1.214844 -1.808594 C 1.214844 -1.757812 1.257812 -1.667969 1.34375 -1.546875 L 1.796875 -0.882812 M 1.179688 -0.996094 C 1.015625 -0.917969 0.933594 -0.804688 0.933594 -0.648438 C 0.933594 -0.5625 0.960938 -0.5 1.019531 -0.453125 C 1.074219 -0.402344 1.171875 -0.378906 1.3125 -0.378906 C 1.402344 -0.378906 1.484375 -0.402344 1.558594 -0.445312 Z "/>
</g>
<g id="glyph-0-10">
<path d="M 2.351562 -2.183594 L 2.351562 -0.925781 C 2.351562 -0.648438 2.25 -0.414062 2.054688 -0.222656 C 1.855469 -0.03125 1.617188 0.0664062 1.339844 0.0664062 C 1.203125 0.0664062 1.074219 0.0390625 0.953125 -0.0078125 C 0.832031 -0.0546875 0.722656 -0.128906 0.628906 -0.222656 C 0.53125 -0.316406 0.457031 -0.414062 0.402344 -0.515625 C 0.351562 -0.617188 0.324219 -0.753906 0.324219 -0.925781 L 0.324219 -2.183594 C 0.230469 -2.183594 0.160156 -2.207031 0.113281 -2.246094 C 0.0703125 -2.289062 0.046875 -2.34375 0.046875 -2.410156 C 0.046875 -2.476562 0.0703125 -2.527344 0.113281 -2.570312 C 0.160156 -2.609375 0.238281 -2.628906 0.34375 -2.628906 L 0.929688 -2.632812 C 1.035156 -2.632812 1.113281 -2.613281 1.15625 -2.570312 C 1.203125 -2.527344 1.226562 -2.476562 1.226562 -2.410156 C 1.226562 -2.34375 1.203125 -2.289062 1.15625 -2.246094 C 1.113281 -2.207031 1.035156 -2.183594 0.929688 -2.183594 L 0.769531 -2.183594 L 0.769531 -0.886719 C 0.769531 -0.753906 0.824219 -0.632812 0.933594 -0.53125 C 1.042969 -0.429688 1.179688 -0.378906 1.335938 -0.378906 C 1.4375 -0.378906 1.535156 -0.40625 1.628906 -0.453125 C 1.71875 -0.503906 1.792969 -0.574219 1.851562 -0.667969 C 1.886719 -0.726562 1.90625 -0.800781 1.90625 -0.886719 L 1.90625 -2.183594 L 1.746094 -2.183594 C 1.636719 -2.183594 1.5625 -2.207031 1.515625 -2.246094 C 1.46875 -2.289062 1.449219 -2.34375 1.449219 -2.410156 C 1.449219 -2.476562 1.46875 -2.527344 1.515625 -2.570312 C 1.5625 -2.613281 1.636719 -2.632812 1.746094 -2.632812 L 2.328125 -2.628906 C 2.433594 -2.628906 2.511719 -2.609375 2.558594 -2.570312 C 2.601562 -2.527344 2.625 -2.476562 2.625 -2.410156 C 2.625 -2.34375 2.601562 -2.289062 2.558594 -2.246094 C 2.511719 -2.207031 2.445312 -2.183594 2.351562 -2.183594 Z "/>
</g>
<g id="glyph-0-11">
<path d="M 1.8125 -1.449219 C 1.742188 -1.496094 1.664062 -1.527344 1.585938 -1.550781 C 1.507812 -1.574219 1.421875 -1.585938 1.335938 -1.585938 C 1.164062 -1.585938 1.027344 -1.554688 0.925781 -1.5 C 0.882812 -1.476562 0.859375 -1.449219 0.859375 -1.417969 C 0.859375 -1.386719 0.890625 -1.351562 0.949219 -1.320312 C 0.996094 -1.296875 1.101562 -1.277344 1.261719 -1.253906 C 1.554688 -1.214844 1.761719 -1.171875 1.878906 -1.132812 C 2.027344 -1.078125 2.144531 -1 2.226562 -0.894531 C 2.3125 -0.789062 2.351562 -0.675781 2.351562 -0.558594 C 2.351562 -0.402344 2.28125 -0.269531 2.140625 -0.160156 C 1.941406 -0.00390625 1.679688 0.0703125 1.359375 0.0703125 C 1.230469 0.0703125 1.109375 0.0585938 1 0.0390625 C 0.890625 0.015625 0.792969 -0.015625 0.699219 -0.0625 C 0.679688 -0.0429688 0.65625 -0.0273438 0.632812 -0.015625 C 0.605469 -0.0078125 0.582031 -0.00390625 0.554688 -0.00390625 C 0.484375 -0.00390625 0.429688 -0.0234375 0.390625 -0.0703125 C 0.347656 -0.117188 0.328125 -0.191406 0.328125 -0.300781 L 0.328125 -0.449219 C 0.328125 -0.554688 0.347656 -0.632812 0.390625 -0.679688 C 0.429688 -0.722656 0.484375 -0.746094 0.550781 -0.746094 C 0.605469 -0.746094 0.648438 -0.730469 0.6875 -0.703125 C 0.722656 -0.671875 0.75 -0.621094 0.769531 -0.550781 C 0.839844 -0.492188 0.921875 -0.449219 1.015625 -0.417969 C 1.109375 -0.386719 1.222656 -0.375 1.34375 -0.375 C 1.550781 -0.375 1.707031 -0.40625 1.820312 -0.46875 C 1.875 -0.5 1.902344 -0.535156 1.902344 -0.570312 C 1.902344 -0.625 1.863281 -0.675781 1.785156 -0.710938 C 1.710938 -0.75 1.550781 -0.78125 1.3125 -0.808594 C 0.953125 -0.84375 0.714844 -0.917969 0.59375 -1.023438 C 0.472656 -1.128906 0.414062 -1.261719 0.414062 -1.414062 C 0.414062 -1.574219 0.480469 -1.707031 0.617188 -1.8125 C 0.796875 -1.957031 1.039062 -2.027344 1.332031 -2.027344 C 1.433594 -2.027344 1.535156 -2.019531 1.628906 -2 C 1.722656 -1.980469 1.8125 -1.949219 1.902344 -1.910156 C 1.929688 -1.929688 1.953125 -1.945312 1.976562 -1.957031 C 2 -1.964844 2.023438 -1.96875 2.042969 -1.96875 C 2.105469 -1.96875 2.15625 -1.949219 2.195312 -1.902344 C 2.238281 -1.855469 2.257812 -1.78125 2.257812 -1.671875 L 2.257812 -1.566406 C 2.257812 -1.46875 2.246094 -1.402344 2.222656 -1.367188 C 2.175781 -1.300781 2.113281 -1.265625 2.035156 -1.265625 C 1.980469 -1.265625 1.933594 -1.285156 1.890625 -1.316406 C 1.851562 -1.351562 1.824219 -1.394531 1.8125 -1.449219 Z "/>
</g>
<g id="glyph-0-12">
<path d="M 1.078125 -0.902344 L 1.078125 -0.445312 L 1.527344 -0.445312 C 1.632812 -0.445312 1.707031 -0.425781 1.753906 -0.382812 C 1.800781 -0.339844 1.824219 -0.289062 1.824219 -0.222656 C 1.824219 -0.15625 1.800781 -0.101562 1.753906 -0.0625 C 1.707031 -0.0195312 1.632812 0 1.527344 0 L 0.5625 0 C 0.453125 0 0.378906 -0.0195312 0.332031 -0.0625 C 0.289062 -0.101562 0.265625 -0.15625 0.265625 -0.222656 C 0.265625 -0.289062 0.289062 -0.339844 0.335938 -0.382812 C 0.378906 -0.425781 0.457031 -0.445312 0.5625 -0.445312 L 0.632812 -0.445312 L 0.632812 -2.183594 L 0.5625 -2.183594 C 0.453125 -2.183594 0.378906 -2.207031 0.332031 -2.246094 C 0.289062 -2.289062 0.265625 -2.34375 0.265625 -2.410156 C 0.265625 -2.476562 0.289062 -2.527344 0.332031 -2.570312 C 0.378906 -2.613281 0.453125 -2.632812 0.5625 -2.632812 L 1.585938 -2.628906 C 1.886719 -2.628906 2.125 -2.546875 2.300781 -2.382812 C 2.476562 -2.21875 2.566406 -2.019531 2.566406 -1.785156 C 2.566406 -1.652344 2.535156 -1.53125 2.476562 -1.414062 C 2.429688 -1.328125 2.355469 -1.242188 2.25 -1.15625 C 2.144531 -1.074219 2.039062 -1.007812 1.929688 -0.964844 C 1.820312 -0.925781 1.675781 -0.902344 1.496094 -0.902344 L 1.078125 -0.902344 M 1.078125 -1.347656 L 1.488281 -1.347656 C 1.683594 -1.347656 1.835938 -1.390625 1.949219 -1.480469 C 2.0625 -1.566406 2.121094 -1.671875 2.121094 -1.792969 C 2.121094 -1.898438 2.074219 -1.988281 1.980469 -2.066406 C 1.890625 -2.144531 1.757812 -2.183594 1.589844 -2.183594 L 1.078125 -2.183594 Z "/>
</g>
<g id="glyph-0-13">
<path d="M 1.332031 -1.527344 L 1.332031 -0.445312 L 1.964844 -0.445312 C 2.070312 -0.445312 2.148438 -0.425781 2.191406 -0.382812 C 2.238281 -0.339844 2.261719 -0.289062 2.261719 -0.222656 C 2.261719 -0.15625 2.238281 -0.101562 2.191406 -0.0625 C 2.148438 -0.0195312 2.070312 0 1.964844 0 L 0.621094 0 C 0.511719 0 0.4375 -0.0195312 0.390625 -0.0625 C 0.347656 -0.101562 0.324219 -0.15625 0.324219 -0.222656 C 0.324219 -0.289062 0.347656 -0.339844 0.390625 -0.382812 C 0.4375 -0.425781 0.511719 -0.445312 0.621094 -0.445312 L 0.886719 -0.445312 L 0.886719 -1.527344 L 0.671875 -1.527344 C 0.566406 -1.527344 0.488281 -1.546875 0.445312 -1.585938 C 0.398438 -1.628906 0.375 -1.683594 0.375 -1.75 C 0.375 -1.8125 0.398438 -1.867188 0.445312 -1.910156 C 0.488281 -1.949219 0.566406 -1.96875 0.671875 -1.96875 L 0.886719 -1.96875 L 0.886719 -2.140625 C 0.886719 -2.332031 0.957031 -2.496094 1.101562 -2.621094 C 1.25 -2.75 1.460938 -2.8125 1.734375 -2.8125 C 1.859375 -2.8125 2 -2.804688 2.164062 -2.78125 C 2.324219 -2.757812 2.425781 -2.726562 2.472656 -2.6875 C 2.519531 -2.644531 2.539062 -2.59375 2.539062 -2.53125 C 2.539062 -2.460938 2.519531 -2.40625 2.480469 -2.363281 C 2.441406 -2.320312 2.390625 -2.300781 2.332031 -2.300781 C 2.304688 -2.300781 2.261719 -2.304688 2.207031 -2.316406 C 2.023438 -2.351562 1.859375 -2.371094 1.71875 -2.371094 C 1.570312 -2.371094 1.46875 -2.347656 1.414062 -2.304688 C 1.359375 -2.257812 1.332031 -2.203125 1.332031 -2.140625 L 1.332031 -1.96875 L 2.015625 -1.96875 C 2.121094 -1.96875 2.199219 -1.949219 2.246094 -1.910156 C 2.289062 -1.867188 2.3125 -1.8125 2.3125 -1.746094 C 2.3125 -1.683594 2.289062 -1.628906 2.246094 -1.585938 C 2.199219 -1.546875 2.121094 -1.527344 2.015625 -1.527344 Z "/>
</g>
<g id="glyph-0-14">
<path d="M 1.492188 -2.8125 L 1.492188 -2.34375 L 0.964844 -2.34375 L 0.964844 -2.8125 L 1.492188 -2.8125 M 1.554688 -1.96875 L 1.554688 -0.445312 L 2.085938 -0.445312 C 2.195312 -0.445312 2.269531 -0.425781 2.316406 -0.382812 C 2.363281 -0.339844 2.382812 -0.289062 2.382812 -0.222656 C 2.382812 -0.15625 2.363281 -0.101562 2.316406 -0.0625 C 2.269531 -0.0195312 2.195312 0 2.085938 0 L 0.574219 0 C 0.46875 0 0.390625 -0.0195312 0.347656 -0.0625 C 0.300781 -0.101562 0.277344 -0.15625 0.277344 -0.222656 C 0.277344 -0.289062 0.300781 -0.339844 0.347656 -0.382812 C 0.390625 -0.425781 0.46875 -0.445312 0.574219 -0.445312 L 1.109375 -0.445312 L 1.109375 -1.527344 L 0.75 -1.527344 C 0.644531 -1.527344 0.570312 -1.546875 0.523438 -1.585938 C 0.476562 -1.628906 0.453125 -1.683594 0.453125 -1.75 C 0.453125 -1.8125 0.476562 -1.867188 0.523438 -1.910156 C 0.566406 -1.949219 0.644531 -1.96875 0.75 -1.96875 Z "/>
</g>
<g id="glyph-0-15">
<path d="M 1.554688 -2.8125 L 1.554688 -0.445312 L 2.089844 -0.445312 C 2.195312 -0.445312 2.273438 -0.425781 2.320312 -0.382812 C 2.363281 -0.339844 2.386719 -0.289062 2.386719 -0.222656 C 2.386719 -0.15625 2.363281 -0.101562 2.320312 -0.0625 C 2.273438 -0.0195312 2.195312 0 2.089844 0 L 0.578125 0 C 0.46875 0 0.394531 -0.0195312 0.347656 -0.0625 C 0.300781 -0.101562 0.28125 -0.15625 0.28125 -0.222656 C 0.28125 -0.289062 0.300781 -0.339844 0.347656 -0.382812 C 0.394531 -0.425781 0.46875 -0.445312 0.578125 -0.445312 L 1.109375 -0.445312 L 1.109375 -2.371094 L 0.753906 -2.371094 C 0.648438 -2.371094 0.570312 -2.390625 0.523438 -2.429688 C 0.480469 -2.472656 0.457031 -2.527344 0.457031 -2.59375 C 0.457031 -2.65625 0.476562 -2.710938 0.523438 -2.753906 C 0.570312 -2.792969 0.644531 -2.8125 0.753906 -2.8125 Z "/>
</g>
</g>
</defs>
<g fill="rgb(76.862745%, 47.058824%, 16.470588%)" fill-opacity="1">
<use xlink:href="#glyph-0-0" x="30" y="23.699219"/>
<use xlink:href="#glyph-0-1" x="33" y="23.699219"/>
<use xlink:href="#glyph-0-2" x="36" y="23.699219"/>
<use xlink:href="#glyph-0-3" x="39" y="23.699219"/>
<use xlink:href="#glyph-0-4" x="42" y="23.699219"/>
<use xlink:href="#glyph-0-5" x="45" y="23.699219"/>
<use xlink:href="#glyph-0-6" x="48" y="23.699219"/>
<use xlink:href="#glyph-0-7" x="51" y="23.699219"/>
<use xlink:href="#glyph-0-8" x="54" y="23.699219"/>
<use xlink:href="#glyph-0-2" x="57" y="23.699219"/>
<use xlink:href="#glyph-0-9" x="60" y="23.699219"/>
<use xlink:href="#glyph-0-2" x="63" y="23.699219"/>
<use xlink:href="#glyph-0-10" x="66" y="23.699219"/>
<use xlink:href="#glyph-0-11" x="69" y="23.699219"/>
<use xlink:href="#glyph-0-4" x="72" y="23.699219"/>
<use xlink:href="#glyph-0-7" x="75" y="23.699219"/>
<use xlink:href="#glyph-0-2" x="78" y="23.699219"/>
<use xlink:href="#glyph-0-12" x="81" y="23.699219"/>
<use xlink:href="#glyph-0-7" x="84" y="23.699219"/>
<use xlink:href="#glyph-0-6" x="87" y="23.699219"/>
<use xlink:href="#glyph-0-13" x="90" y="23.699219"/>
<use xlink:href="#glyph-0-14" x="93" y="23.699219"/>
<use xlink:href="#glyph-0-15" x="96" y="23.699219"/>
<use xlink:href="#glyph-0-4" x="99" y="23.699219"/>
<use xlink:href="#glyph-0-11" x="102" y="23.699219"/>
</g>
</svg>
